#N canvas 434 100 590 326 12;
#X msg 21 127 1;
#X msg 70 87 0;
#X obj 21 87 t b b;
#X obj 21 57 sel 1 0;
#X obj 133 88 openpanel;
#X msg 73 160 open \$1;
#X text 146 124 Save file name so we don't have to re-open file for
repeated playback;
#X obj 21 27 inlet playback;
#X obj 73 127 symbol \$1;
#X obj 233 28 inlet select;
#X obj 172 220 spigot;
#X text 21 5 1 or 0;
#X text 292 191 1 or 0;
#X text 196 28 bang;
#X obj 21 190 readsf~ 2;
#X obj 21 280 outlet~ left;
#X obj 133 58 route bang;
#X obj 210 88 symbol;
#X obj 175 280 outlet done;
#X obj 211 190 inlet loop;
#X obj 175 250 spigot 1;
#X obj 228 220 == 0;
#X text 259 89 Convert to symbol (only way);
#X text 266 219 flip toggle;
#X obj 51 250 outlet~ right;
#X connect 0 0 14 0;
#X connect 1 0 14 0;
#X connect 2 0 0 0;
#X connect 2 1 8 0;
#X connect 3 0 2 0;
#X connect 3 1 1 0;
#X connect 4 0 8 1;
#X connect 5 0 14 0;
#X connect 7 0 3 0;
#X connect 8 0 5 0;
#X connect 9 0 16 0;
#X connect 10 0 2 0;
#X connect 14 0 15 0;
#X connect 14 1 24 0;
#X connect 14 2 10 0;
#X connect 14 2 20 0;
#X connect 16 0 4 0;
#X connect 16 1 17 0;
#X connect 17 0 8 1;
#X connect 19 0 10 1;
#X connect 19 0 21 0;
#X connect 20 0 18 0;
#X connect 21 0 20 1;
