#N canvas 411 393 693 340 12;
#X obj 75 48 inlet~ \$0-monoIn;
#N canvas 408 254 545 504 pitchedModals 0;
#X obj 281 75 inlet \$0-frequencyIn;
#X obj 63 75 inlet~ \$0-filterIn1;
#X obj 63 387 outlet~;
#X obj 281 166 +;
#X obj 281 138 t f f;
#X obj 392 218 +;
#X obj 392 185 t b f;
#X obj 63 275 vcf~ 500;
#X obj 196 275 vcf~ 500;
#X obj 366 275 vcf~ 500;
#X obj 89 250 sig~;
#X obj 222 250 sig~;
#X obj 392 250 sig~;
#X text 73 295 Fundamental;
#X text 210 294 2nd Harmonic;
#X text 383 295 3rd Harmonic;
#X text 342 115 Adds fundamental to get harmonics frequencies, f 16
;
#X connect 0 0 4 0;
#X connect 0 0 5 0;
#X connect 0 0 10 0;
#X connect 1 0 7 0;
#X connect 1 0 8 0;
#X connect 1 0 9 0;
#X connect 3 0 11 0;
#X connect 3 0 6 0;
#X connect 4 0 3 0;
#X connect 4 1 3 1;
#X connect 5 0 12 0;
#X connect 6 0 5 0;
#X connect 6 1 5 1;
#X connect 7 0 2 0;
#X connect 8 0 2 0;
#X connect 9 0 2 0;
#X connect 10 0 7 1;
#X connect 11 0 8 1;
#X connect 12 0 9 1;
#X restore 75 180 pd pitchedModals;
#N canvas 963 311 711 419 unpitchedModals 0;
#X obj 62 73 inlet~ \$0-filterIn2;
#X obj 308 51 inlet \$0-randomBang;
#X obj 62 333 outlet~;
#X obj 62 255 vcf~ 500;
#X obj 182 255 vcf~ 500;
#X obj 302 255 vcf~ 500;
#X obj 328 229 sig~;
#X obj 208 229 sig~;
#X obj 88 229 sig~;
#X obj 209 114 random 1000;
#X obj 308 114 random 1000;
#X obj 415 114 random 1000;
#X obj 415 141 + 1500;
#X obj 308 141 + 750;
#X obj 62 300 *~ 0.35;
#X text 509 79 Randomizes on bang input. Ranges are set at (0-999)
\, (750-1749) \, and (1500-2499). Feel free to change these with the
[random] and [+] objects if you want a different range., f 28;
#X text 127 295 Set quieter so pitch comes through stronger, f 22
;
#X connect 0 0 3 0;
#X connect 0 0 4 0;
#X connect 0 0 5 0;
#X connect 1 0 9 0;
#X connect 1 0 10 0;
#X connect 1 0 11 0;
#X connect 3 0 14 0;
#X connect 4 0 14 0;
#X connect 5 0 14 0;
#X connect 6 0 5 1;
#X connect 7 0 4 1;
#X connect 8 0 3 1;
#X connect 9 0 8 0;
#X connect 10 0 13 0;
#X connect 11 0 12 0;
#X connect 12 0 6 0;
#X connect 13 0 7 0;
#X connect 14 0 2 0;
#X restore 431 147 pd unpitchedModals;
#X obj 138 120 inlet frequency;
#X obj 554 116 inlet randomize;
#X obj 75 280 outlet~ \$0-modalOut;
#X obj 75 237 +~;
#X obj 258 161 \$1;
#X obj 258 138 loadbang;
#X obj 138 147 moses 0;
#X text 349 279 Created by Dominic Frugoli - May 2023;
#X connect 0 0 1 0;
#X connect 0 0 2 0;
#X connect 1 0 6 0;
#X connect 2 0 6 1;
#X connect 3 0 9 0;
#X connect 4 0 2 1;
#X connect 6 0 5 0;
#X connect 7 0 1 1;
#X connect 8 0 7 0;
#X connect 9 1 1 1;
