#N canvas 350 84 595 711 12;
#X obj 87 315 +~ 1;
#X obj 87 355 *~ 0.5;
#X obj 68 105 delwrite~ \$0-delay 5000;
#X text 263 367 ms;
#X text 309 72 Hz;
#X text 247 395 ms;
#X text 184 567 [0 \, 1];
#X obj 58 45 inlet~ audio;
#X obj 58 655 outlet~ audio;
#X obj 58 625 +~;
#X text 58 13 Implementation of Zölzer 2011 \, ch.2 \, p.78 \, fig.
2.34;
#X obj 119 565 inlet FF;
#X obj 59 165 *~ \$1;
#X obj 87 195 osc~ \$6;
#X text 287 516 \$6: MOD (Hz);
#X obj 179 365 inlet DEPTH;
#X obj 159 395 inlet DELAY;
#X text 287 496 \$5: DEPTH (ms);
#X obj 87 395 +~ \$5;
#X obj 87 435 +~ \$4;
#X obj 238 75 inlet MOD;
#X text 287 476 \$4: DELAY (ms);
#X obj 87 595 *~ \$2;
#X text 287 436 \$2: FF (feed-forward) (0-1);
#X obj 91 135 inlet BL;
#X text 287 416 \$1: BL (0-1);
#X text 287 456 \$3: FB (feedback) (0-1);
#X obj 87 475 delread4~ \$0-delay;
#X text 206 506 [0 \, 1];
#X obj 139 505 inlet FB;
#X obj 17 535 *~ \$3;
#X obj 220 225 lop~ 5;
#X obj 220 195 noise~;
#X obj 220 255 *~;
#X msg 238 135 1;
#X msg 312 135 0;
#X text 274 225 TODO: No recommended value in source;
#X text 91 284 -1..+1;
#X text 97 374 0..1;
#X text 97 334 0..2;
#X text 97 414 0..DEPTH;
#X text 97 454 DELAY..DEPTH+DELAY;
#X obj 87 255 *~;
#X msg 278 135 0;
#X msg 352 135 1;
#X text 145 195 Modulators;
#X obj 238 105 route lpnoise;
#X obj 58 75 +~;
#X text 161 613 TODO: Add 1 block of samples to implement minimum delay
\, and perhaps use [block~] to reduce delay time below 64 samples.
;
#X connect 0 0 1 0;
#X connect 1 0 18 0;
#X connect 7 0 47 0;
#X connect 9 0 8 0;
#X connect 11 0 22 1;
#X connect 12 0 9 0;
#X connect 13 0 42 0;
#X connect 15 0 18 1;
#X connect 16 0 19 1;
#X connect 18 0 19 0;
#X connect 19 0 27 0;
#X connect 20 0 46 0;
#X connect 22 0 9 1;
#X connect 24 0 12 1;
#X connect 27 0 22 0;
#X connect 27 0 30 0;
#X connect 29 0 30 1;
#X connect 30 0 47 1;
#X connect 31 0 33 0;
#X connect 32 0 31 0;
#X connect 33 0 0 0;
#X connect 34 0 33 1;
#X connect 35 0 33 1;
#X connect 42 0 0 0;
#X connect 43 0 42 1;
#X connect 44 0 42 1;
#X connect 46 0 34 0;
#X connect 46 0 43 0;
#X connect 46 1 35 0;
#X connect 46 1 44 0;
#X connect 46 1 13 0;
#X connect 47 0 12 0;
#X connect 47 0 2 0;
