#N canvas 404 57 1272 920 12;
#X obj 208 90 osc~;
#X obj 310 90 saw~;
#X obj 208 145 *~;
#X obj 310 145 *~;
#X obj 208 177 +~;
#X obj 208 453 bob~, f 12;
#X floatatom 248 378 5 0 127 0 - - -;
#X obj 248 410 pow 2;
#X floatatom 289 378 5 0 127 0 - - -;
#X obj 289 410 / 32;
#X floatatom 208 46 5 0 10000 0 - - -;
#X msg 223 117 0, f 1;
#X msg 238 117 1, f 1;
#X msg 328 117 0, f 1;
#X msg 341 117 1, f 1;
#X text 262 44 TODO: REPLACE WITH MIDI NOTE IN;
#X text 345 378 TODO: MIDI CAN CONTROL THESE;
#N canvas 1049 103 752 718 delay 1;
#X obj 117 61 inlet~;
#X obj 122 550 outlet~ right;
#X obj 505 540 outlet~ left;
#X obj 156 460 delwrite~ pong 2000;
#X obj 242 360 s~ pingfb;
#X obj 242 330 *~ 0.5;
#X obj 34 91 r~ pingfb;
#X obj 281 300 inlet feedback;
#X obj 244 170 inlet time;
#X obj 399 202 / 2;
#X obj 505 282 delread4~ pong 400;
#X obj 118 117 delwrite~ ping 2000;
#X obj 117 285 delread4~ ping 500;
#X msg 117 227 \$1 30;
#X obj 117 252 line~;
#X msg 399 226 \$1 30;
#X obj 399 251 line~;
#X obj 471 115 delwrite~ initial 2000;
#X obj 399 390 delread4~ initial;
#X connect 0 0 11 0;
#X connect 0 0 17 0;
#X connect 5 0 4 0;
#X connect 6 0 11 0;
#X connect 7 0 5 1;
#X connect 8 0 9 0;
#X connect 8 0 13 0;
#X connect 9 0 15 0;
#X connect 10 0 2 0;
#X connect 12 0 3 0;
#X connect 12 0 5 0;
#X connect 12 0 1 0;
#X connect 13 0 14 0;
#X connect 14 0 12 0;
#X connect 15 0 16 0;
#X connect 16 0 10 0;
#X connect 16 0 18 0;
#X connect 18 0 2 0;
#X restore 347 579 pd delay;
#X f 9;
#X obj 410 555 hsl 128 15 0 0.9 0 0 empty empty Feedback(0-.9) -2 -8
0 10 -262144 -1 -1 6000 1;
#X floatatom 377 524 5 0 2000 2 Time(in_ms) - -;
#X obj 347 492 *~;
#X obj 365 449 tgl 30 0 empty empty Delay_Toggle 35 15 0 10 -228856
-258113 -1 1 1;
#X obj 208 490 s~ out;
#X obj 347 648 s~ left;
#X obj 407 618 s~ right;
#X obj 218 687 r~ out;
#X obj 181 772 *~;
#X obj 254 772 *~;
#X obj 280 687 r~ right;
#X obj 154 687 r~ left;
#X obj 304 747 hsl 128 25 0 1 0 0 empty empty Master_Volume -2 -8 0
10 -228856 -258113 -1 8500 1;
#X obj 208 826 dac~;
#X text 637 202 TODO: NEEDS A VCA;
#X obj 226 311 vline~;
#X obj 208 336 *~;
#X obj 226 264 pack f f;
#X msg 226 287 1 \$1 \, 0 \$2 \$1;
#X floatatom 226 229 5 0 0 0 - - -;
#X floatatom 279 229 5 0 0 0 - - -;
#X obj 226 211 bng 15 250 50 0 empty empty empty 17 7 0 10 -262144
-1 -1;
#X connect 0 0 2 0;
#X connect 1 0 3 0;
#X connect 2 0 4 0;
#X connect 3 0 4 1;
#X connect 4 0 34 0;
#X connect 5 0 20 0;
#X connect 5 0 22 0;
#X connect 6 0 7 0;
#X connect 7 0 5 1;
#X connect 8 0 9 0;
#X connect 9 0 5 2;
#X connect 10 0 0 0;
#X connect 10 0 1 0;
#X connect 11 0 2 1;
#X connect 12 0 2 1;
#X connect 13 0 3 1;
#X connect 14 0 3 1;
#X connect 17 0 23 0;
#X connect 17 1 24 0;
#X connect 18 0 17 2;
#X connect 19 0 17 1;
#X connect 20 0 17 0;
#X connect 21 0 20 1;
#X connect 25 0 26 0;
#X connect 25 0 27 0;
#X connect 26 0 31 0;
#X connect 27 0 31 1;
#X connect 28 0 27 0;
#X connect 29 0 26 0;
#X connect 30 0 27 1;
#X connect 30 0 26 1;
#X connect 33 0 34 1;
#X connect 34 0 5 0;
#X connect 35 0 36 0;
#X connect 36 0 33 0;
#X connect 37 0 35 0;
#X connect 38 0 35 1;
#X connect 39 0 37 0;
