#N canvas 50 25 1519 948 12;
#X obj 218 75 clip~ -1 1;
#X floatatom 219 307 5 0 0 0 - - -;
#X obj 222 283 hsl 153 20 0 2000 0 0 empty empty Delay_Time -2 -10
0 15 -228856 -258113 -1 1900 1;
#X obj 294 94 s~ dry;
#X obj 219 492 *~ \$1;
#X floatatom 251 404 5 0 0 0 - - -;
#X obj 254 377 hsl 153 20 0 1 0 0 empty empty Feedback_Level -2 -10
0 15 -228856 -260097 -1 5320 1;
#X obj 219 528 s~ wet;
#X obj 291 511 s~ feedback;
#X obj 109 193 r~ feedback;
#X obj 311 686 +~;
#X obj 263 667 *~;
#X obj 356 667 *~;
#X floatatom 217 612 5 0 0 0 - - -;
#X obj 409 630 -;
#X floatatom 409 649 5 0 0 0 - - -;
#X obj 358 613 bng 17 250 50 0 empty empty empty 17 7 0 10 -262144
-1 -1;
#X obj 220 593 hsl 153 20 0 2 0 0 empty empty Blend -2 -10 0 15 -228856
-257985 -1 7600 1;
#X floatatom 217 649 5 0 0 0 - - -;
#X obj 311 777 clip~ -1 1;
#X obj 311 796 dac~;
#X obj 311 750 *~;
#X obj 376 712 hsl 153 20 0 2 0 0 empty empty Master -2 -10 0 15 -228856
-4034 -1 7600 1;
#X floatatom 373 732 5 0 0 0 - - -;
#X obj 218 50 r~ audioIn;
#X obj 930 442 s~ audioIn;
#X obj 409 611 float 2;
#X obj 367 105 int;
#X obj 367 42 bng 43 250 50 0 empty empty ToggleOn -2 -7 0 10 -228856
-4032 -1;
#X obj 392 105 +;
#X floatatom 367 127 3 0 0 0 - - -;
#X msg 410 85 1, f 1;
#X obj 367 148 % 2;
#X floatatom 367 170 5 0 0 0 - - -;
#X obj 218 188 *~;
#X obj 429 85 tgl 50 0 empty empty empty 17 7 0 10 -228856 -4032 -1
1 1;
#X obj 356 636 r~ dry;
#X obj 263 636 r~ wet;
#X text 489 601 This is the blend control. It allows you to choose
how much dry and wet signal you want. It is a teeter-totter slider
so as one increases \, the other decreases. This is done with the [float]
box and [-] box on the right. All left is completely dry \, all right
is completely wet. After that \, it just goes to a basic master out.
;
#X obj 930 271 adc~;
#X obj 930 335 *~;
#X obj 1000 297 hsl 128 15 0 1 0 0 empty empty empty -2 -8 0 10 -262144
-1 -1 12700 1;
#X floatatom 997 317 5 0 0 0 - - -;
#X obj 409 555 bng 15 250 50 0 empty empty empty 17 7 0 10 -262144
-1 -1;
#X text 1049 317 This is an audio-in that can be used if using an interface.
;
#X obj 148 23 loadbang;
#X obj 208 4 loadbang;
#X obj 208 23 delay 1000;
#X obj 32 245 loadbang;
#X msg 32 264 250;
#X obj 26 320 loadbang;
#X msg 26 358 0.35;
#X msg 30 574 1;
#X obj 30 536 loadbang;
#X obj 30 555 delay 1000;
#X obj 33 674 loadbang;
#X msg 33 693 1;
#X text 519 55 This is the audio input section. You have the receive
audioIn box with a clip box for safety. This goes straight to the dry
so there is always a dry signal going through. To the right is just
a delay on/off toggle switch using an incremental counter. It then
goes to the delay write box which send the signal to the delay (named
mainLine here) with a max time of 2000 ms. There is also the feedback
\, but we'll go over that in a bit.;
#X obj 218 212 delwrite~ mainLine 2000;
#X obj 219 329 delread~ mainLine 200;
#X text 1620 1515 comment;
#X obj 1620 1537;
#X obj 26 339 delay 100;
#X obj 997 241 loadbang;
#X msg 997 264 1;
#X obj 282 4 loadbang;
#X obj 282 23 delay 1000;
#X text 430 328 This is where the signal is processed through the delay.
The delay read box gets the signal from the delay write box and delays
it at whatever time you set using the slider (though it defaults to
200ms). That then goes to the feedback section which determines how
much quieter you want the delays to incrementally decrease \, based
on the slider. That is then sent to the feedback send box which goes
back to delay write to be delayed again. This goes on and on until
the delay is no longer audible. The delay then goes to the send wet
box which goes to the blend control and mixer.;
#X msg 1122 112 \; pd dsp 1;
#X obj 1122 85 loadbang;
#X connect 0 0 3 0;
#X connect 0 0 34 0;
#X connect 1 0 59 0;
#X connect 2 0 1 0;
#X connect 4 0 7 0;
#X connect 4 0 8 0;
#X connect 5 0 4 1;
#X connect 6 0 5 0;
#X connect 9 0 58 0;
#X connect 10 0 21 0;
#X connect 11 0 10 0;
#X connect 12 0 10 1;
#X connect 13 0 18 0;
#X connect 13 0 14 1;
#X connect 14 0 15 0;
#X connect 15 0 12 1;
#X connect 16 0 14 0;
#X connect 17 0 13 0;
#X connect 17 0 16 0;
#X connect 18 0 11 1;
#X connect 19 0 20 1;
#X connect 19 0 20 0;
#X connect 21 0 19 0;
#X connect 22 0 23 0;
#X connect 23 0 21 1;
#X connect 24 0 0 0;
#X connect 26 0 14 0;
#X connect 27 0 29 0;
#X connect 27 0 30 0;
#X connect 28 0 27 0;
#X connect 28 0 31 0;
#X connect 28 0 35 0;
#X connect 29 0 27 1;
#X connect 30 0 32 0;
#X connect 31 0 29 1;
#X connect 32 0 33 0;
#X connect 33 0 34 1;
#X connect 34 0 58 0;
#X connect 36 0 12 0;
#X connect 37 0 11 0;
#X connect 39 0 40 0;
#X connect 39 1 40 0;
#X connect 40 0 25 0;
#X connect 41 0 42 0;
#X connect 42 0 40 1;
#X connect 43 0 26 0;
#X connect 45 0 28 0;
#X connect 46 0 47 0;
#X connect 47 0 28 0;
#X connect 48 0 49 0;
#X connect 49 0 2 0;
#X connect 50 0 62 0;
#X connect 51 0 6 0;
#X connect 52 0 17 0;
#X connect 53 0 54 0;
#X connect 53 0 43 0;
#X connect 54 0 52 0;
#X connect 55 0 56 0;
#X connect 56 0 22 0;
#X connect 59 0 4 0;
#X connect 62 0 51 0;
#X connect 63 0 64 0;
#X connect 64 0 41 0;
#X connect 65 0 66 0;
#X connect 66 0 28 0;
#X connect 69 0 68 0;
