#N canvas 584 25 969 947 12;
#X obj 381 83 saturation~;
#X obj 379 167 chorus~;
#X obj 379 361 basictape~;
#X obj 379 630 feniverb~;
#X obj 572 906 outlet~ DeckOutR;
#X obj 379 906 outlet~ DeckOutL;
#X obj 312 14 inlet~ DeckIn;
#X obj 312 64 spdt~;
#X obj 312 148 spdt~;
#X obj 312 342 spdt~;
#X obj 312 611 spdt~;
#X obj 344 39 tgl 15 0 empty empty empty 17 7 0 10 -262144 -1 -1 1
1;
#X obj 344 115 tgl 15 0 empty empty empty 17 7 0 10 -262144 -1 -1 0
1;
#X obj 344 313 tgl 15 0 empty empty empty 17 7 0 10 -262144 -1 -1 0
1;
#X obj 344 582 tgl 15 0 empty empty empty 17 7 0 10 -262144 -1 -1 0
1;
#X obj 239 630 s~ AltOut;
#X obj 405 863 r~ AltOut;
#X obj 609 863 r~ AltOut;
#X obj 501 899 dac~;
#X obj 229 29 fileplay~;
#X obj 289 7 bng 15 250 50 0 empty empty empty 17 7 0 10 -262144 -1
-1;
#X obj 229 7 tgl 15 0 empty empty empty 17 7 0 10 -262144 -1 -1 0 1
;
#X connect 0 0 8 0;
#X connect 1 0 9 0;
#X connect 2 0 10 0;
#X connect 3 0 5 0;
#X connect 3 0 18 0;
#X connect 3 1 4 0;
#X connect 3 1 18 1;
#X connect 6 0 7 0;
#X connect 7 0 8 0;
#X connect 7 1 0 0;
#X connect 8 0 9 0;
#X connect 8 1 1 0;
#X connect 9 0 10 0;
#X connect 9 1 2 0;
#X connect 10 0 15 0;
#X connect 10 1 3 0;
#X connect 10 1 3 1;
#X connect 11 0 7 1;
#X connect 12 0 8 1;
#X connect 13 0 9 1;
#X connect 14 0 10 1;
#X connect 16 0 5 0;
#X connect 16 0 18 0;
#X connect 17 0 4 0;
#X connect 17 0 18 1;
#X connect 19 0 7 0;
#X connect 19 1 7 0;
#X connect 20 0 19 2;
#X connect 21 0 19 0;
