#N canvas 411 25 1006 949 12;
#X floatatom 116 136 5 0 0 0 - - -;
#X floatatom 139 157 5 0 0 0 - - -;
#X floatatom 162 178 5 0 0 0 - - -;
#X obj 116 236 *~;
#X obj 184 221 hsl 128 15 0 1 0 0 empty empty master -2 -8 0 12 -262144
-1 -1 0 1;
#X obj 104 277 dac~;
#X obj 121 547 *~;
#X obj 172 532 hsl 128 15 0 1 0 0 empty empty empty -2 -8 0 10 -262144
-1 -1 0 1;
#X floatatom 141 423 5 0 1 0 - - -;
#X floatatom 121 403 5 0 2200 0 - - -;
#X floatatom 161 443 5 0 0 0 - - -;
#X obj 109 594 dac~;
#X text 398 17 SUBPATCHES MASTER LIST;
#X text 264 35 ------------------------------------------------------------
;
#X text 30 338 ------------------------------------------------------------
;
#X text 450 338 ------------------------------------------------------------
;
#X text 112 370 Super Saw Oscillator;
#X text 98 90 Basic Saw Oscillator w/ Filter;
#X floatatom 181 463 5 0 1 0 - - -;
#X floatatom 202 483 5 0 0 0 - - -;
#X text 34 636 ------------------------------------------------------------
;
#X text 454 636 ------------------------------------------------------------
;
#X text 802 3724 youre are a goods reader;
#X floatatom 131 738 5 0 0 0 - - -;
#X floatatom 151 758 5 0 0 0 - - -;
#X floatatom 171 778 5 0 0 0 - - -;
#X floatatom 191 798 5 0 0 0 - - -;
#X obj 131 877 *~;
#X obj 182 862 hsl 128 15 0 1 0 0 empty empty empty -2 -8 0 10 -262144
-1 -1 0 1;
#X obj 119 924 dac~;
#X text 113 705 Chord Object;
#X text 44 1017 ------------------------------------------------------------
;
#X text 464 1018 ------------------------------------------------------------
;
#X floatatom 78 1109 5 0 0 0 - - -;
#X symbolatom 78 1190 10 0 0 0 - - -;
#X text 96 1047 Note Namer;
#N canvas 385 25 1529 950 notename 0;
#X obj 664 115 ftom;
#X floatatom 664 141 5 0 0 0 - - -;
#X obj 664 166 int;
#X floatatom 664 192 5 0 127 0 - - -;
#X obj 664 20 inlet;
#X floatatom 664 91 5 0 13289 0 - - -;
#X floatatom 664 44 5 0 15000 0 - - -;
#X obj 664 68 clip 8 13289;
#X obj 204 337 sel 12;
#X obj 296 337 sel 13;
#X obj 388 337 sel 14;
#X obj 480 337 sel 15;
#X obj 572 337 sel 16;
#X obj 664 337 sel 17;
#X obj 756 337 sel 18;
#X obj 848 337 sel 19;
#X obj 940 337 sel 20;
#X obj 1032 337 sel 21;
#X obj 1124 337 sel 22;
#X obj 1216 337 sel 23;
#X obj 310 356 bng 15 50 50 0 empty empty empty 17 7 0 10 -204786 -258113
-1;
#X obj 722 149 loadbang;
#X obj 808 158 bng 15 250 50 0 empty empty empty 17 7 0 10 -262144
-1 -1;
#X obj 722 173 metro 50;
#X obj 218 356 bng 15 50 50 0 empty empty empty 17 7 0 10 -204786 -258113
-1;
#X obj 494 356 bng 15 50 50 0 empty empty empty 17 7 0 10 -204786 -258113
-1;
#X obj 402 356 bng 15 50 50 0 empty empty empty 17 7 0 10 -204786 -258113
-1;
#X obj 678 356 bng 15 50 50 0 empty empty empty 17 7 0 10 -204786 -258113
-1;
#X obj 586 356 bng 15 50 50 0 empty empty empty 17 7 0 10 -204786 -258113
-1;
#X obj 862 356 bng 15 50 50 0 empty empty empty 17 7 0 10 -204786 -258113
-1;
#X obj 769 356 bng 15 50 50 0 empty empty empty 17 7 0 10 -204786 -258113
-1;
#X obj 1046 356 bng 15 50 50 0 empty empty empty 17 7 0 10 -204786
-258113 -1;
#X obj 954 356 bng 15 50 50 0 empty empty empty 17 7 0 10 -204786 -258113
-1;
#X obj 1230 356 bng 15 50 50 0 empty empty empty 17 7 0 10 -204786
-258113 -1;
#X obj 1138 356 bng 15 50 50 0 empty empty empty 17 7 0 10 -204786
-258113 -1;
#X obj 310 283 bng 15 50 50 0 empty empty empty 17 7 0 10 -204786 -258113
-1;
#X obj 218 283 bng 15 50 50 0 empty empty empty 17 7 0 10 -204786 -258113
-1;
#X obj 494 283 bng 15 50 50 0 empty empty empty 17 7 0 10 -204786 -258113
-1;
#X obj 402 283 bng 15 50 50 0 empty empty empty 17 7 0 10 -204786 -258113
-1;
#X obj 678 283 bng 15 50 50 0 empty empty empty 17 7 0 10 -204786 -258113
-1;
#X obj 586 283 bng 15 50 50 0 empty empty empty 17 7 0 10 -204786 -258113
-1;
#X obj 862 283 bng 15 50 50 0 empty empty empty 17 7 0 10 -204786 -258113
-1;
#X obj 769 283 bng 15 50 50 0 empty empty empty 17 7 0 10 -204786 -258113
-1;
#X obj 1046 283 bng 15 50 50 0 empty empty empty 17 7 0 10 -204786
-258113 -1;
#X obj 954 283 bng 15 50 50 0 empty empty empty 17 7 0 10 -204786 -258113
-1;
#X obj 1230 283 bng 15 50 50 0 empty empty empty 17 7 0 10 -204786
-258113 -1;
#X obj 1138 283 bng 15 50 50 0 empty empty empty 17 7 0 10 -204786
-258113 -1;
#X obj 204 264 sel 0;
#X obj 296 264 sel 1;
#X obj 388 264 sel 2;
#X obj 480 264 sel 3;
#X obj 572 264 sel 4;
#X obj 664 264 sel 5;
#X obj 756 264 sel 6;
#X obj 848 264 sel 7;
#X obj 940 264 sel 8;
#X obj 1032 264 sel 9;
#X obj 1124 264 sel 10;
#X obj 1216 264 sel 11;
#X obj 310 502 bng 15 50 50 0 empty empty empty 17 7 0 10 -204786 -258113
-1;
#X obj 218 502 bng 15 50 50 0 empty empty empty 17 7 0 10 -204786 -258113
-1;
#X obj 494 502 bng 15 50 50 0 empty empty empty 17 7 0 10 -204786 -258113
-1;
#X obj 402 502 bng 15 50 50 0 empty empty empty 17 7 0 10 -204786 -258113
-1;
#X obj 678 502 bng 15 50 50 0 empty empty empty 17 7 0 10 -204786 -258113
-1;
#X obj 586 502 bng 15 50 50 0 empty empty empty 17 7 0 10 -204786 -258113
-1;
#X obj 862 502 bng 15 50 50 0 empty empty empty 17 7 0 10 -204786 -258113
-1;
#X obj 769 502 bng 15 50 50 0 empty empty empty 17 7 0 10 -204786 -258113
-1;
#X obj 1046 502 bng 15 50 50 0 empty empty empty 17 7 0 10 -204786
-258113 -1;
#X obj 954 502 bng 15 50 50 0 empty empty empty 17 7 0 10 -204786 -258113
-1;
#X obj 1230 502 bng 15 50 50 0 empty empty empty 17 7 0 10 -204786
-258113 -1;
#X obj 1138 502 bng 15 50 50 0 empty empty empty 17 7 0 10 -204786
-258113 -1;
#X obj 310 429 bng 15 50 50 0 empty empty empty 17 7 0 10 -204786 -258113
-1;
#X obj 218 429 bng 15 50 50 0 empty empty empty 17 7 0 10 -204786 -258113
-1;
#X obj 494 429 bng 15 50 50 0 empty empty empty 17 7 0 10 -204786 -258113
-1;
#X obj 402 429 bng 15 50 50 0 empty empty empty 17 7 0 10 -204786 -258113
-1;
#X obj 678 429 bng 15 50 50 0 empty empty empty 17 7 0 10 -204786 -258113
-1;
#X obj 586 429 bng 15 50 50 0 empty empty empty 17 7 0 10 -204786 -258113
-1;
#X obj 862 429 bng 15 50 50 0 empty empty empty 17 7 0 10 -204786 -258113
-1;
#X obj 769 429 bng 15 50 50 0 empty empty empty 17 7 0 10 -204786 -258113
-1;
#X obj 1046 429 bng 15 50 50 0 empty empty empty 17 7 0 10 -204786
-258113 -1;
#X obj 954 429 bng 15 50 50 0 empty empty empty 17 7 0 10 -204786 -258113
-1;
#X obj 1230 429 bng 15 50 50 0 empty empty empty 17 7 0 10 -204786
-258113 -1;
#X obj 1138 429 bng 15 50 50 0 empty empty empty 17 7 0 10 -204786
-258113 -1;
#X obj 204 410 sel 24;
#X obj 296 410 sel 25;
#X obj 388 410 sel 26;
#X obj 480 410 sel 27;
#X obj 572 410 sel 28;
#X obj 664 410 sel 29;
#X obj 756 410 sel 30;
#X obj 848 410 sel 31;
#X obj 940 410 sel 32;
#X obj 1032 410 sel 33;
#X obj 1124 410 sel 34;
#X obj 1216 410 sel 35;
#X obj 204 483 sel 36;
#X obj 296 483 sel 37;
#X obj 388 483 sel 38;
#X obj 480 483 sel 39;
#X obj 572 483 sel 40;
#X obj 664 483 sel 41;
#X obj 756 483 sel 42;
#X obj 848 483 sel 43;
#X obj 940 483 sel 44;
#X obj 1032 483 sel 45;
#X obj 1124 483 sel 46;
#X obj 1216 483 sel 47;
#X obj 310 648 bng 15 50 50 0 empty empty empty 17 7 0 10 -204786 -258113
-1;
#X obj 218 648 bng 15 50 50 0 empty empty empty 17 7 0 10 -204786 -258113
-1;
#X obj 494 648 bng 15 50 50 0 empty empty empty 17 7 0 10 -204786 -258113
-1;
#X obj 402 648 bng 15 50 50 0 empty empty empty 17 7 0 10 -204786 -258113
-1;
#X obj 678 648 bng 15 50 50 0 empty empty empty 17 7 0 10 -204786 -258113
-1;
#X obj 586 648 bng 15 50 50 0 empty empty empty 17 7 0 10 -204786 -258113
-1;
#X obj 862 648 bng 15 50 50 0 empty empty empty 17 7 0 10 -204786 -258113
-1;
#X obj 769 648 bng 15 50 50 0 empty empty empty 17 7 0 10 -204786 -258113
-1;
#X obj 1046 648 bng 15 50 50 0 empty empty empty 17 7 0 10 -204786
-258113 -1;
#X obj 954 648 bng 15 50 50 0 empty empty empty 17 7 0 10 -204786 -258113
-1;
#X obj 1230 648 bng 15 50 50 0 empty empty empty 17 7 0 10 -204786
-258113 -1;
#X obj 1138 648 bng 15 50 50 0 empty empty empty 17 7 0 10 -204786
-258113 -1;
#X obj 310 575 bng 15 50 50 0 empty empty empty 17 7 0 10 -204786 -258113
-1;
#X obj 218 575 bng 15 50 50 0 empty empty empty 17 7 0 10 -204786 -258113
-1;
#X obj 494 575 bng 15 50 50 0 empty empty empty 17 7 0 10 -204786 -258113
-1;
#X obj 402 575 bng 15 50 50 0 empty empty empty 17 7 0 10 -204786 -258113
-1;
#X obj 678 575 bng 15 50 50 0 empty empty empty 17 7 0 10 -204786 -258113
-1;
#X obj 586 575 bng 15 50 50 0 empty empty empty 17 7 0 10 -204786 -258113
-1;
#X obj 862 575 bng 15 50 50 0 empty empty empty 17 7 0 10 -204786 -258113
-1;
#X obj 769 575 bng 15 50 50 0 empty empty empty 17 7 0 10 -204786 -258113
-1;
#X obj 1046 575 bng 15 50 50 0 empty empty empty 17 7 0 10 -204786
-258113 -1;
#X obj 954 575 bng 15 50 50 0 empty empty empty 17 7 0 10 -204786 -258113
-1;
#X obj 1230 575 bng 15 50 50 0 empty empty empty 17 7 0 10 -204786
-258113 -1;
#X obj 1138 575 bng 15 50 50 0 empty empty empty 17 7 0 10 -204786
-258113 -1;
#X obj 310 794 bng 15 50 50 0 empty empty empty 17 7 0 10 -204786 -258113
-1;
#X obj 218 794 bng 15 50 50 0 empty empty empty 17 7 0 10 -204786 -258113
-1;
#X obj 494 794 bng 15 50 50 0 empty empty empty 17 7 0 10 -204786 -258113
-1;
#X obj 402 794 bng 15 50 50 0 empty empty empty 17 7 0 10 -204786 -258113
-1;
#X obj 678 794 bng 15 50 50 0 empty empty empty 17 7 0 10 -204786 -258113
-1;
#X obj 586 794 bng 15 50 50 0 empty empty empty 17 7 0 10 -204786 -258113
-1;
#X obj 862 794 bng 15 50 50 0 empty empty empty 17 7 0 10 -204786 -258113
-1;
#X obj 769 794 bng 15 50 50 0 empty empty empty 17 7 0 10 -204786 -258113
-1;
#X obj 1046 794 bng 15 50 50 0 empty empty empty 17 7 0 10 -204786
-258113 -1;
#X obj 954 794 bng 15 50 50 0 empty empty empty 17 7 0 10 -204786 -258113
-1;
#X obj 1230 794 bng 15 50 50 0 empty empty empty 17 7 0 10 -204786
-258113 -1;
#X obj 1138 794 bng 15 50 50 0 empty empty empty 17 7 0 10 -204786
-258113 -1;
#X obj 310 721 bng 15 50 50 0 empty empty empty 17 7 0 10 -204786 -258113
-1;
#X obj 218 721 bng 15 50 50 0 empty empty empty 17 7 0 10 -204786 -258113
-1;
#X obj 494 721 bng 15 50 50 0 empty empty empty 17 7 0 10 -204786 -258113
-1;
#X obj 402 721 bng 15 50 50 0 empty empty empty 17 7 0 10 -204786 -258113
-1;
#X obj 678 721 bng 15 50 50 0 empty empty empty 17 7 0 10 -204786 -258113
-1;
#X obj 586 721 bng 15 50 50 0 empty empty empty 17 7 0 10 -204786 -258113
-1;
#X obj 862 721 bng 15 50 50 0 empty empty empty 17 7 0 10 -204786 -258113
-1;
#X obj 769 721 bng 15 50 50 0 empty empty empty 17 7 0 10 -204786 -258113
-1;
#X obj 1046 721 bng 15 50 50 0 empty empty empty 17 7 0 10 -204786
-258113 -1;
#X obj 954 721 bng 15 50 50 0 empty empty empty 17 7 0 10 -204786 -258113
-1;
#X obj 1230 721 bng 15 50 50 0 empty empty empty 17 7 0 10 -204786
-258113 -1;
#X obj 1138 721 bng 15 50 50 0 empty empty empty 17 7 0 10 -204786
-258113 -1;
#X obj 204 556 sel 48;
#X obj 296 556 sel 49;
#X obj 388 556 sel 50;
#X obj 480 556 sel 51;
#X obj 572 556 sel 52;
#X obj 664 556 sel 53;
#X obj 756 556 sel 54;
#X obj 848 556 sel 55;
#X obj 940 556 sel 56;
#X obj 1032 556 sel 57;
#X obj 1124 556 sel 58;
#X obj 1216 556 sel 59;
#X obj 204 629 sel 60;
#X obj 296 629 sel 61;
#X obj 388 629 sel 62;
#X obj 480 629 sel 63;
#X obj 572 629 sel 64;
#X obj 664 629 sel 65;
#X obj 756 629 sel 66;
#X obj 848 629 sel 67;
#X obj 940 629 sel 68;
#X obj 1032 629 sel 69;
#X obj 1124 629 sel 70;
#X obj 1216 629 sel 71;
#X obj 204 702 sel 72;
#X obj 296 702 sel 73;
#X obj 388 702 sel 74;
#X obj 480 702 sel 75;
#X obj 572 702 sel 76;
#X obj 664 702 sel 77;
#X obj 756 702 sel 78;
#X obj 848 702 sel 79;
#X obj 940 702 sel 80;
#X obj 1032 702 sel 81;
#X obj 1124 702 sel 82;
#X obj 1216 702 sel 83;
#X obj 204 775 sel 84;
#X obj 296 775 sel 85;
#X obj 388 775 sel 86;
#X obj 480 775 sel 87;
#X obj 572 775 sel 88;
#X obj 664 775 sel 89;
#X obj 756 775 sel 90;
#X obj 848 775 sel 91;
#X obj 940 775 sel 92;
#X obj 1032 775 sel 93;
#X obj 1124 775 sel 94;
#X obj 1216 775 sel 95;
#X obj 310 940 bng 15 50 50 0 empty empty empty 17 7 0 10 -204786 -258113
-1;
#X obj 218 940 bng 15 50 50 0 empty empty empty 17 7 0 10 -204786 -258113
-1;
#X obj 494 940 bng 15 50 50 0 empty empty empty 17 7 0 10 -204786 -258113
-1;
#X obj 402 940 bng 15 50 50 0 empty empty empty 17 7 0 10 -204786 -258113
-1;
#X obj 678 940 bng 15 50 50 0 empty empty empty 17 7 0 10 -204786 -258113
-1;
#X obj 586 940 bng 15 50 50 0 empty empty empty 17 7 0 10 -204786 -258113
-1;
#X obj 862 940 bng 15 50 50 0 empty empty empty 17 7 0 10 -204786 -258113
-1;
#X obj 769 940 bng 15 50 50 0 empty empty empty 17 7 0 10 -204786 -258113
-1;
#X obj 1046 940 bng 15 50 50 0 empty empty empty 17 7 0 10 -204786
-258113 -1;
#X obj 954 940 bng 15 50 50 0 empty empty empty 17 7 0 10 -204786 -258113
-1;
#X obj 1230 940 bng 15 50 50 0 empty empty empty 17 7 0 10 -204786
-258113 -1;
#X obj 1138 940 bng 15 50 50 0 empty empty empty 17 7 0 10 -204786
-258113 -1;
#X obj 310 867 bng 15 50 50 0 empty empty empty 17 7 0 10 -204786 -258113
-1;
#X obj 218 867 bng 15 50 50 0 empty empty empty 17 7 0 10 -204786 -258113
-1;
#X obj 494 867 bng 15 50 50 0 empty empty empty 17 7 0 10 -204786 -258113
-1;
#X obj 402 867 bng 15 50 50 0 empty empty empty 17 7 0 10 -204786 -258113
-1;
#X obj 678 867 bng 15 50 50 0 empty empty empty 17 7 0 10 -204786 -258113
-1;
#X obj 586 867 bng 15 50 50 0 empty empty empty 17 7 0 10 -204786 -258113
-1;
#X obj 862 867 bng 15 50 50 0 empty empty empty 17 7 0 10 -204786 -258113
-1;
#X obj 769 867 bng 15 50 50 0 empty empty empty 17 7 0 10 -204786 -258113
-1;
#X obj 1046 867 bng 15 50 50 0 empty empty empty 17 7 0 10 -204786
-258113 -1;
#X obj 954 867 bng 15 50 50 0 empty empty empty 17 7 0 10 -204786 -258113
-1;
#X obj 1230 867 bng 15 50 50 0 empty empty empty 17 7 0 10 -204786
-258113 -1;
#X obj 1138 867 bng 15 50 50 0 empty empty empty 17 7 0 10 -204786
-258113 -1;
#X obj 310 1013 bng 15 50 50 0 empty empty empty 17 7 0 10 -204786
-258113 -1;
#X obj 220 1013 bng 15 50 50 0 empty empty empty 17 7 0 10 -204786
-258113 -1;
#X obj 494 1013 bng 15 50 50 0 empty empty empty 17 7 0 10 -204786
-258113 -1;
#X obj 402 1013 bng 15 50 50 0 empty empty empty 17 7 0 10 -204786
-258113 -1;
#X obj 678 1013 bng 15 50 50 0 empty empty empty 17 7 0 10 -204786
-258113 -1;
#X obj 586 1013 bng 15 50 50 0 empty empty empty 17 7 0 10 -204786
-258113 -1;
#X obj 862 1013 bng 15 50 50 0 empty empty empty 17 7 0 10 -204786
-258113 -1;
#X obj 769 1013 bng 15 50 50 0 empty empty empty 17 7 0 10 -204786
-258113 -1;
#X text 1471 2054 comment;
#X obj 204 848 sel 96;
#X obj 296 848 sel 97;
#X obj 388 848 sel 98;
#X obj 480 848 sel 99;
#X obj 572 848 sel 100;
#X obj 664 848 sel 101;
#X obj 756 848 sel 102;
#X obj 848 848 sel 103;
#X obj 940 848 sel 104;
#X obj 1032 848 sel 105;
#X obj 1124 848 sel 106;
#X obj 1216 848 sel 107;
#X obj 204 921 sel 108;
#X obj 296 921 sel 109;
#X obj 388 921 sel 110;
#X obj 480 921 sel 111;
#X obj 572 921 sel 112;
#X obj 664 921 sel 113;
#X obj 756 921 sel 114;
#X obj 848 921 sel 115;
#X obj 940 921 sel 116;
#X obj 1032 921 sel 117;
#X obj 1124 921 sel 118;
#X obj 1216 921 sel 119;
#X obj 204 994 sel 120;
#X obj 296 994 sel 121;
#X obj 388 994 sel 122;
#X obj 480 994 sel 123;
#X obj 572 994 sel 124;
#X obj 664 994 sel 125;
#X obj 756 994 sel 126;
#X obj 848 994 sel 127;
#X msg 204 298 set C[-1];
#X msg 204 371 set C[0];
#X msg 204 444 set C[1];
#X msg 204 517 set C[2];
#X msg 204 590 set C[3];
#X msg 204 663 set C[4];
#X msg 204 736 set C[5];
#X msg 204 809 set C[6];
#X msg 204 882 set C[7];
#X msg 204 955 set C[8];
#X msg 204 1028 set C[9];
#X msg 388 298 set D[-1];
#X msg 296 298 set C#[-1];
#X msg 480 298 set D#[-1];
#X msg 572 298 set E[-1];
#X msg 664 298 set F[-1];
#X msg 756 298 set F#[-1];
#X msg 848 298 set G[-1];
#X msg 940 298 set G#[-1];
#X msg 1032 298 set A[-1];
#X msg 1124 298 set A#[-1];
#X msg 1216 298 set B[-1];
#X msg 296 371 set C#[0];
#X msg 388 371 set D[0];
#X msg 480 371 set D#[0];
#X msg 572 371 set E[0];
#X msg 664 371 set F[0];
#X msg 756 371 set F#[0];
#X msg 848 371 set G[0];
#X msg 940 371 set G#[0];
#X msg 1032 371 set A[0];
#X msg 1124 371 set A#[0];
#X msg 1216 371 set B[0];
#X msg 296 443 set C#[1];
#X msg 388 444 set D[1];
#X msg 480 444 set D#[1];
#X msg 572 444 set E[1];
#X msg 664 444 set F[1];
#X msg 756 444 set F#[1];
#X msg 848 444 set G[1];
#X msg 940 444 set G#[1];
#X msg 1032 444 set A[1];
#X msg 1124 444 set A#[1];
#X msg 1216 444 set B[1];
#X msg 296 517 set C#[2];
#X msg 388 517 set D[2];
#X msg 480 517 set D#[2];
#X msg 572 517 set E[2];
#X msg 664 517 set F[2];
#X msg 756 517 set F#[2];
#X msg 848 517 set G[2];
#X msg 940 517 set G#[2];
#X msg 1032 517 set A[2];
#X msg 1124 517 set A#[2];
#X msg 1216 517 set B[2];
#X msg 296 1028 set C#[9];
#X msg 388 1028 set D[9];
#X msg 480 1028 set D#[9];
#X msg 572 1028 set E[9];
#X msg 664 1028 set F[9];
#X msg 756 1028 set F#[9];
#X msg 848 1028 set G[9];
#X msg 296 590 set C#[3];
#X msg 388 590 set D[3];
#X msg 480 590 set D#[3];
#X msg 572 590 set E[3];
#X msg 664 590 set F[3];
#X msg 756 590 set F#[3];
#X msg 848 590 set G[3];
#X msg 940 590 set G#[3];
#X msg 1032 590 set A[3];
#X msg 1124 590 set A#[3];
#X msg 1216 590 set B[3];
#X msg 296 663 set C#[4];
#X msg 388 663 set D[4];
#X msg 480 663 set D#[4];
#X msg 572 663 set E[4];
#X msg 664 663 set F[4];
#X msg 756 663 set F#[4];
#X msg 848 663 set G[4];
#X msg 940 663 set G#[4];
#X msg 1124 663 set A#[4];
#X msg 1216 663 set B[4];
#X msg 1032 663 set A[4];
#X msg 296 736 set C#[5];
#X msg 388 736 set D[5];
#X msg 480 736 set D#[5];
#X msg 572 736 set E[5];
#X msg 664 736 set F[5];
#X msg 756 736 set F#[5];
#X msg 848 736 set G[5];
#X msg 940 736 set G#[5];
#X msg 1032 736 set A[5];
#X msg 1124 736 set A#[5];
#X msg 1216 736 set B[5];
#X msg 296 809 set C#[6];
#X msg 388 809 set D[6];
#X msg 480 809 set D#[6];
#X msg 572 809 set E[6];
#X msg 664 809 set F[6];
#X msg 756 809 set F#[6];
#X msg 848 809 set G[6];
#X msg 940 809 set G#[6];
#X msg 1032 809 set A[6];
#X msg 1124 809 set A#[6];
#X msg 1216 809 set B[6];
#X msg 296 882 set C#[7];
#X msg 388 882 set D[7];
#X msg 480 882 set D#[7];
#X msg 572 882 set E[7];
#X msg 664 882 set F[7];
#X msg 756 882 set F#[7];
#X msg 848 882 set G[7];
#X msg 940 882 set G#[7];
#X msg 1032 882 set A[7];
#X msg 1124 882 set A#[7];
#X msg 1216 882 set B[7];
#X msg 296 955 set C#[8];
#X msg 388 955 set D[8];
#X msg 480 955 set D#[8];
#X msg 572 955 set E[8];
#X msg 664 955 set F[8];
#X msg 756 955 set F#[8];
#X msg 848 955 set G[8];
#X msg 940 955 set G#[8];
#X msg 1032 955 set A[8];
#X msg 1124 955 set A#[8];
#X msg 1216 955 set B[8];
#X symbolatom 664 1110 10 0 0 0 - - -;
#X obj 664 1166 outlet;
#X obj 874 118 inlet;
#X floatatom 874 137 5 0 0 0 - - -;
#X obj 874 155 clip 0 127;
#X floatatom 874 174 5 0 0 0 - - -;
#X text 996 127 Midi Inlet;
#X text 534 51 Frequency Inlet;
#X obj 824 1067 loadbang;
#X obj 824 1091 metro 50;
#X obj 917 1076 bng 15 250 50 0 empty empty empty 17 7 0 10 -262144
-1 -1;
#X connect 0 0 1 0;
#X connect 1 0 2 0;
#X connect 2 0 3 0;
#X connect 3 0 52 0;
#X connect 3 0 267 0;
#X connect 3 0 266 0;
#X connect 3 0 265 0;
#X connect 3 0 264 0;
#X connect 3 0 263 0;
#X connect 3 0 262 0;
#X connect 3 0 261 0;
#X connect 3 0 260 0;
#X connect 3 0 259 0;
#X connect 3 0 258 0;
#X connect 3 0 257 0;
#X connect 3 0 256 0;
#X connect 3 0 255 0;
#X connect 3 0 254 0;
#X connect 3 0 253 0;
#X connect 3 0 252 0;
#X connect 3 0 251 0;
#X connect 3 0 250 0;
#X connect 3 0 249 0;
#X connect 3 0 248 0;
#X connect 3 0 247 0;
#X connect 3 0 246 0;
#X connect 3 0 245 0;
#X connect 3 0 244 0;
#X connect 3 0 243 0;
#X connect 3 0 242 0;
#X connect 3 0 241 0;
#X connect 3 0 240 0;
#X connect 3 0 239 0;
#X connect 3 0 238 0;
#X connect 3 0 237 0;
#X connect 3 0 236 0;
#X connect 3 0 202 0;
#X connect 3 0 201 0;
#X connect 3 0 200 0;
#X connect 3 0 199 0;
#X connect 3 0 198 0;
#X connect 3 0 197 0;
#X connect 3 0 196 0;
#X connect 3 0 195 0;
#X connect 3 0 194 0;
#X connect 3 0 193 0;
#X connect 3 0 192 0;
#X connect 3 0 191 0;
#X connect 3 0 190 0;
#X connect 3 0 189 0;
#X connect 3 0 188 0;
#X connect 3 0 187 0;
#X connect 3 0 186 0;
#X connect 3 0 185 0;
#X connect 3 0 184 0;
#X connect 3 0 183 0;
#X connect 3 0 182 0;
#X connect 3 0 181 0;
#X connect 3 0 180 0;
#X connect 3 0 179 0;
#X connect 3 0 178 0;
#X connect 3 0 177 0;
#X connect 3 0 176 0;
#X connect 3 0 175 0;
#X connect 3 0 174 0;
#X connect 3 0 173 0;
#X connect 3 0 172 0;
#X connect 3 0 171 0;
#X connect 3 0 170 0;
#X connect 3 0 169 0;
#X connect 3 0 168 0;
#X connect 3 0 167 0;
#X connect 3 0 166 0;
#X connect 3 0 165 0;
#X connect 3 0 164 0;
#X connect 3 0 163 0;
#X connect 3 0 162 0;
#X connect 3 0 161 0;
#X connect 3 0 160 0;
#X connect 3 0 159 0;
#X connect 3 0 158 0;
#X connect 3 0 157 0;
#X connect 3 0 156 0;
#X connect 3 0 155 0;
#X connect 3 0 106 0;
#X connect 3 0 105 0;
#X connect 3 0 104 0;
#X connect 3 0 103 0;
#X connect 3 0 102 0;
#X connect 3 0 101 0;
#X connect 3 0 100 0;
#X connect 3 0 99 0;
#X connect 3 0 98 0;
#X connect 3 0 97 0;
#X connect 3 0 96 0;
#X connect 3 0 95 0;
#X connect 3 0 94 0;
#X connect 3 0 93 0;
#X connect 3 0 92 0;
#X connect 3 0 91 0;
#X connect 3 0 90 0;
#X connect 3 0 89 0;
#X connect 3 0 88 0;
#X connect 3 0 87 0;
#X connect 3 0 86 0;
#X connect 3 0 85 0;
#X connect 3 0 84 0;
#X connect 3 0 83 0;
#X connect 3 0 19 0;
#X connect 3 0 18 0;
#X connect 3 0 17 0;
#X connect 3 0 16 0;
#X connect 3 0 15 0;
#X connect 3 0 14 0;
#X connect 3 0 13 0;
#X connect 3 0 12 0;
#X connect 3 0 11 0;
#X connect 3 0 10 0;
#X connect 3 0 9 0;
#X connect 3 0 8 0;
#X connect 3 0 58 0;
#X connect 3 0 57 0;
#X connect 3 0 56 0;
#X connect 3 0 55 0;
#X connect 3 0 54 0;
#X connect 3 0 53 0;
#X connect 3 0 51 0;
#X connect 3 0 50 0;
#X connect 3 0 49 0;
#X connect 3 0 48 0;
#X connect 3 0 47 0;
#X connect 4 0 6 0;
#X connect 5 0 0 0;
#X connect 6 0 7 0;
#X connect 7 0 5 0;
#X connect 8 0 24 0;
#X connect 8 0 269 0;
#X connect 9 0 290 0;
#X connect 9 0 20 0;
#X connect 10 0 291 0;
#X connect 10 0 26 0;
#X connect 11 0 292 0;
#X connect 11 0 25 0;
#X connect 12 0 293 0;
#X connect 12 0 28 0;
#X connect 13 0 294 0;
#X connect 13 0 27 0;
#X connect 14 0 295 0;
#X connect 14 0 30 0;
#X connect 15 0 296 0;
#X connect 15 0 29 0;
#X connect 16 0 297 0;
#X connect 16 0 32 0;
#X connect 17 0 31 0;
#X connect 17 0 298 0;
#X connect 18 0 299 0;
#X connect 18 0 34 0;
#X connect 19 0 300 0;
#X connect 19 0 33 0;
#X connect 21 0 23 0;
#X connect 22 0 23 0;
#X connect 23 0 3 0;
#X connect 47 0 268 0;
#X connect 47 0 36 0;
#X connect 48 0 280 0;
#X connect 48 0 35 0;
#X connect 49 0 279 0;
#X connect 49 0 38 0;
#X connect 50 0 281 0;
#X connect 50 0 37 0;
#X connect 51 0 282 0;
#X connect 51 0 40 0;
#X connect 52 0 283 0;
#X connect 52 0 39 0;
#X connect 53 0 284 0;
#X connect 53 0 42 0;
#X connect 54 0 285 0;
#X connect 54 0 41 0;
#X connect 55 0 286 0;
#X connect 55 0 44 0;
#X connect 56 0 287 0;
#X connect 56 0 43 0;
#X connect 57 0 288 0;
#X connect 57 0 46 0;
#X connect 58 0 289 0;
#X connect 58 0 45 0;
#X connect 83 0 270 0;
#X connect 83 0 72 0;
#X connect 84 0 301 0;
#X connect 84 0 71 0;
#X connect 85 0 302 0;
#X connect 85 0 74 0;
#X connect 86 0 303 0;
#X connect 86 0 73 0;
#X connect 87 0 304 0;
#X connect 87 0 76 0;
#X connect 88 0 305 0;
#X connect 88 0 75 0;
#X connect 89 0 306 0;
#X connect 89 0 78 0;
#X connect 90 0 307 0;
#X connect 90 0 77 0;
#X connect 91 0 308 0;
#X connect 91 0 80 0;
#X connect 92 0 309 0;
#X connect 92 0 79 0;
#X connect 93 0 310 0;
#X connect 93 0 82 0;
#X connect 94 0 311 0;
#X connect 94 0 81 0;
#X connect 95 0 271 0;
#X connect 95 0 60 0;
#X connect 96 0 59 0;
#X connect 96 0 312 0;
#X connect 97 0 62 0;
#X connect 97 0 313 0;
#X connect 98 0 314 0;
#X connect 98 0 61 0;
#X connect 99 0 315 0;
#X connect 99 0 64 0;
#X connect 100 0 316 0;
#X connect 100 0 63 0;
#X connect 101 0 317 0;
#X connect 101 0 66 0;
#X connect 102 0 318 0;
#X connect 102 0 65 0;
#X connect 103 0 319 0;
#X connect 103 0 68 0;
#X connect 104 0 320 0;
#X connect 104 0 67 0;
#X connect 105 0 321 0;
#X connect 105 0 70 0;
#X connect 106 0 322 0;
#X connect 106 0 69 0;
#X connect 155 0 272 0;
#X connect 155 0 120 0;
#X connect 156 0 330 0;
#X connect 156 0 119 0;
#X connect 157 0 331 0;
#X connect 157 0 122 0;
#X connect 158 0 332 0;
#X connect 158 0 121 0;
#X connect 159 0 333 0;
#X connect 159 0 124 0;
#X connect 160 0 334 0;
#X connect 160 0 123 0;
#X connect 161 0 335 0;
#X connect 161 0 126 0;
#X connect 162 0 336 0;
#X connect 162 0 125 0;
#X connect 163 0 337 0;
#X connect 163 0 128 0;
#X connect 164 0 338 0;
#X connect 164 0 127 0;
#X connect 165 0 339 0;
#X connect 165 0 130 0;
#X connect 166 0 340 0;
#X connect 166 0 129 0;
#X connect 167 0 273 0;
#X connect 167 0 108 0;
#X connect 168 0 341 0;
#X connect 168 0 107 0;
#X connect 169 0 342 0;
#X connect 169 0 110 0;
#X connect 170 0 343 0;
#X connect 170 0 109 0;
#X connect 171 0 344 0;
#X connect 171 0 112 0;
#X connect 172 0 345 0;
#X connect 172 0 111 0;
#X connect 173 0 346 0;
#X connect 173 0 114 0;
#X connect 174 0 347 0;
#X connect 174 0 113 0;
#X connect 175 0 348 0;
#X connect 175 0 116 0;
#X connect 176 0 351 0;
#X connect 176 0 115 0;
#X connect 177 0 349 0;
#X connect 177 0 118 0;
#X connect 178 0 350 0;
#X connect 178 0 117 0;
#X connect 179 0 274 0;
#X connect 179 0 144 0;
#X connect 180 0 352 0;
#X connect 180 0 143 0;
#X connect 181 0 353 0;
#X connect 181 0 146 0;
#X connect 182 0 354 0;
#X connect 182 0 145 0;
#X connect 183 0 355 0;
#X connect 183 0 148 0;
#X connect 184 0 147 0;
#X connect 185 0 357 0;
#X connect 185 0 150 0;
#X connect 186 0 358 0;
#X connect 186 0 149 0;
#X connect 187 0 359 0;
#X connect 187 0 152 0;
#X connect 188 0 360 0;
#X connect 188 0 151 0;
#X connect 189 0 361 0;
#X connect 189 0 154 0;
#X connect 190 0 362 0;
#X connect 190 0 153 0;
#X connect 191 0 275 0;
#X connect 191 0 132 0;
#X connect 192 0 363 0;
#X connect 192 0 131 0;
#X connect 193 0 364 0;
#X connect 193 0 134 0;
#X connect 194 0 365 0;
#X connect 194 0 133 0;
#X connect 195 0 366 0;
#X connect 195 0 136 0;
#X connect 196 0 135 0;
#X connect 197 0 368 0;
#X connect 197 0 138 0;
#X connect 198 0 369 0;
#X connect 198 0 137 0;
#X connect 199 0 370 0;
#X connect 199 0 140 0;
#X connect 200 0 371 0;
#X connect 200 0 139 0;
#X connect 201 0 372 0;
#X connect 201 0 142 0;
#X connect 202 0 373 0;
#X connect 202 0 141 0;
#X connect 236 0 276 0;
#X connect 236 0 216 0;
#X connect 237 0 374 0;
#X connect 237 0 215 0;
#X connect 238 0 375 0;
#X connect 238 0 218 0;
#X connect 239 0 376 0;
#X connect 239 0 217 0;
#X connect 240 0 377 0;
#X connect 240 0 220 0;
#X connect 241 0 219 0;
#X connect 242 0 379 0;
#X connect 242 0 222 0;
#X connect 243 0 380 0;
#X connect 243 0 221 0;
#X connect 244 0 381 0;
#X connect 244 0 224 0;
#X connect 245 0 382 0;
#X connect 245 0 223 0;
#X connect 246 0 383 0;
#X connect 246 0 226 0;
#X connect 247 0 384 0;
#X connect 247 0 225 0;
#X connect 248 0 277 0;
#X connect 248 0 204 0;
#X connect 249 0 385 0;
#X connect 249 0 203 0;
#X connect 250 0 386 0;
#X connect 250 0 206 0;
#X connect 251 0 387 0;
#X connect 251 0 205 0;
#X connect 252 0 388 0;
#X connect 252 0 208 0;
#X connect 253 0 207 0;
#X connect 254 0 390 0;
#X connect 254 0 210 0;
#X connect 255 0 391 0;
#X connect 255 0 209 0;
#X connect 256 0 392 0;
#X connect 256 0 212 0;
#X connect 257 0 393 0;
#X connect 257 0 211 0;
#X connect 258 0 394 0;
#X connect 258 0 214 0;
#X connect 259 0 395 0;
#X connect 259 0 213 0;
#X connect 260 0 228 0;
#X connect 260 0 278 0;
#X connect 261 0 323 0;
#X connect 261 0 227 0;
#X connect 262 0 324 0;
#X connect 262 0 230 0;
#X connect 263 0 229 0;
#X connect 264 0 326 0;
#X connect 264 0 232 0;
#X connect 265 0 327 0;
#X connect 265 0 231 0;
#X connect 266 0 328 0;
#X connect 266 0 234 0;
#X connect 267 0 329 0;
#X connect 267 0 233 0;
#X connect 268 0 396 0;
#X connect 269 0 396 0;
#X connect 270 0 396 0;
#X connect 271 0 396 0;
#X connect 272 0 396 0;
#X connect 273 0 396 0;
#X connect 274 0 396 0;
#X connect 275 0 396 0;
#X connect 276 0 396 0;
#X connect 277 0 396 0;
#X connect 278 0 396 0;
#X connect 279 0 396 0;
#X connect 280 0 396 0;
#X connect 281 0 396 0;
#X connect 282 0 396 0;
#X connect 283 0 396 0;
#X connect 284 0 396 0;
#X connect 285 0 396 0;
#X connect 286 0 396 0;
#X connect 287 0 396 0;
#X connect 288 0 396 0;
#X connect 289 0 396 0;
#X connect 290 0 396 0;
#X connect 291 0 396 0;
#X connect 292 0 396 0;
#X connect 293 0 396 0;
#X connect 294 0 396 0;
#X connect 295 0 396 0;
#X connect 296 0 396 0;
#X connect 297 0 396 0;
#X connect 298 0 396 0;
#X connect 299 0 396 0;
#X connect 300 0 396 0;
#X connect 301 0 396 0;
#X connect 302 0 396 0;
#X connect 303 0 396 0;
#X connect 304 0 396 0;
#X connect 305 0 396 0;
#X connect 306 0 396 0;
#X connect 307 0 396 0;
#X connect 308 0 396 0;
#X connect 309 0 396 0;
#X connect 310 0 396 0;
#X connect 311 0 396 0;
#X connect 312 0 396 0;
#X connect 313 0 396 0;
#X connect 314 0 396 0;
#X connect 315 0 396 0;
#X connect 316 0 396 0;
#X connect 317 0 396 0;
#X connect 318 0 396 0;
#X connect 319 0 396 0;
#X connect 320 0 396 0;
#X connect 321 0 396 0;
#X connect 322 0 396 0;
#X connect 323 0 396 0;
#X connect 324 0 396 0;
#X connect 325 0 396 0;
#X connect 326 0 396 0;
#X connect 327 0 396 0;
#X connect 328 0 396 0;
#X connect 329 0 396 0;
#X connect 330 0 396 0;
#X connect 331 0 396 0;
#X connect 332 0 396 0;
#X connect 333 0 396 0;
#X connect 334 0 396 0;
#X connect 335 0 396 0;
#X connect 336 0 396 0;
#X connect 337 0 396 0;
#X connect 338 0 396 0;
#X connect 339 0 396 0;
#X connect 340 0 396 0;
#X connect 341 0 396 0;
#X connect 342 0 396 0;
#X connect 343 0 396 0;
#X connect 344 0 396 0;
#X connect 345 0 396 0;
#X connect 346 0 396 0;
#X connect 347 0 396 0;
#X connect 348 0 396 0;
#X connect 349 0 396 0;
#X connect 350 0 396 0;
#X connect 351 0 396 0;
#X connect 352 0 396 0;
#X connect 353 0 396 0;
#X connect 354 0 396 0;
#X connect 355 0 396 0;
#X connect 356 0 396 0;
#X connect 357 0 396 0;
#X connect 358 0 396 0;
#X connect 359 0 396 0;
#X connect 360 0 396 0;
#X connect 361 0 396 0;
#X connect 362 0 396 0;
#X connect 363 0 396 0;
#X connect 364 0 396 0;
#X connect 365 0 396 0;
#X connect 366 0 396 0;
#X connect 367 0 396 0;
#X connect 368 0 396 0;
#X connect 369 0 396 0;
#X connect 370 0 396 0;
#X connect 371 0 396 0;
#X connect 372 0 396 0;
#X connect 373 0 396 0;
#X connect 374 0 396 0;
#X connect 375 0 396 0;
#X connect 376 0 396 0;
#X connect 377 0 396 0;
#X connect 378 0 396 0;
#X connect 379 0 396 0;
#X connect 380 0 396 0;
#X connect 381 0 396 0;
#X connect 382 0 396 0;
#X connect 383 0 396 0;
#X connect 384 0 396 0;
#X connect 385 0 396 0;
#X connect 386 0 396 0;
#X connect 387 0 396 0;
#X connect 388 0 396 0;
#X connect 389 0 396 0;
#X connect 390 0 396 0;
#X connect 391 0 396 0;
#X connect 392 0 396 0;
#X connect 393 0 396 0;
#X connect 394 0 396 0;
#X connect 395 0 396 0;
#X connect 396 0 397 0;
#X connect 398 0 399 0;
#X connect 399 0 400 0;
#X connect 400 0 401 0;
#X connect 401 0 3 0;
#X connect 404 0 405 0;
#X connect 405 0 396 0;
#X connect 406 0 405 0;
#X restore 78 1150 pd notename;
#X text 380 154 1st inlet - Frequency for the oscillator;
#X text 381 178 2nd inlet - Cutoff for the filter;
#X text 380 91 This is just a really basic saw using the [phasor~]
object. It also uses the [bob~] filter so you got everything all in
one box.;
#X text 380 201 3rd inlet - Resonance for the filter;
#X text 404 1156 1st inlet - Raw Frequency Number;
#X text 405 1183 2nd inlet - MIDI Note Number;
#X text 406 1226 1st outlet - Note Name (sends to symbol box);
#X text 403 1061 This is a subpatch that names the notes that you put
into it. It does not take audio \, but rather the number you would
insert to the oscillator's frequency insert. It takes either the raw
frequency number or the MIDI number itself. It then sends a message
that can be read by a symbol box.;
#X text 403 1136 ------------------------------------------------------------
;
#X text 404 1205 ------------------------------------------------------------
;
#X text 385 429 ------------------------------------------------------------
;
#X text 379 134 ------------------------------------------------------------
;
#X text 380 220 ------------------------------------------------------------
;
#X text 385 449 1st inlet - Master frequency for the oscillators;
#X text 385 533 5th inlet - Detune amount of upper oscillator (in Hz)
;
#X text 385 512 4th inlet - Volume of upper oscillator (0-1);
#X text 385 491 3rd inlet - Detune amount of the sub oscillator (in
Hz);
#X text 385 470 2nd inlet - Volume of the sub oscillator (0-1);
#X text 385 383 Super basic super saw with a sub octave and an upper
octave. It does have positive and negative detuning for both of the
extra oscillators.;
#X text 385 553 ------------------------------------------------------------
;
#X text 381 239 1st outlet - Post-Filter audio out;
#X text 381 265 2nd outlet - Pre-Filter audio out;
#X text 386 576 1st outlet - Master audio out;
#X text 391 685 Really basic chord generator using sine wave oscillators.
It just takes 4 frequencies to control each voice., f 59;
#X text 390 716 ------------------------------------------------------------
;
#X text 392 736 1st inlet - Frequency for 1st voice;
#X text 392 763 2nd inlet - Frequency for 2nd voice;
#X text 392 791 3rd inlet - Frequency for 3rd voice;
#X text 392 818 4th inlet - Frequency for 4th voice;
#X text 389 839 ------------------------------------------------------------
;
#X text 392 862 1st outlet - Master out of all 4 voices;
#X text 43 1289 ------------------------------------------------------------
;
#X text 464 1289 ------------------------------------------------------------
;
#X text 127 1603 Random Chord Generator;
#X text 392 888 2nd outlet - Individual out for 1st voice;
#X text 392 914 3rd outlet - Individual out for 2nd voice;
#X text 392 940 4th outlet - Individual out for 3rd voice;
#X text 392 966 5th outlet - Individual out for 4th voice;
#X floatatom 152 1109 5 0 0 0 - - -;
#X obj 217 1090 random 127;
#X obj 217 1062 bng 15 250 50 0 empty empty empty 17 7 0 10 -262144
-1 -1;
#X obj 201 1155 osc~;
#X obj 201 1189 *~;
#X obj 239 1174 hsl 128 15 0 1 0 0 empty empty empty -2 -8 0 10 -262144
-1 -1 0 1;
#X obj 188 1229 dac~;
#X obj 201 1127 mtof;
#X obj 141 1766 *~;
#X obj 179 1751 hsl 128 15 0 1 0 0 empty empty empty -2 -8 0 10 -262144
-1 -1 0 1;
#X obj 128 1806 dac~;
#X obj 141 1642 bng 15 250 50 0 empty empty empty 17 7 0 10 -262144
-1 -1;
#X text 50 1563 ------------------------------------------------------------
;
#X text 470 1563 ------------------------------------------------------------
;
#X text 138 1317 Harmonic Oscillator;
#N canvas 259 25 1639 949 harmosc~ 0;
#X obj 125 596 inlet;
#X floatatom 125 629 5 0 0 0 - - -;
#X obj 276 816 spigot;
#X obj 303 801 tgl 15 0 empty empty empty 17 7 0 10 -262144 -1 -1 0
1;
#X obj 303 777 r har2;
#X text 2677 1927 this is a lot of connections. me bad programmer.
;
#X obj 702 356 hradio 15 1 0 11 empty empty empty 0 -8 0 10 -262144
-1 -1 10;
#X floatatom 702 390 5 0 10 0 - - -;
#X floatatom 408 483 5 0 0 0 - - -;
#X floatatom 472 483 5 0 0 0 - - -;
#X floatatom 536 483 5 0 0 0 - - -;
#X floatatom 600 483 5 0 0 0 - - -;
#X floatatom 664 483 5 0 0 0 - - -;
#X floatatom 728 483 5 0 0 0 - - -;
#X floatatom 792 483 5 0 0 0 - - -;
#X floatatom 856 483 5 0 0 0 - - -;
#X obj 408 445 >= 1;
#X obj 472 445 >= 2;
#X obj 536 445 >= 3;
#X obj 600 445 >= 4;
#X obj 664 445 >= 5;
#X obj 728 445 >= 6;
#X obj 792 445 >= 7;
#X obj 856 445 >= 8;
#X floatatom 920 483 5 0 0 0 - - -;
#X floatatom 984 483 5 0 0 0 - - -;
#X obj 920 445 >= 9;
#X obj 984 445 >= 10;
#X obj 408 520 s har1;
#X obj 472 520 s har2;
#X obj 536 520 s har3;
#X obj 600 520 s har4;
#X obj 664 520 s har5;
#X obj 728 520 s har6;
#X obj 792 520 s har7;
#X obj 856 520 s har8;
#X obj 920 520 s har9;
#X obj 984 520 s har10;
#X obj 702 243 inlet;
#X floatatom 702 319 5 0 10 0 - - -;
#X floatatom 179 758 5 0 0 0 - - -;
#X floatatom 276 758 5 0 0 0 - - -;
#X floatatom 373 758 5 0 0 0 - - -;
#X floatatom 470 758 5 0 0 0 - - -;
#X floatatom 567 758 5 0 0 0 - - -;
#X floatatom 664 758 5 0 0 0 - - -;
#X floatatom 761 758 5 0 0 0 - - -;
#X floatatom 858 758 5 0 0 0 - - -;
#X floatatom 955 758 5 0 0 0 - - -;
#X floatatom 1064 758 5 0 0 0 - - -;
#X obj 702 281 clip 0 10;
#X text 1051 271 This is the mechanism that controls what harmonics
are played. It allows up to 10 The inlet takes a number from 0-10 and
plays that many harmonics. It is incremental in the sense that it plays
all harmonics up to that number. It originally had a bunch of select
statements with 1 and 0 messages and there were over like 200 connections.
This is much easier.;
#X floatatom 276 835 5 0 0 0 - - -;
#X obj 321 797 sel 0;
#X msg 342 816 0, f 2;
#X obj 303 743 bng 15 250 50 0 empty empty empty 17 7 0 10 -262144
-1 -1;
#X obj 179 816 spigot;
#X obj 206 801 tgl 15 0 empty empty empty 17 7 0 10 -262144 -1 -1 0
1;
#X floatatom 179 835 5 0 0 0 - - -;
#X obj 224 797 sel 0;
#X msg 245 816 0, f 2;
#X obj 206 743 bng 15 250 50 0 empty empty empty 17 7 0 10 -262144
-1 -1;
#X obj 373 816 spigot;
#X obj 400 801 tgl 15 0 empty empty empty 17 7 0 10 -262144 -1 -1 0
1;
#X floatatom 373 835 5 0 0 0 - - -;
#X obj 418 797 sel 0;
#X msg 439 816 0, f 2;
#X obj 400 743 bng 15 250 50 0 empty empty empty 17 7 0 10 -262144
-1 -1;
#X obj 206 777 r har1;
#X obj 400 777 r har3;
#X obj 470 816 spigot;
#X obj 497 801 tgl 15 0 empty empty empty 17 7 0 10 -262144 -1 -1 0
1;
#X floatatom 470 835 5 0 0 0 - - -;
#X obj 515 797 sel 0;
#X msg 536 816 0, f 2;
#X obj 497 743 bng 15 250 50 0 empty empty empty 17 7 0 10 -262144
-1 -1;
#X obj 567 816 spigot;
#X obj 594 801 tgl 15 0 empty empty empty 17 7 0 10 -262144 -1 -1 0
1;
#X floatatom 567 835 5 0 0 0 - - -;
#X obj 612 797 sel 0;
#X msg 633 816 0, f 2;
#X obj 594 743 bng 15 250 50 0 empty empty empty 17 7 0 10 -262144
-1 -1;
#X obj 664 816 spigot;
#X obj 691 801 tgl 15 0 empty empty empty 17 7 0 10 -262144 -1 -1 0
1;
#X floatatom 664 835 5 0 0 0 - - -;
#X obj 709 797 sel 0;
#X msg 730 816 0, f 2;
#X obj 691 743 bng 15 250 50 0 empty empty empty 17 7 0 10 -262144
-1 -1;
#X obj 761 816 spigot;
#X obj 788 801 tgl 15 0 empty empty empty 17 7 0 10 -262144 -1 -1 0
1;
#X floatatom 761 835 5 0 0 0 - - -;
#X obj 806 797 sel 0;
#X msg 827 816 0, f 2;
#X obj 788 743 bng 15 250 50 0 empty empty empty 17 7 0 10 -262144
-1 -1;
#X obj 858 816 spigot;
#X obj 885 801 tgl 15 0 empty empty empty 17 7 0 10 -262144 -1 -1 0
1;
#X floatatom 858 835 5 0 0 0 - - -;
#X obj 903 797 sel 0;
#X msg 924 816 0, f 2;
#X obj 885 743 bng 15 250 50 0 empty empty empty 17 7 0 10 -262144
-1 -1;
#X obj 955 816 spigot;
#X obj 994 801 tgl 15 0 empty empty empty 17 7 0 10 -262144 -1 -1 0
1;
#X floatatom 955 835 5 0 0 0 - - -;
#X obj 1012 797 sel 0;
#X msg 1012 816 0, f 2;
#X obj 994 743 bng 15 250 50 0 empty empty empty 17 7 0 10 -262144
-1 -1;
#X obj 1064 816 spigot;
#X obj 1103 801 tgl 15 0 empty empty empty 17 7 0 10 -262144 -1 -1
0 1;
#X floatatom 1064 835 5 0 0 0 - - -;
#X obj 1121 797 sel 0;
#X msg 1121 816 0, f 2;
#X obj 1103 743 bng 15 250 50 0 empty empty empty 17 7 0 10 -262144
-1 -1;
#X obj 497 777 r har4;
#X obj 594 777 r har5;
#X obj 691 777 r har6;
#X obj 788 777 r har7;
#X obj 885 777 r har8;
#X obj 994 778 r har9;
#X obj 1103 778 r har10;
#X obj 179 865 osc~;
#X obj 276 865 osc~;
#X obj 373 865 osc~;
#X obj 470 865 osc~;
#X obj 567 865 osc~;
#X obj 664 865 osc~;
#X obj 761 865 osc~;
#X obj 858 865 osc~;
#X obj 955 865 osc~;
#X obj 1064 865 osc~;
#X obj 761 897 *~ 0.125;
#X obj 858 897 *~ 0.075;
#X obj 955 897 *~ 0.035;
#X obj 1064 897 *~ 0.015;
#X obj 125 1055 outlet~;
#X text 1152 569 This is the oscillator bank where the harmonics are
generated. In its bones \, it's a really basic additive oscillator
setup \, but the fun comes with the spigot. Using the receive object
\, it either opens or closes the spigot depending on the other inlet.
The [sel 0] object and the bang is essentially a feeback system that
makes sure it resets to 0 if not in use and sends the frequency if
it is in use.;
#X obj 125 734 * 1;
#X floatatom 125 758 5 0 0 0 - - -;
#X obj 125 865 osc~;
#X obj 179 734 * 2;
#X obj 276 734 * 3;
#X obj 373 734 * 4;
#X obj 470 734 * 5;
#X obj 567 734 * 6;
#X obj 664 734 * 7;
#X obj 761 734 * 8;
#X obj 858 734 * 9;
#X obj 955 734 * 10;
#X obj 1064 734 * 11;
#X obj 179 897 *~ 0.75;
#X obj 276 897 *~ 0.5;
#X obj 373 897 *~ 0.35;
#X obj 470 897 *~ 0.25;
#X obj 567 897 *~ 0.2;
#X obj 664 897 *~ 0.15;
#X obj 1064 1055 tabwrite~ addtest;
#N canvas 0 22 450 278 (subpatch) 0;
#X array addtest 250 float 3;
#A 0 0.8625 0.8625 0.8625 0.8625 0.8625 0.8625 0.8625 0.8625 0.8625
0.8625 0.8625 0.8625 0.8625 0.8625 0.8625 0.8625 0.8625 0.8625 0.8625
0.8625 0.8625 0.8625 0.8625 0.8625 0.8625 0.8625 0.8625 0.8625 0.8625
0.8625 0.8625 0.8625 0.8625 0.8625 0.8625 0.8625 0.8625 0.8625 0.8625
0.8625 0.8625 0.8625 0.8625 0.8625 0.8625 0.8625 0.8625 0.8625 0.8625
0.8625 0.8625 0.8625 0.8625 0.8625 0.8625 0.8625 0.8625 0.8625 0.8625
0.8625 0.8625 0.8625 0.8625 0.8625 0.8625 0.8625 0.8625 0.8625 0.8625
0.8625 0.8625 0.8625 0.8625 0.8625 0.8625 0.8625 0.8625 0.8625 0.8625
0.8625 0.8625 0.8625 0.8625 0.8625 0.8625 0.8625 0.8625 0.8625 0.8625
0.8625 0.8625 0.8625 0.8625 0.8625 0.8625 0.8625 0.8625 0.8625 0.8625
0.8625 0.8625 0.8625 0.8625 0.8625 0.8625 0.8625 0.8625 0.8625 0.8625
0.8625 0.8625 0.8625 0.8625 0.8625 0.8625 0.8625 0.8625 0.8625 0.8625
0.8625 0.8625 0.8625 0.8625 0.8625 0.8625 0.8625 0.8625 0.8625 0.8625
0.8625 0.8625 0.8625 0.8625 0.8625 0.8625 0.8625 0.8625 0.8625 0.8625
0.8625 0.8625 0.8625 0.8625 0.8625 0.8625 0.8625 0.8625 0.8625 0.8625
0.8625 0.8625 0.8625 0.8625 0.8625 0.8625 0.8625 0.8625 0.8625 0.8625
0.8625 0.8625 0.8625 0.8625 0.8625 0.8625 0.8625 0.8625 0.8625 0.8625
0.8625 0.8625 0.8625 0.8625 0.8625 0.8625 0.8625 0.8625 0.8625 0.8625
0.8625 0.8625 0.8625 0.8625 0.8625 0.8625 0.8625 0.8625 0.8625 0.8625
0.8625 0.8625 0.8625 0.8625 0.8625 0.8625 0.8625 0.8625 0.8625 0.8625
0.8625 0.8625 0.8625 0.8625 0.8625 0.8625 0.8625 0.8625 0.8625 0.8625
0.8625 0.8625 0.8625 0.8625 0.8625 0.8625 0.8625 0.8625 0.8625 0.8625
0.8625 0.8625 0.8625 0.8625 0.8625 0.8625 0.8625 0.8625 0.8625 0.8625
0.8625 0.8625 0.8625 0.8625 0.8625 0.8625 0.8625 0.8625 0.8625 0.8625
0.8625 0.8625 0.8625 0.8625 0.8625 0.8625 0.8625 0.8625 0.8625 0.8625
0.8625;
#X coords 0 1 250 -1 200 140 1;
#X restore 510 1064 graph;
#X obj 1196 1014 loadbang;
#X obj 1283 1021 bng 15 250 50 0 empty empty empty 17 7 0 10 -262144
-1 -1;
#X obj 1064 1026 *~ 0.25;
#X obj 1196 1036 metro 250;
#X connect 0 0 1 0;
#X connect 1 0 135 0;
#X connect 1 0 138 0;
#X connect 1 0 139 0;
#X connect 1 0 140 0;
#X connect 1 0 141 0;
#X connect 1 0 142 0;
#X connect 1 0 143 0;
#X connect 1 0 144 0;
#X connect 1 0 145 0;
#X connect 1 0 146 0;
#X connect 1 0 147 0;
#X connect 2 0 52 0;
#X connect 3 0 2 1;
#X connect 4 0 3 0;
#X connect 4 0 53 0;
#X connect 4 0 55 0;
#X connect 6 0 7 0;
#X connect 7 0 16 0;
#X connect 7 0 17 0;
#X connect 7 0 18 0;
#X connect 7 0 19 0;
#X connect 7 0 20 0;
#X connect 7 0 21 0;
#X connect 7 0 22 0;
#X connect 7 0 23 0;
#X connect 7 0 26 0;
#X connect 7 0 27 0;
#X connect 8 0 28 0;
#X connect 9 0 29 0;
#X connect 10 0 30 0;
#X connect 11 0 31 0;
#X connect 12 0 32 0;
#X connect 13 0 33 0;
#X connect 14 0 34 0;
#X connect 15 0 35 0;
#X connect 16 0 8 0;
#X connect 17 0 9 0;
#X connect 18 0 10 0;
#X connect 19 0 11 0;
#X connect 20 0 12 0;
#X connect 21 0 13 0;
#X connect 22 0 14 0;
#X connect 23 0 15 0;
#X connect 24 0 36 0;
#X connect 25 0 37 0;
#X connect 26 0 24 0;
#X connect 27 0 25 0;
#X connect 38 0 50 0;
#X connect 39 0 6 0;
#X connect 40 0 56 0;
#X connect 41 0 2 0;
#X connect 42 0 62 0;
#X connect 43 0 70 0;
#X connect 44 0 76 0;
#X connect 45 0 82 0;
#X connect 46 0 88 0;
#X connect 47 0 94 0;
#X connect 48 0 100 0;
#X connect 49 0 106 0;
#X connect 50 0 39 0;
#X connect 52 0 120 0;
#X connect 53 0 54 0;
#X connect 54 0 52 0;
#X connect 55 0 41 0;
#X connect 56 0 58 0;
#X connect 57 0 56 1;
#X connect 58 0 119 0;
#X connect 59 0 60 0;
#X connect 60 0 58 0;
#X connect 61 0 40 0;
#X connect 62 0 64 0;
#X connect 63 0 62 1;
#X connect 64 0 121 0;
#X connect 65 0 66 0;
#X connect 66 0 64 0;
#X connect 67 0 42 0;
#X connect 68 0 57 0;
#X connect 68 0 59 0;
#X connect 68 0 61 0;
#X connect 69 0 63 0;
#X connect 69 0 65 0;
#X connect 69 0 67 0;
#X connect 70 0 72 0;
#X connect 71 0 70 1;
#X connect 72 0 122 0;
#X connect 73 0 74 0;
#X connect 74 0 72 0;
#X connect 75 0 43 0;
#X connect 76 0 78 0;
#X connect 77 0 76 1;
#X connect 78 0 123 0;
#X connect 79 0 80 0;
#X connect 80 0 78 0;
#X connect 81 0 44 0;
#X connect 82 0 84 0;
#X connect 83 0 82 1;
#X connect 84 0 124 0;
#X connect 85 0 86 0;
#X connect 86 0 84 0;
#X connect 87 0 45 0;
#X connect 88 0 90 0;
#X connect 89 0 88 1;
#X connect 90 0 125 0;
#X connect 91 0 92 0;
#X connect 92 0 90 0;
#X connect 93 0 46 0;
#X connect 94 0 96 0;
#X connect 95 0 94 1;
#X connect 96 0 126 0;
#X connect 97 0 98 0;
#X connect 98 0 96 0;
#X connect 99 0 47 0;
#X connect 100 0 102 0;
#X connect 101 0 100 1;
#X connect 102 0 127 0;
#X connect 103 0 104 0;
#X connect 104 0 102 0;
#X connect 105 0 48 0;
#X connect 106 0 108 0;
#X connect 107 0 106 1;
#X connect 108 0 128 0;
#X connect 109 0 110 0;
#X connect 110 0 108 0;
#X connect 111 0 49 0;
#X connect 112 0 71 0;
#X connect 112 0 73 0;
#X connect 112 0 75 0;
#X connect 113 0 77 0;
#X connect 113 0 79 0;
#X connect 113 0 81 0;
#X connect 114 0 83 0;
#X connect 114 0 85 0;
#X connect 114 0 87 0;
#X connect 115 0 89 0;
#X connect 115 0 91 0;
#X connect 115 0 93 0;
#X connect 116 0 95 0;
#X connect 116 0 97 0;
#X connect 116 0 99 0;
#X connect 117 0 101 0;
#X connect 117 0 103 0;
#X connect 117 0 105 0;
#X connect 118 0 107 0;
#X connect 118 0 109 0;
#X connect 118 0 111 0;
#X connect 119 0 148 0;
#X connect 120 0 149 0;
#X connect 121 0 150 0;
#X connect 122 0 151 0;
#X connect 123 0 152 0;
#X connect 124 0 153 0;
#X connect 125 0 129 0;
#X connect 126 0 130 0;
#X connect 127 0 131 0;
#X connect 128 0 132 0;
#X connect 129 0 133 0;
#X connect 129 0 158 0;
#X connect 130 0 133 0;
#X connect 130 0 158 0;
#X connect 131 0 133 0;
#X connect 131 0 158 0;
#X connect 132 0 133 0;
#X connect 132 0 158 0;
#X connect 135 0 136 0;
#X connect 136 0 137 0;
#X connect 137 0 133 0;
#X connect 137 0 158 0;
#X connect 138 0 40 0;
#X connect 139 0 41 0;
#X connect 140 0 42 0;
#X connect 141 0 43 0;
#X connect 142 0 44 0;
#X connect 143 0 45 0;
#X connect 144 0 46 0;
#X connect 145 0 47 0;
#X connect 146 0 48 0;
#X connect 147 0 49 0;
#X connect 148 0 133 0;
#X connect 148 0 158 0;
#X connect 149 0 133 0;
#X connect 149 0 158 0;
#X connect 150 0 133 0;
#X connect 150 0 158 0;
#X connect 151 0 133 0;
#X connect 151 0 158 0;
#X connect 152 0 133 0;
#X connect 152 0 158 0;
#X connect 153 0 133 0;
#X connect 153 0 158 0;
#X connect 156 0 159 0;
#X connect 157 0 159 0;
#X connect 158 0 154 0;
#X connect 159 0 154 0;
#X restore 165 1413 pd harmosc~;
#N canvas 627 123 643 623 saw~ 0;
#X obj 189 218 inlet frequency;
#X obj 201 276 inlet cutoff;
#X obj 189 249 phasor~;
#X obj 189 327 bob~;
#X obj 214 300 inlet resonance;
#X obj 189 360 outlet~ PostFilter;
#X obj 364 268 outlet~ PreFilter;
#X connect 0 0 2 0;
#X connect 1 0 3 1;
#X connect 2 0 3 0;
#X connect 2 0 6 0;
#X connect 3 0 5 0;
#X connect 4 0 3 2;
#X restore 116 200 pd saw~;
#N canvas 205 179 1044 620 supersaw~ 0;
#X obj 430 114 * 1;
#X obj 355 115 * 0.5;
#X obj 503 114 * 2;
#X obj 355 220 phasor~;
#X obj 430 221 phasor~;
#X obj 503 221 phasor~;
#X obj 430 368 outlet~;
#X obj 337 269 *~;
#X obj 503 269 *~;
#X obj 204 206 clip 0 1;
#X obj 569 219 clip 0 1;
#X floatatom 503 193 5 0 0 0 - - -;
#X floatatom 430 193 5 0 0 0 - - -;
#X floatatom 355 193 5 0 0 0 - - -;
#X floatatom 204 240 5 0 0 0 - - -;
#X floatatom 544 245 5 0 0 0 - - -;
#X obj 198 1 inlet frequency;
#X obj 355 164 +;
#X floatatom 355 139 5 0 0 0 - - -;
#X obj 229 92 inlet sub detune;
#X obj 503 167 +;
#X floatatom 503 142 5 0 0 0 - - -;
#X obj 698 84 inlet upper detune;
#X obj 556 185 inlet upper volume;
#X obj 203 160 inlet sub volume;
#X floatatom 279 125 5 0 0 0 - - -;
#X floatatom 635 123 5 0 0 0 - - -;
#X obj 113 104 metro 10;
#X obj 113 80 loadbang;
#X obj 725 136 metro 10;
#X obj 725 112 loadbang;
#X connect 0 0 12 0;
#X connect 1 0 18 0;
#X connect 2 0 21 0;
#X connect 3 0 7 1;
#X connect 4 0 6 0;
#X connect 5 0 8 0;
#X connect 7 0 6 0;
#X connect 8 0 6 0;
#X connect 9 0 14 0;
#X connect 10 0 15 0;
#X connect 11 0 5 0;
#X connect 12 0 4 0;
#X connect 13 0 3 0;
#X connect 14 0 7 0;
#X connect 15 0 8 1;
#X connect 16 0 0 0;
#X connect 16 0 1 0;
#X connect 16 0 2 0;
#X connect 17 0 13 0;
#X connect 18 0 17 0;
#X connect 19 0 25 0;
#X connect 20 0 11 0;
#X connect 21 0 20 0;
#X connect 22 0 26 0;
#X connect 23 0 10 0;
#X connect 24 0 9 0;
#X connect 25 0 17 1;
#X connect 26 0 20 1;
#X connect 27 0 17 0;
#X connect 28 0 27 0;
#X connect 29 0 20 0;
#X connect 30 0 29 0;
#X restore 121 504 pd supersaw~;
#N canvas 685 70 696 610 chord~ 0;
#X obj 140 247 osc~;
#X obj 242 247 osc~;
#X obj 446 247 osc~;
#X obj 344 247 osc~;
#X obj 140 36 inlet voice1;
#X obj 242 55 inlet voice2;
#X obj 344 74 inlet voice3;
#X obj 446 93 inlet voice4;
#X obj 28 266 outlet~ master;
#X obj 140 434 outlet~ voice1;
#X obj 446 377 outlet~ voice1;
#X obj 242 415 outlet~ voice2;
#X obj 344 396 outlet~ voice3;
#X obj 140 171 clip 0 20000;
#X obj 242 171 clip 0 20000;
#X obj 344 171 clip 0 20000;
#X obj 446 171 clip 0 20000;
#X connect 0 0 8 0;
#X connect 0 0 9 0;
#X connect 1 0 8 0;
#X connect 1 0 11 0;
#X connect 2 0 8 0;
#X connect 2 0 10 0;
#X connect 3 0 8 0;
#X connect 3 0 12 0;
#X connect 4 0 13 0;
#X connect 5 0 14 0;
#X connect 6 0 15 0;
#X connect 7 0 16 0;
#X connect 13 0 0 0;
#X connect 14 0 1 0;
#X connect 15 0 3 0;
#X connect 16 0 2 0;
#X restore 131 823 pd chord~;
#N canvas 591 174 794 618 randomchord~ 0;
#X obj 388 131 bng 25 250 50 0 empty empty empty 17 7 0 10 -262144
-1 -1;
#X obj 203 231 + 48;
#X floatatom 203 256 5 0 0 0 - - -;
#X floatatom 203 203 5 0 0 0 - - -;
#X obj 203 179 random 7;
#X obj 313 231 + 54;
#X obj 434 231 + 60;
#X obj 540 231 + 66;
#X obj 313 179 random 7;
#X floatatom 313 203 5 0 0 0 - - -;
#X obj 434 179 random 7;
#X floatatom 434 203 5 0 0 0 - - -;
#X obj 540 179 random 7;
#X floatatom 540 203 5 0 0 0 - - -;
#X floatatom 313 256 5 0 0 0 - - -;
#X floatatom 434 256 5 0 0 0 - - -;
#X floatatom 540 256 5 0 0 0 - - -;
#X obj 626 304 outlet frequency1;
#X obj 203 285 mtof;
#X obj 313 285 mtof;
#X obj 767 304 outlet frequency2;
#X obj 434 285 mtof;
#X obj 540 285 mtof;
#X obj 912 304 outlet frequency3;
#X obj 1053 304 outlet frequency4;
#X text 2035 936 comment;
#X obj 203 317 osc~;
#X obj 313 317 osc~;
#X obj 434 317 osc~;
#X obj 540 317 osc~;
#X obj 376 396 outlet~ master;
#X obj 203 150 bng 15 250 50 0 empty empty empty 17 7 0 10 -262144
-1 -1;
#X obj 313 150 bng 15 250 50 0 empty empty empty 17 7 0 10 -262144
-1 -1;
#X obj 434 150 bng 15 250 50 0 empty empty empty 17 7 0 10 -262144
-1 -1;
#X obj 540 150 bng 15 250 50 0 empty empty empty 17 7 0 10 -262144
-1 -1;
#X obj 412 20 inlet bang1;
#X obj 388 99 inlet masterbang;
#X obj 496 20 inlet bang2;
#X obj 580 20 inlet bang3;
#X obj 664 20 inlet bang4;
#X connect 0 0 4 0;
#X connect 0 0 8 0;
#X connect 0 0 10 0;
#X connect 0 0 12 0;
#X connect 1 0 2 0;
#X connect 2 0 18 0;
#X connect 3 0 1 0;
#X connect 4 0 3 0;
#X connect 5 0 14 0;
#X connect 6 0 15 0;
#X connect 7 0 16 0;
#X connect 8 0 9 0;
#X connect 9 0 5 0;
#X connect 10 0 11 0;
#X connect 11 0 6 0;
#X connect 12 0 13 0;
#X connect 13 0 7 0;
#X connect 14 0 19 0;
#X connect 15 0 21 0;
#X connect 16 0 22 0;
#X connect 18 0 17 0;
#X connect 18 0 26 0;
#X connect 19 0 20 0;
#X connect 19 0 27 0;
#X connect 21 0 23 0;
#X connect 21 0 28 0;
#X connect 22 0 24 0;
#X connect 22 0 29 0;
#X connect 26 0 30 0;
#X connect 27 0 30 0;
#X connect 28 0 30 0;
#X connect 29 0 30 0;
#X connect 31 0 4 0;
#X connect 32 0 8 0;
#X connect 33 0 10 0;
#X connect 34 0 12 0;
#X connect 35 0 31 0;
#X connect 36 0 0 0;
#X connect 37 0 32 0;
#X connect 38 0 33 0;
#X connect 39 0 34 0;
#X restore 141 1691 pd randomchord~;
#X text 334 1695 WORK IN PROGRESS;
#X text 402 1344 This is an additive sine wave oscillator that lets
you pick how many harmonics you'd like it to have.;
#X text 404 1402 1st inlet - Master Frequency Number;
#X text 403 1439 2nd inlet - Amount of harmonics (1-10);
#X text 400 1375 ------------------------------------------------------------
;
#X text 402 1465 ------------------------------------------------------------
;
#X text 404 1489 1st outlet - Master out with all oscillators;
#X obj 165 1482 *~;
#X obj 203 1467 hsl 128 15 0 1 0 0 empty empty empty -2 -8 0 10 -262144
-1 -1 0 1;
#X obj 152 1522 dac~;
#X floatatom 165 1359 5 0 15000 0 - - -;
#X floatatom 239 1376 5 0 10 0 - - -;
#X text 53 1850 ------------------------------------------------------------
;
#X text 473 1850 ------------------------------------------------------------
;
#X text 135 1882 ADR Envelope;
#N canvas 659 106 840 771 adr 0;
#X obj 211 521 line~;
#X obj 157 223 bng 15 250 50 0 empty empty empty 17 7 0 10 -262144
-1 -1;
#X obj 175 257 nbx 4 14 5 5000 0 0 empty empty attack 10 -8 0 10 -262144
-1 -1 5 256;
#X obj 157 280 f;
#X obj 157 309 t f f;
#X msg 157 452 1 \$1;
#X obj 211 328 delay;
#X obj 211 357 f;
#X obj 262 343 nbx 4 14 5 5000 0 0 empty empty decay 10 -8 0 10 -262144
-1 -1 5 256;
#X obj 211 380 t f f;
#X obj 313 399 delay;
#X obj 313 427 f;
#X obj 374 413 nbx 4 14 5 5000 0 0 empty empty release 10 -8 0 10 -262144
-1 -1 5 256;
#X msg 211 452 0.5 \$1;
#X msg 313 452 0 \$1;
#N canvas 122 123 560 726 (subpatch) 0;
#X array envelope 1 float 3;
#A 0 0;
#X coords 0 1 1 -1 200 140 1;
#X restore 575 282 graph;
#X obj 418 471 line;
#X obj 418 490 tabwrite envelope;
#X text 366 43 This is an envelope that using variables so it can be
changed on the fly. It does it by using float packing (in this case
wth the trigger object \, but I believe you can use the [pack] object
as well. I saw a video using pack for sustain envelopes. It essentially
takes the float from the number box and sends it to the message variable
and the delay box so the delay and the ramp are synced. It does that
again with the decay and then the release just sends it to the message.
You can visualize the envelope on the array on the right \, even without
the audio going through it.;
#X obj 211 575 outlet~ audioenvelope;
#X obj 561 491 outlet envelope monitor;
#X obj 157 178 inlet bang;
#X obj 175 220 inlet attack;
#X obj 262 304 inlet decay;
#X obj 374 370 inlet release;
#X connect 0 0 19 0;
#X connect 1 0 3 0;
#X connect 2 0 3 1;
#X connect 3 0 4 0;
#X connect 4 0 5 0;
#X connect 4 1 6 0;
#X connect 5 0 0 0;
#X connect 5 0 16 0;
#X connect 6 0 7 0;
#X connect 7 0 9 0;
#X connect 8 0 7 1;
#X connect 9 0 13 0;
#X connect 9 1 10 0;
#X connect 10 0 11 0;
#X connect 11 0 14 0;
#X connect 12 0 11 1;
#X connect 13 0 0 0;
#X connect 13 0 16 0;
#X connect 14 0 0 0;
#X connect 14 0 16 0;
#X connect 16 0 17 0;
#X connect 16 0 20 0;
#X connect 21 0 1 0;
#X connect 22 0 2 0;
#X connect 23 0 8 0;
#X connect 24 0 12 0;
#X restore 116 2063 pd adr;
#X text 444 1987 1st inlet - Bang to trigger envelope;
#X text 444 2026 2nd inlet - Attack time (in ms);
#X text 444 2065 3rd inlet - Decay time (in ms);
#X text 444 2105 4th inlet - Release time (in ms);
#X text 437 1969 ------------------------------------------------------------
;
#X text 439 2129 ------------------------------------------------------------
;
#X text 444 2154 1st outlet - Audio envelope out;
#X text 444 2191 2nd outlet - Envelope monitor (send to [tabwrite])
;
#X obj 116 2013 bng 25 250 50 0 empty empty trigger -8 -10 0 12 -262144
-1 -1;
#X obj 196 1932 vsl 30 128 5 1000 0 0 empty empty attack 0 -9 0 10
-228856 -203904 -1 0 1;
#X obj 251 1932 vsl 30 128 5 1000 0 0 empty empty decay 0 -9 0 10 -228856
-4160 -1 0 1;
#X obj 306 1932 vsl 30 128 5 1000 0 0 empty empty release 0 -9 0 10
-228856 -159808 -1 0 1;
#X text 441 1902 This is a basic ADR envelope that takes variables
so it can be changed on the fly. It takes a bang to trigger and then
numbers for the adr. It also has a monitor out you can write to an
array and see the envelope.;
#X obj 98 2085 *~;
#X obj 155 2085 tabwrite envelopemonitor;
#N canvas 0 22 450 278 (subpatch) 0;
#X array envelopemonitor 1 float 3;
#A 0 0;
#X coords 0 1 1 -1 200 140 1;
#X restore 150 2128 graph;
#X obj 48 2045 noise~;
#X obj 48 2066 *~ 0.2;
#X text 54 2309 ------------------------------------------------------------
;
#X text 474 2309 ------------------------------------------------------------
;
#X obj 87 2133 dac~;
#N canvas 0 25 1821 949 randompitch 0;
#X obj 775 79 select amajor aminor bflatmajor bflatminor bmajor bminor
cmajor cminor dflatmajor dflatminor dmajor dminor eflatmajor eflatminor
emajor eminor fmajor fminor gflatmajor gflatminor gmajor gminor aflatmajor
aflatminor, f 214;
#X obj 352 161 inlet bang;
#X obj 775 12 inlet scaleselect;
#X obj 412 192 inlet octaveamount;
#X obj 809 576 inlet minusoctave;
#X floatatom 352 363 5 0 0 0 - - -;
#X obj 352 284 bng 15 250 50 0 empty empty empty 17 7 0 10 -262144
-1 -1;
#X floatatom 352 958 5 0 0 0 - - -;
#X obj 352 915 + \$1;
#X obj 352 327 random \$1;
#X obj 412 257 hradio 15 1 0 5 empty empty empty 0 -8 0 10 -262144
-1 -1 0;
#X msg 412 298 12, f 2;
#X msg 435 298 24, f 2;
#X msg 457 298 36, f 2;
#X msg 479 298 48, f 2;
#X msg 501 298 60, f 2;
#X obj 412 275 sel 0 1 2 3 4;
#X floatatom 412 214 5 1 5 0 - - -;
#X obj 412 235 - 1;
#X msg 448 896 24;
#X msg 477 896 36;
#X msg 506 896 48;
#X msg 535 896 60;
#X msg 564 896 72;
#X obj 889 604 inlet plusocatve;
#X obj 838 731 +;
#X obj 863 731 int;
#X msg 808 712 -1;
#X floatatom 863 820 5 0 9 0 - - -;
#X msg 889 712 1;
#X obj 863 851 hradio 15 1 0 8 empty empty empty 0 -8 0 10 -262144
-1 -1 4;
#X msg 593 896 84;
#X msg 622 896 96;
#X msg 651 896 108;
#X obj 809 603 bng 15 250 50 0 empty empty empty 17 7 0 10 -262144
-1 -1;
#X obj 889 630 bng 15 250 50 0 empty empty empty 17 7 0 10 -262144
-1 -1;
#X obj 889 656 spigot;
#X obj 809 647 spigot;
#X obj 950 641 tgl 15 0 empty empty empty 17 7 0 10 -262144 -1 -1 1
1;
#X obj 1024 728 tgl 15 0 empty empty empty 17 7 0 10 -262144 -1 -1
0 1;
#X obj 985 750 spigot;
#X obj 1010 622 loadbang;
#X obj 790 784 sel 0;
#X obj 790 632 tgl 15 0 empty empty empty 17 7 0 10 -262144 -1 -1 0
1;
#X obj 694 750 spigot;
#X obj 733 708 tgl 15 0 empty empty empty 17 7 0 10 -262144 -1 -1 0
1;
#X obj 694 785 sel 1;
#X text 1053 678 This is kind of a messy looking bit here \, but it
essentially makes sure the incremental counter stays between 0 and
9 When the [int] reaches a limit (0 or 9) \, the [sel] box shuts the
spigot from the bang message and opens up the other [sel] boxes which
wait for the next most inward number (1 or 8). Once it gets that \,
it reopens the main bang spigot., f 29;
#X text 971 24 This is adjusting what octave we are getting by changing
what the random number is increased by;
#X text 531 216 This changes the amount of random numbers \, thus changing
how many octaves we can get. Set for 1 octave range to 5 octave range.
, f 20;
#X obj 698 877 loadbang;
#X obj 446 976 outlet midinote;
#X obj 352 1020 outlet frequency;
#X obj 352 988 mtof;
#X obj 448 866 sel 0 1 2 3 4 5 6 7;
#X obj 912 783 sel 7;
#X obj 985 783 sel 6;
#X msg 48 440 0;
#X obj 48 489 spigot;
#X obj 87 453 tgl 32 0 empty empty empty 17 7 0 10 -262144 -1 -1 0
1;
#X obj 1248 266 s D;
#X obj 1139 266 s C;
#X obj 1195 266 s Db;
#X obj 1296 266 s Eb;
#X obj 1354 266 s E;
#X obj 1409 266 s F;
#X obj 1460 266 s Gb;
#X obj 1519 266 s G;
#X obj 1556 266 s Ab;
#X obj 1614 266 s A;
#X obj 1667 266 s Bb;
#X obj 1735 266 s B;
#X symbolatom 775 46 10 0 0 0 - - -;
#X obj 124 489 spigot;
#X obj 163 453 tgl 32 0 empty empty empty 17 7 0 10 -262144 -1 -1 0
1;
#X obj 87 432 r C;
#X obj 163 432 r Db;
#X obj 709 31 bng 15 250 50 0 empty empty empty 17 7 0 10 -262144 -1
-1;
#X msg 709 247 0;
#X obj 48 410 sel 0;
#X obj 124 410 sel 1;
#X obj 200 489 spigot;
#X obj 239 453 tgl 32 0 empty empty empty 17 7 0 10 -262144 -1 -1 0
1;
#X obj 276 489 spigot;
#X obj 315 453 tgl 32 0 empty empty empty 17 7 0 10 -262144 -1 -1 0
1;
#X obj 352 489 spigot;
#X obj 391 453 tgl 32 0 empty empty empty 17 7 0 10 -262144 -1 -1 0
1;
#X obj 428 489 spigot;
#X obj 467 453 tgl 32 0 empty empty empty 17 7 0 10 -262144 -1 -1 0
1;
#X obj 504 489 spigot;
#X obj 543 453 tgl 32 0 empty empty empty 17 7 0 10 -262144 -1 -1 0
1;
#X obj 580 489 spigot;
#X obj 619 453 tgl 32 0 empty empty empty 17 7 0 10 -262144 -1 -1 0
1;
#X obj 656 489 spigot;
#X obj 695 453 tgl 32 0 empty empty empty 17 7 0 10 -262144 -1 -1 0
1;
#X obj 732 489 spigot;
#X obj 771 453 tgl 32 0 empty empty empty 17 7 0 10 -262144 -1 -1 0
1;
#X obj 808 489 spigot;
#X obj 847 453 tgl 32 0 empty empty empty 17 7 0 10 -262144 -1 -1 0
1;
#X obj 884 489 spigot;
#X obj 923 453 tgl 32 0 empty empty empty 17 7 0 10 -262144 -1 -1 0
1;
#X obj 200 410 sel 2;
#X obj 276 410 sel 3;
#X obj 352 410 sel 4;
#X obj 428 410 sel 5;
#X obj 504 410 sel 6;
#X obj 580 410 sel 7;
#X obj 656 410 sel 8;
#X obj 732 410 sel 9;
#X obj 808 410 sel 10;
#X obj 884 410 sel 11;
#X obj 239 432 r D;
#X obj 315 432 r Eb;
#X obj 391 432 r E;
#X obj 467 432 r F;
#X obj 543 432 r Gb;
#X obj 619 432 r G;
#X obj 695 432 r Ab;
#X obj 771 432 r A;
#X obj 847 432 r Bb;
#X obj 923 432 r B;
#X msg 124 440 1;
#X msg 200 440 2;
#X msg 276 440 3;
#X msg 352 440 4;
#X msg 428 440 5;
#X msg 504 440 6;
#X msg 580 440 7;
#X msg 656 440 8;
#X msg 732 440 9;
#X msg 808 440 10;
#X msg 884 440 11;
#X obj 960 489 spigot;
#X obj 999 453 tgl 32 0 empty empty empty 17 7 0 10 -262144 -1 -1 0
1;
#X obj 1036 489 spigot;
#X obj 1075 453 tgl 32 0 empty empty empty 17 7 0 10 -262144 -1 -1
0 1;
#X obj 999 432 r C;
#X obj 1075 432 r Db;
#X obj 1112 489 spigot;
#X obj 1151 453 tgl 32 0 empty empty empty 17 7 0 10 -262144 -1 -1
0 1;
#X obj 1188 489 spigot;
#X obj 1227 453 tgl 32 0 empty empty empty 17 7 0 10 -262144 -1 -1
0 1;
#X obj 1264 489 spigot;
#X obj 1303 453 tgl 32 0 empty empty empty 17 7 0 10 -262144 -1 -1
0 1;
#X obj 1340 489 spigot;
#X obj 1379 453 tgl 32 0 empty empty empty 17 7 0 10 -262144 -1 -1
0 1;
#X obj 1416 489 spigot;
#X obj 1455 453 tgl 32 0 empty empty empty 17 7 0 10 -262144 -1 -1
0 1;
#X obj 1492 489 spigot;
#X obj 1531 453 tgl 32 0 empty empty empty 17 7 0 10 -262144 -1 -1
0 1;
#X obj 1568 489 spigot;
#X obj 1607 453 tgl 32 0 empty empty empty 17 7 0 10 -262144 -1 -1
0 1;
#X obj 1644 489 spigot;
#X obj 1683 453 tgl 32 0 empty empty empty 17 7 0 10 -262144 -1 -1
0 1;
#X obj 1720 489 spigot;
#X obj 1759 453 tgl 32 0 empty empty empty 17 7 0 10 -262144 -1 -1
0 1;
#X obj 1796 489 spigot;
#X obj 1835 453 tgl 32 0 empty empty empty 17 7 0 10 -262144 -1 -1
0 1;
#X obj 1151 432 r D;
#X obj 1227 432 r Eb;
#X obj 1303 432 r E;
#X obj 1379 432 r F;
#X obj 1455 432 r Gb;
#X obj 1531 432 r G;
#X obj 1607 432 r Ab;
#X obj 1683 432 r A;
#X obj 1759 432 r Bb;
#X obj 1835 432 r B;
#X obj 1872 489 spigot;
#X obj 1911 453 tgl 32 0 empty empty empty 17 7 0 10 -262144 -1 -1
0 1;
#X obj 1948 489 spigot;
#X obj 1987 453 tgl 32 0 empty empty empty 17 7 0 10 -262144 -1 -1
0 1;
#X obj 1911 432 r C;
#X obj 1987 432 r Db;
#X obj 2024 489 spigot;
#X obj 2063 453 tgl 32 0 empty empty empty 17 7 0 10 -262144 -1 -1
0 1;
#X obj 2100 489 spigot;
#X obj 2139 453 tgl 32 0 empty empty empty 17 7 0 10 -262144 -1 -1
0 1;
#X obj 2176 489 spigot;
#X obj 2215 453 tgl 32 0 empty empty empty 17 7 0 10 -262144 -1 -1
0 1;
#X obj 2252 489 spigot;
#X obj 2291 453 tgl 32 0 empty empty empty 17 7 0 10 -262144 -1 -1
0 1;
#X obj 2328 489 spigot;
#X obj 2367 453 tgl 32 0 empty empty empty 17 7 0 10 -262144 -1 -1
0 1;
#X obj 2404 489 spigot;
#X obj 2443 453 tgl 32 0 empty empty empty 17 7 0 10 -262144 -1 -1
0 1;
#X obj 2480 489 spigot;
#X obj 2519 453 tgl 32 0 empty empty empty 17 7 0 10 -262144 -1 -1
0 1;
#X obj 2556 489 spigot;
#X obj 2595 453 tgl 32 0 empty empty empty 17 7 0 10 -262144 -1 -1
0 1;
#X obj 2632 489 spigot;
#X obj 2671 453 tgl 32 0 empty empty empty 17 7 0 10 -262144 -1 -1
0 1;
#X obj 2708 489 spigot;
#X obj 2747 453 tgl 32 0 empty empty empty 17 7 0 10 -262144 -1 -1
0 1;
#X obj 2063 432 r D;
#X obj 2139 432 r Eb;
#X obj 2215 432 r E;
#X obj 2291 432 r F;
#X obj 2367 432 r Gb;
#X obj 2443 432 r G;
#X obj 2519 432 r Ab;
#X obj 2595 432 r A;
#X obj 2671 432 r Bb;
#X obj 2747 432 r B;
#X obj 2784 489 spigot;
#X obj 2823 453 tgl 32 0 empty empty empty 17 7 0 10 -262144 -1 -1
0 1;
#X obj 2860 489 spigot;
#X obj 2899 453 tgl 32 0 empty empty empty 17 7 0 10 -262144 -1 -1
0 1;
#X obj 2823 432 r C;
#X obj 2899 432 r Db;
#X obj 2936 489 spigot;
#X obj 2975 453 tgl 32 0 empty empty empty 17 7 0 10 -262144 -1 -1
0 1;
#X obj 3012 489 spigot;
#X obj 3051 453 tgl 32 0 empty empty empty 17 7 0 10 -262144 -1 -1
0 1;
#X obj 3088 489 spigot;
#X obj 3127 453 tgl 32 0 empty empty empty 17 7 0 10 -262144 -1 -1
0 1;
#X obj 3164 489 spigot;
#X obj 3203 453 tgl 32 0 empty empty empty 17 7 0 10 -262144 -1 -1
0 1;
#X obj 3240 489 spigot;
#X obj 3279 453 tgl 32 0 empty empty empty 17 7 0 10 -262144 -1 -1
0 1;
#X obj 3316 489 spigot;
#X obj 3355 453 tgl 32 0 empty empty empty 17 7 0 10 -262144 -1 -1
0 1;
#X obj 3392 489 spigot;
#X obj 3431 453 tgl 32 0 empty empty empty 17 7 0 10 -262144 -1 -1
0 1;
#X obj 3468 489 spigot;
#X obj 3507 453 tgl 32 0 empty empty empty 17 7 0 10 -262144 -1 -1
0 1;
#X obj 3544 489 spigot;
#X obj 3583 453 tgl 32 0 empty empty empty 17 7 0 10 -262144 -1 -1
0 1;
#X obj 3620 489 spigot;
#X obj 3659 453 tgl 32 0 empty empty empty 17 7 0 10 -262144 -1 -1
0 1;
#X obj 2975 432 r D;
#X obj 3051 432 r Eb;
#X obj 3127 432 r E;
#X obj 3203 432 r F;
#X obj 3279 432 r Gb;
#X obj 3355 432 r G;
#X obj 3431 432 r Ab;
#X obj 3507 432 r A;
#X obj 3583 432 r Bb;
#X obj 3659 432 r B;
#X obj 960 410 sel 12;
#X msg 960 440 12;
#X obj 1036 410 sel 13;
#X msg 1036 440 13;
#X obj 1112 410 sel 14;
#X msg 1112 440 14;
#X obj 1188 410 sel 15;
#X msg 1188 440 15;
#X obj 1264 410 sel 16;
#X msg 1264 440 16;
#X obj 1340 410 sel 17;
#X msg 1340 440 17;
#X obj 1416 410 sel 18;
#X msg 1416 440 18;
#X obj 1492 410 sel 19;
#X msg 1492 440 19;
#X obj 1568 410 sel 20;
#X msg 1568 440 20;
#X obj 1644 410 sel 21;
#X msg 1644 440 21;
#X obj 1720 410 sel 22;
#X msg 1720 440 22;
#X obj 1796 410 sel 23;
#X msg 1796 440 23;
#X obj 1872 410 sel 24;
#X msg 1872 440 24;
#X obj 1948 410 sel 25;
#X msg 1948 440 25;
#X obj 2024 410 sel 26;
#X msg 2024 440 26;
#X obj 2100 410 sel 27;
#X msg 2100 440 27;
#X obj 2176 410 sel 28;
#X msg 2176 440 28;
#X obj 2252 410 sel 29;
#X msg 2252 440 29;
#X obj 2328 410 sel 30;
#X msg 2328 440 30;
#X obj 2404 410 sel 31;
#X msg 2404 440 31;
#X obj 2480 410 sel 32;
#X msg 2480 440 32;
#X obj 2556 410 sel 33;
#X msg 2556 440 33;
#X obj 2632 410 sel 34;
#X msg 2632 440 34;
#X obj 2708 410 sel 35;
#X msg 2708 440 35;
#X obj 2784 410 sel 36;
#X msg 2784 440 36;
#X obj 2860 410 sel 37;
#X msg 2860 440 37;
#X obj 2936 410 sel 38;
#X msg 2936 440 38;
#X obj 3012 410 sel 39;
#X msg 3012 440 39;
#X obj 3088 410 sel 40;
#X msg 3088 440 40;
#X obj 3164 410 sel 41;
#X msg 3164 440 41;
#X obj 3240 410 sel 42;
#X msg 3240 440 42;
#X obj 3316 410 sel 43;
#X msg 3316 440 43;
#X obj 3392 410 sel 44;
#X msg 3392 440 44;
#X obj 3468 410 sel 45;
#X msg 3468 440 45;
#X obj 3544 410 sel 46;
#X msg 3544 440 46;
#X obj 3620 410 sel 47;
#X msg 3620 440 47;
#X obj 3696 489 spigot;
#X obj 3735 453 tgl 32 0 empty empty empty 17 7 0 10 -262144 -1 -1
0 1;
#X obj 3772 489 spigot;
#X obj 3811 453 tgl 32 0 empty empty empty 17 7 0 10 -262144 -1 -1
0 1;
#X obj 3735 432 r C;
#X obj 3811 432 r Db;
#X obj 3848 489 spigot;
#X obj 3887 453 tgl 32 0 empty empty empty 17 7 0 10 -262144 -1 -1
0 1;
#X obj 3924 489 spigot;
#X obj 3963 453 tgl 32 0 empty empty empty 17 7 0 10 -262144 -1 -1
0 1;
#X obj 4000 489 spigot;
#X obj 4039 453 tgl 32 0 empty empty empty 17 7 0 10 -262144 -1 -1
0 1;
#X obj 4076 489 spigot;
#X obj 4115 453 tgl 32 0 empty empty empty 17 7 0 10 -262144 -1 -1
0 1;
#X obj 4152 489 spigot;
#X obj 4191 453 tgl 32 0 empty empty empty 17 7 0 10 -262144 -1 -1
0 1;
#X obj 4228 489 spigot;
#X obj 4267 453 tgl 32 0 empty empty empty 17 7 0 10 -262144 -1 -1
0 1;
#X obj 4304 489 spigot;
#X obj 4343 453 tgl 32 0 empty empty empty 17 7 0 10 -262144 -1 -1
0 1;
#X obj 4380 489 spigot;
#X obj 4419 453 tgl 32 0 empty empty empty 17 7 0 10 -262144 -1 -1
0 1;
#X obj 4456 489 spigot;
#X obj 4495 453 tgl 32 0 empty empty empty 17 7 0 10 -262144 -1 -1
0 1;
#X obj 4532 489 spigot;
#X obj 4571 453 tgl 32 0 empty empty empty 17 7 0 10 -262144 -1 -1
0 1;
#X obj 3887 432 r D;
#X obj 3963 432 r Eb;
#X obj 4039 432 r E;
#X obj 4115 432 r F;
#X obj 4191 432 r Gb;
#X obj 4267 432 r G;
#X obj 4343 432 r Ab;
#X obj 4419 432 r A;
#X obj 4495 432 r Bb;
#X obj 4571 432 r B;
#X obj 3696 410 sel 48;
#X msg 3696 440 48;
#X obj 3772 410 sel 49;
#X msg 3772 440 49;
#X obj 3848 410 sel 50;
#X msg 3848 440 50;
#X obj 3924 410 sel 51;
#X msg 3924 440 51;
#X obj 4000 410 sel 52;
#X msg 4000 440 52;
#X obj 4076 410 sel 53;
#X msg 4076 440 53;
#X obj 4152 410 sel 54;
#X msg 4152 440 54;
#X obj 4228 410 sel 55;
#X msg 4228 440 55;
#X obj 4304 410 sel 56;
#X msg 4304 440 56;
#X obj 4380 410 sel 57;
#X msg 4380 440 57;
#X obj 4456 410 sel 58;
#X msg 4456 440 58;
#X obj 4532 410 sel 59;
#X msg 4532 440 59;
#X floatatom 352 547 5 0 0 0 - - -;
#X text 2287 1757 This has to be wildly inefficient;
#X text 387 788 This sets what octave we are in by changing how much
is added to the base number that is taken from the [random] box up
above. Kinda like an octave select on an oscillator., f 35;
#X text 2296 80 This is a mess \, but I promise it works. It may work
somewhat temperamentally \, but it still works. It does it by taking
in a "symbol" of the key signature \, which you type into a symbol
box and send into the [inlet]. First off \, the bang from the symbol
box clears out the send boxes. Then the select object takes the typed
in key and matches it to the key in the list. That key's outlet is
connected to all the notes in the scale (through the send boxes) \,
which then get a bang from the select box. The sends are all attached
to spigots after the random number generator. The sends from the scale
you selected are then turned on (due to the select boxes bang) so only
your selected notes are let through. It's very convoluted and definitely
not efficient \, but it works.;
#X connect 0 0 69 0;
#X connect 0 0 71 0;
#X connect 0 0 62 0;
#X connect 0 0 60 0;
#X connect 0 0 64 0;
#X connect 0 0 66 0;
#X connect 0 0 68 0;
#X connect 0 1 69 0;
#X connect 0 1 71 0;
#X connect 0 1 61 0;
#X connect 0 1 60 0;
#X connect 0 1 64 0;
#X connect 0 1 65 0;
#X connect 0 1 67 0;
#X connect 0 2 70 0;
#X connect 0 2 61 0;
#X connect 0 2 60 0;
#X connect 0 2 63 0;
#X connect 0 2 65 0;
#X connect 0 2 67 0;
#X connect 0 2 69 0;
#X connect 0 3 70 0;
#X connect 0 3 61 0;
#X connect 0 3 62 0;
#X connect 0 3 63 0;
#X connect 0 3 65 0;
#X connect 0 3 66 0;
#X connect 0 3 68 0;
#X connect 0 4 71 0;
#X connect 0 4 62 0;
#X connect 0 4 63 0;
#X connect 0 4 64 0;
#X connect 0 4 66 0;
#X connect 0 4 68 0;
#X connect 0 4 70 0;
#X connect 0 5 71 0;
#X connect 0 5 62 0;
#X connect 0 5 60 0;
#X connect 0 5 64 0;
#X connect 0 5 66 0;
#X connect 0 5 67 0;
#X connect 0 5 69 0;
#X connect 0 6 61 0;
#X connect 0 6 60 0;
#X connect 0 6 64 0;
#X connect 0 6 65 0;
#X connect 0 6 67 0;
#X connect 0 6 69 0;
#X connect 0 6 71 0;
#X connect 0 7 61 0;
#X connect 0 7 60 0;
#X connect 0 7 63 0;
#X connect 0 7 65 0;
#X connect 0 7 67 0;
#X connect 0 7 68 0;
#X connect 0 7 70 0;
#X connect 0 8 62 0;
#X connect 0 8 63 0;
#X connect 0 8 65 0;
#X connect 0 8 66 0;
#X connect 0 8 68 0;
#X connect 0 8 70 0;
#X connect 0 8 61 0;
#X connect 0 9 62 0;
#X connect 0 9 71 0;
#X connect 0 9 69 0;
#X connect 0 9 68 0;
#X connect 0 9 66 0;
#X connect 0 9 64 0;
#X connect 0 9 63 0;
#X connect 0 10 60 0;
#X connect 0 10 62 0;
#X connect 0 10 71 0;
#X connect 0 10 69 0;
#X connect 0 10 67 0;
#X connect 0 10 66 0;
#X connect 0 10 64 0;
#X connect 0 11 60 0;
#X connect 0 11 61 0;
#X connect 0 11 70 0;
#X connect 0 11 69 0;
#X connect 0 11 67 0;
#X connect 0 11 65 0;
#X connect 0 11 64 0;
#X connect 0 12 68 0;
#X connect 0 12 60 0;
#X connect 0 12 61 0;
#X connect 0 12 70 0;
#X connect 0 12 67 0;
#X connect 0 12 65 0;
#X connect 0 12 63 0;
#X connect 0 13 68 0;
#X connect 0 13 62 0;
#X connect 0 13 71 0;
#X connect 0 13 70 0;
#X connect 0 13 66 0;
#X connect 0 13 65 0;
#X connect 0 13 63 0;
#X connect 0 14 69 0;
#X connect 0 14 63 0;
#X connect 0 14 62 0;
#X connect 0 14 71 0;
#X connect 0 14 68 0;
#X connect 0 14 66 0;
#X connect 0 14 64 0;
#X connect 0 15 71 0;
#X connect 0 15 60 0;
#X connect 0 15 61 0;
#X connect 0 15 69 0;
#X connect 0 15 67 0;
#X connect 0 15 66 0;
#X connect 0 15 64 0;
#X connect 0 16 70 0;
#X connect 0 16 64 0;
#X connect 0 16 60 0;
#X connect 0 16 61 0;
#X connect 0 16 69 0;
#X connect 0 16 67 0;
#X connect 0 16 65 0;
#X connect 0 17 70 0;
#X connect 0 17 63 0;
#X connect 0 17 62 0;
#X connect 0 17 61 0;
#X connect 0 17 68 0;
#X connect 0 17 67 0;
#X connect 0 17 65 0;
#X connect 0 18 71 0;
#X connect 0 18 65 0;
#X connect 0 18 63 0;
#X connect 0 18 62 0;
#X connect 0 18 70 0;
#X connect 0 18 68 0;
#X connect 0 18 66 0;
#X connect 0 19 71 0;
#X connect 0 19 64 0;
#X connect 0 19 60 0;
#X connect 0 19 62 0;
#X connect 0 19 69 0;
#X connect 0 19 68 0;
#X connect 0 19 66 0;
#X connect 0 20 69 0;
#X connect 0 20 66 0;
#X connect 0 20 64 0;
#X connect 0 20 60 0;
#X connect 0 20 61 0;
#X connect 0 20 71 0;
#X connect 0 20 67 0;
#X connect 0 21 70 0;
#X connect 0 21 65 0;
#X connect 0 21 63 0;
#X connect 0 21 60 0;
#X connect 0 21 61 0;
#X connect 0 21 69 0;
#X connect 0 21 67 0;
#X connect 0 22 68 0;
#X connect 0 22 67 0;
#X connect 0 22 65 0;
#X connect 0 22 63 0;
#X connect 0 22 62 0;
#X connect 0 22 61 0;
#X connect 0 22 70 0;
#X connect 0 23 70 0;
#X connect 0 23 66 0;
#X connect 0 23 64 0;
#X connect 0 23 63 0;
#X connect 0 23 62 0;
#X connect 0 23 71 0;
#X connect 0 23 68 0;
#X connect 1 0 6 0;
#X connect 2 0 77 0;
#X connect 2 0 72 0;
#X connect 3 0 17 0;
#X connect 4 0 34 0;
#X connect 5 0 79 0;
#X connect 5 0 80 0;
#X connect 5 0 103 0;
#X connect 5 0 110 0;
#X connect 5 0 109 0;
#X connect 5 0 108 0;
#X connect 5 0 107 0;
#X connect 5 0 106 0;
#X connect 5 0 105 0;
#X connect 5 0 104 0;
#X connect 5 0 102 0;
#X connect 5 0 101 0;
#X connect 5 0 240 0;
#X connect 5 0 262 0;
#X connect 5 0 260 0;
#X connect 5 0 258 0;
#X connect 5 0 256 0;
#X connect 5 0 254 0;
#X connect 5 0 252 0;
#X connect 5 0 250 0;
#X connect 5 0 248 0;
#X connect 5 0 246 0;
#X connect 5 0 244 0;
#X connect 5 0 242 0;
#X connect 5 0 292 0;
#X connect 5 0 290 0;
#X connect 5 0 288 0;
#X connect 5 0 286 0;
#X connect 5 0 284 0;
#X connect 5 0 282 0;
#X connect 5 0 280 0;
#X connect 5 0 278 0;
#X connect 5 0 276 0;
#X connect 5 0 274 0;
#X connect 5 0 272 0;
#X connect 5 0 270 0;
#X connect 5 0 268 0;
#X connect 5 0 266 0;
#X connect 5 0 264 0;
#X connect 5 0 370 0;
#X connect 5 0 368 0;
#X connect 5 0 366 0;
#X connect 5 0 364 0;
#X connect 5 0 362 0;
#X connect 5 0 360 0;
#X connect 5 0 358 0;
#X connect 5 0 356 0;
#X connect 5 0 354 0;
#X connect 5 0 352 0;
#X connect 5 0 350 0;
#X connect 5 0 348 0;
#X connect 5 0 310 0;
#X connect 5 0 308 0;
#X connect 5 0 306 0;
#X connect 5 0 304 0;
#X connect 5 0 302 0;
#X connect 5 0 300 0;
#X connect 5 0 298 0;
#X connect 5 0 296 0;
#X connect 5 0 294 0;
#X connect 6 0 9 0;
#X connect 7 0 51 0;
#X connect 7 0 53 0;
#X connect 8 0 7 0;
#X connect 9 0 5 0;
#X connect 10 0 16 0;
#X connect 11 0 9 1;
#X connect 12 0 9 1;
#X connect 13 0 9 1;
#X connect 14 0 9 1;
#X connect 15 0 9 1;
#X connect 16 0 11 0;
#X connect 16 1 12 0;
#X connect 16 2 13 0;
#X connect 16 3 14 0;
#X connect 16 4 15 0;
#X connect 17 0 18 0;
#X connect 18 0 10 0;
#X connect 19 0 8 1;
#X connect 20 0 8 1;
#X connect 21 0 8 1;
#X connect 22 0 8 1;
#X connect 23 0 8 1;
#X connect 24 0 35 0;
#X connect 25 0 26 0;
#X connect 26 0 25 1;
#X connect 26 0 28 0;
#X connect 26 0 40 0;
#X connect 26 0 42 0;
#X connect 26 0 44 0;
#X connect 26 0 55 0;
#X connect 27 0 25 0;
#X connect 28 0 30 0;
#X connect 29 0 25 0;
#X connect 30 0 54 0;
#X connect 31 0 8 1;
#X connect 32 0 8 1;
#X connect 33 0 8 1;
#X connect 34 0 37 0;
#X connect 35 0 36 0;
#X connect 36 0 29 0;
#X connect 37 0 27 0;
#X connect 38 0 36 1;
#X connect 39 0 40 1;
#X connect 40 0 56 0;
#X connect 41 0 38 0;
#X connect 42 0 43 0;
#X connect 42 0 45 0;
#X connect 43 0 37 1;
#X connect 44 0 46 0;
#X connect 45 0 44 1;
#X connect 46 0 45 0;
#X connect 46 0 43 0;
#X connect 50 0 22 0;
#X connect 53 0 52 0;
#X connect 54 0 19 0;
#X connect 54 1 20 0;
#X connect 54 2 21 0;
#X connect 54 3 22 0;
#X connect 54 4 23 0;
#X connect 54 5 31 0;
#X connect 54 6 32 0;
#X connect 54 7 33 0;
#X connect 55 0 38 0;
#X connect 55 0 39 0;
#X connect 56 0 38 0;
#X connect 56 0 39 0;
#X connect 57 0 58 0;
#X connect 58 0 372 0;
#X connect 59 0 58 1;
#X connect 72 0 0 0;
#X connect 73 0 372 0;
#X connect 74 0 73 1;
#X connect 75 0 59 0;
#X connect 76 0 74 0;
#X connect 77 0 78 0;
#X connect 78 0 61 0;
#X connect 78 0 71 0;
#X connect 78 0 70 0;
#X connect 78 0 69 0;
#X connect 78 0 68 0;
#X connect 78 0 67 0;
#X connect 78 0 66 0;
#X connect 78 0 65 0;
#X connect 78 0 64 0;
#X connect 78 0 63 0;
#X connect 78 0 62 0;
#X connect 78 0 60 0;
#X connect 79 0 57 0;
#X connect 80 0 121 0;
#X connect 81 0 372 0;
#X connect 82 0 81 1;
#X connect 83 0 372 0;
#X connect 84 0 83 1;
#X connect 85 0 372 0;
#X connect 86 0 85 1;
#X connect 87 0 372 0;
#X connect 88 0 87 1;
#X connect 89 0 372 0;
#X connect 90 0 89 1;
#X connect 91 0 372 0;
#X connect 92 0 91 1;
#X connect 93 0 372 0;
#X connect 94 0 93 1;
#X connect 95 0 372 0;
#X connect 96 0 95 1;
#X connect 97 0 372 0;
#X connect 98 0 97 1;
#X connect 99 0 372 0;
#X connect 100 0 99 1;
#X connect 101 0 122 0;
#X connect 102 0 123 0;
#X connect 103 0 124 0;
#X connect 104 0 125 0;
#X connect 105 0 126 0;
#X connect 106 0 127 0;
#X connect 107 0 128 0;
#X connect 108 0 129 0;
#X connect 109 0 130 0;
#X connect 110 0 131 0;
#X connect 111 0 82 0;
#X connect 112 0 84 0;
#X connect 113 0 86 0;
#X connect 114 0 88 0;
#X connect 115 0 90 0;
#X connect 116 0 92 0;
#X connect 117 0 94 0;
#X connect 118 0 96 0;
#X connect 119 0 98 0;
#X connect 120 0 100 0;
#X connect 121 0 73 0;
#X connect 122 0 81 0;
#X connect 123 0 83 0;
#X connect 124 0 85 0;
#X connect 125 0 87 0;
#X connect 126 0 89 0;
#X connect 127 0 91 0;
#X connect 128 0 93 0;
#X connect 129 0 95 0;
#X connect 130 0 97 0;
#X connect 131 0 99 0;
#X connect 132 0 372 0;
#X connect 133 0 132 1;
#X connect 134 0 372 0;
#X connect 135 0 134 1;
#X connect 136 0 133 0;
#X connect 137 0 135 0;
#X connect 138 0 372 0;
#X connect 139 0 138 1;
#X connect 140 0 372 0;
#X connect 141 0 140 1;
#X connect 142 0 372 0;
#X connect 143 0 142 1;
#X connect 144 0 372 0;
#X connect 145 0 144 1;
#X connect 146 0 372 0;
#X connect 147 0 146 1;
#X connect 148 0 372 0;
#X connect 149 0 148 1;
#X connect 150 0 372 0;
#X connect 151 0 150 1;
#X connect 152 0 372 0;
#X connect 153 0 152 1;
#X connect 154 0 372 0;
#X connect 155 0 154 1;
#X connect 156 0 372 0;
#X connect 157 0 156 1;
#X connect 158 0 139 0;
#X connect 159 0 141 0;
#X connect 160 0 143 0;
#X connect 161 0 145 0;
#X connect 162 0 147 0;
#X connect 163 0 149 0;
#X connect 164 0 151 0;
#X connect 165 0 153 0;
#X connect 166 0 155 0;
#X connect 167 0 157 0;
#X connect 168 0 372 0;
#X connect 169 0 168 1;
#X connect 170 0 372 0;
#X connect 171 0 170 1;
#X connect 172 0 169 0;
#X connect 173 0 171 0;
#X connect 174 0 372 0;
#X connect 175 0 174 1;
#X connect 176 0 372 0;
#X connect 177 0 176 1;
#X connect 178 0 372 0;
#X connect 179 0 178 1;
#X connect 180 0 372 0;
#X connect 181 0 180 1;
#X connect 182 0 372 0;
#X connect 183 0 182 1;
#X connect 184 0 372 0;
#X connect 185 0 184 1;
#X connect 186 0 372 0;
#X connect 187 0 186 1;
#X connect 188 0 372 0;
#X connect 189 0 188 1;
#X connect 190 0 372 0;
#X connect 191 0 190 1;
#X connect 192 0 372 0;
#X connect 193 0 192 1;
#X connect 194 0 175 0;
#X connect 195 0 177 0;
#X connect 196 0 179 0;
#X connect 197 0 181 0;
#X connect 198 0 183 0;
#X connect 199 0 185 0;
#X connect 200 0 187 0;
#X connect 201 0 189 0;
#X connect 202 0 191 0;
#X connect 203 0 193 0;
#X connect 204 0 372 0;
#X connect 205 0 204 1;
#X connect 206 0 372 0;
#X connect 207 0 206 1;
#X connect 208 0 205 0;
#X connect 209 0 207 0;
#X connect 210 0 372 0;
#X connect 211 0 210 1;
#X connect 212 0 372 0;
#X connect 213 0 212 1;
#X connect 214 0 372 0;
#X connect 215 0 214 1;
#X connect 216 0 372 0;
#X connect 217 0 216 1;
#X connect 218 0 372 0;
#X connect 219 0 218 1;
#X connect 220 0 372 0;
#X connect 221 0 220 1;
#X connect 222 0 372 0;
#X connect 223 0 222 1;
#X connect 224 0 372 0;
#X connect 225 0 224 1;
#X connect 226 0 372 0;
#X connect 227 0 226 1;
#X connect 228 0 372 0;
#X connect 229 0 228 1;
#X connect 230 0 211 0;
#X connect 231 0 213 0;
#X connect 232 0 215 0;
#X connect 233 0 217 0;
#X connect 234 0 219 0;
#X connect 235 0 221 0;
#X connect 236 0 223 0;
#X connect 237 0 225 0;
#X connect 238 0 227 0;
#X connect 239 0 229 0;
#X connect 240 0 241 0;
#X connect 241 0 132 0;
#X connect 242 0 243 0;
#X connect 243 0 134 0;
#X connect 244 0 245 0;
#X connect 245 0 138 0;
#X connect 246 0 247 0;
#X connect 247 0 140 0;
#X connect 248 0 249 0;
#X connect 249 0 142 0;
#X connect 250 0 251 0;
#X connect 251 0 144 0;
#X connect 252 0 253 0;
#X connect 253 0 146 0;
#X connect 254 0 255 0;
#X connect 255 0 148 0;
#X connect 256 0 257 0;
#X connect 257 0 150 0;
#X connect 258 0 259 0;
#X connect 259 0 152 0;
#X connect 260 0 261 0;
#X connect 261 0 154 0;
#X connect 262 0 263 0;
#X connect 263 0 156 0;
#X connect 264 0 265 0;
#X connect 265 0 168 0;
#X connect 266 0 267 0;
#X connect 267 0 170 0;
#X connect 268 0 269 0;
#X connect 269 0 174 0;
#X connect 270 0 271 0;
#X connect 271 0 176 0;
#X connect 272 0 273 0;
#X connect 273 0 178 0;
#X connect 274 0 275 0;
#X connect 275 0 180 0;
#X connect 276 0 277 0;
#X connect 277 0 182 0;
#X connect 278 0 279 0;
#X connect 279 0 184 0;
#X connect 280 0 281 0;
#X connect 281 0 186 0;
#X connect 282 0 283 0;
#X connect 283 0 188 0;
#X connect 284 0 285 0;
#X connect 285 0 190 0;
#X connect 286 0 287 0;
#X connect 287 0 192 0;
#X connect 288 0 289 0;
#X connect 289 0 204 0;
#X connect 290 0 291 0;
#X connect 291 0 206 0;
#X connect 292 0 293 0;
#X connect 293 0 210 0;
#X connect 294 0 295 0;
#X connect 295 0 212 0;
#X connect 296 0 297 0;
#X connect 297 0 214 0;
#X connect 298 0 299 0;
#X connect 299 0 216 0;
#X connect 300 0 301 0;
#X connect 301 0 218 0;
#X connect 302 0 303 0;
#X connect 303 0 220 0;
#X connect 304 0 305 0;
#X connect 305 0 222 0;
#X connect 306 0 307 0;
#X connect 307 0 224 0;
#X connect 308 0 309 0;
#X connect 309 0 226 0;
#X connect 310 0 311 0;
#X connect 311 0 228 0;
#X connect 312 0 372 0;
#X connect 313 0 312 1;
#X connect 314 0 372 0;
#X connect 315 0 314 1;
#X connect 316 0 313 0;
#X connect 317 0 315 0;
#X connect 318 0 372 0;
#X connect 319 0 318 1;
#X connect 320 0 372 0;
#X connect 321 0 320 1;
#X connect 322 0 372 0;
#X connect 323 0 322 1;
#X connect 324 0 372 0;
#X connect 325 0 324 1;
#X connect 326 0 372 0;
#X connect 327 0 326 1;
#X connect 328 0 372 0;
#X connect 329 0 328 1;
#X connect 330 0 372 0;
#X connect 331 0 330 1;
#X connect 332 0 372 0;
#X connect 333 0 332 1;
#X connect 334 0 372 0;
#X connect 335 0 334 1;
#X connect 336 0 372 0;
#X connect 337 0 336 1;
#X connect 338 0 319 0;
#X connect 339 0 321 0;
#X connect 340 0 323 0;
#X connect 341 0 325 0;
#X connect 342 0 327 0;
#X connect 343 0 329 0;
#X connect 344 0 331 0;
#X connect 345 0 333 0;
#X connect 346 0 335 0;
#X connect 347 0 337 0;
#X connect 348 0 349 0;
#X connect 349 0 312 0;
#X connect 350 0 351 0;
#X connect 351 0 314 0;
#X connect 352 0 353 0;
#X connect 353 0 318 0;
#X connect 354 0 355 0;
#X connect 355 0 320 0;
#X connect 356 0 357 0;
#X connect 357 0 322 0;
#X connect 358 0 359 0;
#X connect 359 0 324 0;
#X connect 360 0 361 0;
#X connect 361 0 326 0;
#X connect 362 0 363 0;
#X connect 363 0 328 0;
#X connect 364 0 365 0;
#X connect 365 0 330 0;
#X connect 366 0 367 0;
#X connect 367 0 332 0;
#X connect 368 0 369 0;
#X connect 369 0 334 0;
#X connect 370 0 371 0;
#X connect 371 0 336 0;
#X connect 372 0 8 0;
#X restore 171 2453 pd randompitch;
#X floatatom 171 2500 5 0 0 0 - - -;
#X obj 171 2404 bng 15 250 50 0 empty empty empty 17 7 0 10 -262144
-1 -1;
#X floatatom 194 2403 5 1 5 0 - - -;
#X floatatom 266 2499 5 0 0 0 - - -;
#X obj 171 2592 osc~;
#X obj 171 2655 dac~;
#X obj 242 2403 bng 15 250 50 0 empty empty empty 17 7 0 10 -262144
-1 -1;
#X obj 266 2403 bng 15 250 50 0 empty empty empty 17 7 0 10 -262144
-1 -1;
#X obj 171 2622 *~ 0.5;
#X symbolatom 218 2350 10 0 0 0 - - -;
#X text 423 2452 ------------------------------------------------------------
;
#X text 425 2612 ------------------------------------------------------------
;
#X text 435 2477 1st inlet - Bang to trigger randomization;
#X text 435 2503 2nd inlet - Number of octaves in random pool (1-5)
;
#X text 435 2530 3rd inlet - Key of randomization;
#X text 433 2344 This is a semi-complicated pitch randomizer. It is
triggered by a bang and has the ability to set key \, octave it is
randomizing in \, and how many octaves you want to choose from. For
choosing the key \, it must be typed into the symbol box using this
structure: amajor \, cminor \, dflatmajor \, eflatminor. And always
use flats for enharmonics. No sharps allowed., f 54;
#X text 435 2557 4th inlet - Bang to decrease base random octave;
#X text 435 2585 5th inlet - Bang to increase base random octave;
#X text 436 2639 1st outlet - Raw frequency number;
#X text 437 2667 2nd outlet - MIDI note number;
#X text 53 2707 ------------------------------------------------------------
;
#X text 473 2707 ------------------------------------------------------------
;
#X connect 0 0 91 0;
#X connect 1 0 91 1;
#X connect 2 0 91 2;
#X connect 3 0 5 0;
#X connect 3 0 5 1;
#X connect 4 0 3 1;
#X connect 6 0 11 0;
#X connect 6 0 11 1;
#X connect 7 0 6 1;
#X connect 8 0 92 1;
#X connect 9 0 92 0;
#X connect 10 0 92 2;
#X connect 18 0 92 3;
#X connect 19 0 92 4;
#X connect 23 0 93 0;
#X connect 24 0 93 1;
#X connect 25 0 93 2;
#X connect 26 0 93 3;
#X connect 27 0 29 0;
#X connect 27 0 29 1;
#X connect 28 0 27 1;
#X connect 33 0 36 0;
#X connect 36 0 34 0;
#X connect 75 0 36 1;
#X connect 75 0 82 0;
#X connect 76 0 75 0;
#X connect 77 0 76 0;
#X connect 78 0 79 0;
#X connect 79 0 81 0;
#X connect 79 0 81 1;
#X connect 80 0 79 1;
#X connect 82 0 78 0;
#X connect 83 0 85 0;
#X connect 83 0 85 1;
#X connect 84 0 83 1;
#X connect 86 0 94 0;
#X connect 90 0 102 0;
#X connect 91 0 3 0;
#X connect 92 0 6 0;
#X connect 93 0 27 0;
#X connect 94 0 83 0;
#X connect 102 0 104 0;
#X connect 102 0 104 1;
#X connect 103 0 102 1;
#X connect 105 0 90 0;
#X connect 106 0 90 1;
#X connect 110 0 124 1;
#X connect 110 1 125 0;
#X connect 119 0 110 0;
#X connect 120 0 110 1;
#X connect 121 0 110 2;
#X connect 122 0 110 3;
#X connect 124 0 131 0;
#X connect 124 0 131 1;
#X connect 127 0 128 0;
#X connect 128 0 124 0;
#X connect 132 0 133 0;
#X connect 132 1 136 0;
#X connect 133 0 137 0;
#X connect 134 0 132 0;
#X connect 135 0 132 1;
#X connect 137 0 141 0;
#X connect 139 0 132 3;
#X connect 140 0 132 4;
#X connect 141 0 138 0;
#X connect 141 0 138 1;
#X connect 142 0 132 2;
