#N canvas 106 106 1041 661 12;
#X obj 619 259 basictape~;
#X obj 721 74 bng 15 250 50 0 empty empty load 17 7 0 10 -262144 -1
-1;
#X obj 670 74 tgl 15 0 empty empty loop 17 7 0 10 -262144 -1 -1 0 1
;
#X obj 619 74 tgl 15 0 empty empty play 17 7 0 10 -262144 -1 -1 0 1
;
#X obj 899 153 tgl 15 0 empty empty on/off 17 7 0 10 -262144 -1 -1
0 1;
#X msg 899 178 \; pd dsp \$1;
#X obj 619 598 dac~;
#X obj 619 569 *~;
#X obj 640 539 hsl 128 15 0 1 0 0 empty empty Master_Volume -2 -8 0
10 -262144 -1 -1 0 1;
#X obj 619 99 fileplay~, f 15;
#X text 772 69 2 - Load a file here to be played, f 17;
#X text 616 28 4 - Click the play toggle to play the file, f 23;
#X text 892 130 1 - Turn on dsp;
#X text 778 531 3 - Turn up the master volume slider to desired level
, f 29;
#X text 114 587 Created by Dominic Frugoli - January 2023;
#X text 835 378 5 - Mess with controls to hear different settings,
f 26;
#X text 17 102 ------------------------------------------------------------------------------
, f 79;
#X text 17 395 ------------------------------------------------------------------------------
, f 79;
#X text 17 451 ------------------------------------------------------------------------------
, f 79;
#X text 17 521 ------------------------------------------------------------------------------
, f 79;
#X text 17 472 GUI - This abstraction has a graph on parent option
that has sliders for all the parameters. The sliders are set for the
typical ranges \, but the inlets will remain so any number can still
be fed through the inlets if needed., f 79;
#X text 17 70 basictape~ - A basic tape-style delay using a variable
delay line to add modulation and a low pass filter to degrade the repeats
over time., f 79;
#X text 17 123 1st inlet~ - Audio In - Takes a mono signal input for
the delay., f 79;
#X text 17 195 3rd inlet - Feedback/Repeats - Takes a number between
0 and 1 that sets the attenuation factor of the feedback line. Numbers
closer to 0 will result in less repeats \, numbers closer to 1 will
result in more repeats \, and 1 will result in infinite delay times.
Be careful of infinite gain when using the delay in infinite delay
mode. Negative numbers will work and will result in a polarity flipping
delay., f 79;
#X text 17 146 2nd inlet - Delay Time - Takes a number between 0 and
2000 that sets the time of the delay in ms. Moving the slider while
the delay is running will result in the pitch shifting and feeding
back into itself., f 79;
#X text 17 287 4th inlet - Filter Cutoff - Takes a number between 0
and 2000 to set the cutoff frequency of the delay line filter., f
79;
#X floatatom 657 148 5 0 0 1 Time - -;
#X floatatom 696 170 5 0 0 1 Feedback - -;
#X floatatom 734 194 5 0 0 1 Filtering - -;
#X floatatom 773 216 5 0 0 1 Rate - -;
#X floatatom 812 237 5 0 0 1 Depth - -;
#X text 17 51 ------------------------------------------------------------------------------
, f 79;
#X text 17 360 6th inlet - Modulation Depth - Takes a positive number
that sets the amplitude of the modulation oscillator. 0 will result
in no modulation., f 79;
#X text 17 416 1st outlet~ -Audio Out - This is the audio output for
the wet signal. It will output in mono., f 79;
#X text 17 324 5th inlet - Modulation Rate - Take a positive number
that sets the frequency of the modulation oscillator., f 79;
#X connect 0 0 7 0;
#X connect 1 0 9 2;
#X connect 2 0 9 1;
#X connect 3 0 9 0;
#X connect 4 0 5 0;
#X connect 7 0 6 0;
#X connect 7 0 6 1;
#X connect 8 0 7 1;
#X connect 9 0 0 0;
#X connect 9 1 0 0;
#X connect 26 0 0 1;
#X connect 27 0 0 2;
#X connect 28 0 0 3;
#X connect 29 0 0 4;
#X connect 30 0 0 5;
