#N canvas 982 140 690 685 12;
#X obj 71 67 inlet~;
#X obj 182 361 outlet~ \$0-1;
#X obj 71 361 outlet~ \$0-0;
#X obj 71 289 *~;
#X obj 182 289 *~;
#X obj 273 68 inlet \$0-toggle;
#X obj 273 98 sel 0 1;
#X obj 89 240 pack f 30;
#X obj 89 264 line~;
#X obj 200 240 pack f 30;
#X obj 200 264 line~;
#X obj 299 251 loadbang;
#X msg 299 270 0, f 2;
#X msg 245 129 0;
#X msg 216 129 1;
#X msg 267 169 0;
#X msg 296 169 1;
#X obj 186 60 loadbang;
#X msg 186 79 0;
#X connect 0 0 3 0;
#X connect 0 0 4 0;
#X connect 3 0 2 0;
#X connect 4 0 1 0;
#X connect 5 0 6 0;
#X connect 6 0 13 0;
#X connect 6 0 14 0;
#X connect 6 1 15 0;
#X connect 6 1 16 0;
#X connect 7 0 8 0;
#X connect 8 0 3 1;
#X connect 9 0 10 0;
#X connect 10 0 4 1;
#X connect 11 0 12 0;
#X connect 12 0 4 1;
#X connect 12 0 3 1;
#X connect 13 0 9 0;
#X connect 14 0 7 0;
#X connect 15 0 7 0;
#X connect 16 0 9 0;
#X connect 17 0 18 0;
#X connect 18 0 6 0;
