#N canvas 764 285 394 400 12;
#X obj 128 280 boolswitch;
#X obj 128 242 tgl 25 0 empty empty empty 17 7 0 10 -228856 -4160 -1
0 1;
#X obj 195 242 tgl 25 0 empty empty empty 17 7 0 10 -228856 -258113
-1 0 1;
#X floatatom 195 313 5 0 0 0 - - -;
#X floatatom 128 312 5 0 0 0 - - -;
#X text 9 49 --------------------------------------------------;
#X text 16 13 [boolswitch] - A simple switch for sending a boolean
value (0 or 1) to one of two outlets, f 45;
#X text 16 73 1st inlet - Boolean value to be sent (0 or 1);
#X text 16 96 2nd inlet - Boolean value to control the output path
;
#X text 10 118 --------------------------------------------------;
#X text 17 169 2nd outlet - Output path 2 It is open when the right
inlet value is 1, f 46;
#X text 17 135 1st outlet - Output path 1 It is open when the right
inlet value is 0, f 46;
#X text 227 231 Switch output path, f 6;
#X text 66 231 Send boolean through, f 7;
#X text 8 202 --------------------------------------------------;
#X text 48 364 Created by Dominic Frugoli - May 2023;
#X connect 0 0 4 0;
#X connect 0 1 3 0;
#X connect 1 0 0 0;
#X connect 2 0 0 1;
