#N canvas 237 387 337 358 12;
#X obj 68 184 moses 5, f 9;
#X obj 178 91 sel 0 1;
#X obj 68 137 +;
#X msg 178 118 0;
#X msg 207 118 10;
#X obj 128 216 % 10;
#X obj 178 42 inlet modeTog;
#X obj 68 81 inlet bool;
#X obj 68 108 clip 0 1;
#X obj 178 66 clip 0 1;
#X obj 68 215 outlet mode1, f 6;
#X obj 128 245 outlet mode2, f 6;
#X text 23 304 Created by Dominic Frugoli - May 2023;
#X connect 0 0 10 0;
#X connect 0 1 5 0;
#X connect 1 0 3 0;
#X connect 1 1 4 0;
#X connect 2 0 0 0;
#X connect 3 0 2 1;
#X connect 4 0 2 1;
#X connect 5 0 11 0;
#X connect 6 0 9 0;
#X connect 7 0 8 0;
#X connect 8 0 2 0;
#X connect 9 0 1 0;
