#N canvas 442 176 1251 672 12;
#X obj 72 281 jon~;
#X msg 208 262 predelay \$1;
#X msg 353 262 damping \$1;
#X msg 447 262 decay \$1;
#X text 195 284 Predelay in ms (0...250), f 12;
#X text 324 284 Damping (Cutoff Frequency in Hz), f 17;
#X text 481 285 Decay Factor (0...1), f 12;
#X obj 256 494 crossfade~;
#X obj 72 494 crossfade~;
#X obj 72 528 outlet~ OutL;
#X obj 256 528 outlet~ OutR;
#X obj 31 43 inlet~ InL;
#X obj 113 43 inlet~ InR;
#X obj 186 201 inlet predelay;
#X obj 331 201 inlet damp;
#X obj 471 201 inlet decay;
#X obj 499 424 inlet mix;
#X obj 472 454 pack f 30;
#X obj 472 478 line~;
#X obj 447 230 clip 0 1;
#X obj 307 230 moses 0;
#X obj 162 230 moses 0;
#X obj 31 68 s~ \$0-DryL;
#X obj 113 68 s~ \$0-DryR;
#X obj 97 327 s~ \$0-WetR;
#X obj 72 350 s~ \$0-WetL;
#X obj 72 415 r~ \$0-DryL;
#X obj 256 415 r~ \$0-DryR;
#X obj 289 439 r~ \$0-WetR;
#X obj 105 439 r~ \$0-WetL;
#X obj 139 468 r~ \$0-verbmixcon;
#X obj 323 468 r~ \$0-verbmixcon;
#X obj 472 502 s~ \$0-verbmixcon;
#X obj 72 169 r~ \$0-DryL;
#X obj 84 193 r~ \$0-DryR;
#X obj 642 18 cnv 15 215 215 empty empty empty 20 12 0 14 -233017 -66577
0;
#X obj 664 52 hsl 175 25 0 500 0 0 empty empty Predelay 119 -10 1 15
-191407 -159808 -159808 3100 1;
#X obj 664 98 hsl 175 25 0 10000 0 0 empty empty Dampen 120 -10 1 15
-191407 -159808 -159808 0 1;
#X obj 664 190 hsl 175 25 0 1 0 0 empty empty Mix 154 -10 1 15 -191407
-159808 -159808 5900 1;
#X obj 664 144 hsl 175 25 0 1 0 0 empty empty Decay 134 -10 1 15 -191407
-159808 -159808 5340 1;
#X floatatom 597 77 5 0 0 0 - - -;
#X floatatom 597 123 5 0 0 0 - - -;
#X floatatom 597 169 5 0 0 0 - - -;
#X floatatom 597 215 5 0 0 0 - - -;
#X obj 162 173 r \$0-predelaycon;
#X obj 307 173 r \$0-dampcon;
#X obj 447 173 r \$0-decaycon;
#X obj 472 399 r \$0-mixcon;
#X obj 865 77 s \$0-predelaycon;
#X obj 865 123 s \$0-dampcon;
#X obj 865 169 s \$0-decaycon;
#X obj 865 215 s \$0-mixcon;
#X obj 661 368 r pddef;
#X obj 661 394 r dampdef;
#X obj 661 420 r decdef;
#X obj 661 446 r mixdef;
#X obj 788 371 loadbang;
#X msg 788 390 \; pddef 50 \; dampdef 3500 \; decdef 0.6 \; mixdef
0.5 \;;
#X connect 0 0 25 0;
#X connect 0 1 24 0;
#X connect 1 0 0 2;
#X connect 2 0 0 2;
#X connect 3 0 0 2;
#X connect 7 0 10 0;
#X connect 8 0 9 0;
#X connect 11 0 22 0;
#X connect 12 0 23 0;
#X connect 13 0 21 0;
#X connect 14 0 20 0;
#X connect 15 0 19 0;
#X connect 16 0 17 0;
#X connect 17 0 18 0;
#X connect 18 0 32 0;
#X connect 19 0 3 0;
#X connect 20 1 2 0;
#X connect 21 1 1 0;
#X connect 26 0 8 0;
#X connect 27 0 7 0;
#X connect 28 0 7 1;
#X connect 29 0 8 1;
#X connect 30 0 8 2;
#X connect 31 0 7 2;
#X connect 33 0 0 0;
#X connect 34 0 0 1;
#X connect 36 0 40 0;
#X connect 36 0 48 0;
#X connect 37 0 41 0;
#X connect 37 0 49 0;
#X connect 38 0 43 0;
#X connect 38 0 51 0;
#X connect 39 0 42 0;
#X connect 39 0 50 0;
#X connect 44 0 21 0;
#X connect 45 0 20 0;
#X connect 46 0 19 0;
#X connect 47 0 17 0;
#X connect 52 0 36 0;
#X connect 53 0 37 0;
#X connect 54 0 39 0;
#X connect 55 0 38 0;
#X connect 56 0 57 0;
#X coords 0 -1 1 1 200 200 1 650 25;
