#N canvas 508 297 473 232 12;
#X msg 82 48 bang;
#X obj 82 167 outlet i;
#X obj 82 22 inlet counterTick;
#X obj 190 114 + 1;
#X obj 208 48 inlet counterAmount;
#X obj 245 95 \$1;
#X obj 245 71 loadbang;
#X obj 245 118 sel 0;
#X msg 245 141 1;
#X text 347 46 Changes how much to count by each bang. Defaults to
1 if nothing or 0 is set as the creation argument., f 14;
#X obj 19 114 loadbang;
#X obj 82 133 int 0;
#X obj 88 72 inlet counterSet;
#X obj 88 96 t b f;
#X text 15 201 Created by Dominic Frugoli - July 2023;
#X connect 0 0 11 0;
#X connect 2 0 0 0;
#X connect 3 0 11 1;
#X connect 4 0 3 1;
#X connect 5 0 3 1;
#X connect 5 0 7 0;
#X connect 6 0 5 0;
#X connect 7 0 8 0;
#X connect 8 0 3 1;
#X connect 10 0 11 0;
#X connect 11 0 1 0;
#X connect 11 0 3 0;
#X connect 12 0 13 0;
#X connect 13 0 11 0;
#X connect 13 1 11 1;
