#N canvas 404 133 1192 742 12;
#X obj 62 212 pack f 30;
#X obj 62 235 line~;
#X obj 195 219 osc~;
#X obj 62 312 +~;
#X text 373 219 Depth of delay modulation, f 14;
#X text 316 140 Frequency of delay modulation, f 17;
#X text 297 451 Feedback factor (repeats), f 16;
#X text 674 553 TODO - Make effect stereo (probably just out) and add
a ping pong option.;
#X obj 199 425 crossfade~;
#X obj 232 382 lop~ 1250;
#X msg 304 406 0.5;
#X obj 304 387 loadbang;
#X text 396 336 Filter amount;
#X text 674 443 TODO - Try to improve filtering and maybe add some
light drive to delay line if possible;
#X text 674 481 Idea for saturation stage. Try and use [expr~] in a
way so that it tracks the input of the signal. It then increases the
gain and clips the signal a bit \, then it returns the signal to whatever
the input level was.;
#X obj 55 37 inlet~ \$0-btdry;
#X obj 55 76 throw~ \$0-btmix;
#X obj 363 549 catch~ \$0-btmix;
#X obj 62 363 delread4~ \$0-bttapehead;
#X obj 205 56 delwrite~ \$0-bttapehead 2000;
#X obj 205 27 r~ \$0-feedback;
#X obj 16 166 r \$0-timecon;
#X obj 217 456 r \$0-fbcon;
#X obj 195 146 r \$0-modratecon;
#X obj 252 225 r \$0-moddepthcon;
#X obj 199 584 s~ \$0-feedback;
#X obj 363 579 outlet~ \$0-btout;
#X obj 62 425 throw~ \$0-btmix;
#X obj 292 335 r \$0-filtercon;
#X obj 642 95 cnv 15 215 265 empty empty empty 20 12 0 14 -233017 -66577
0;
#X obj 663 127 hsl 175 25 10 1000 0 0 empty empty Time 145 -10 1 15
-191407 -4160 -4160 4900 1;
#X obj 663 174 hsl 175 25 0.1 0.9 0 0 empty empty Feedback 112 -10
1 15 -191407 -4160 -4160 6700 1;
#X obj 663 221 hsl 175 25 500 2000 0 0 empty empty Filtering 124 -10
1 15 -191407 -4160 -4160 11600 1;
#X obj 663 268 hsl 175 25 0.5 10 0 0 empty empty Rate 145 -10 1 15
-191407 -4160 -4160 8600 1;
#X obj 663 315 hsl 175 25 0 5 0 0 empty empty Depth 135 -10 1 15 -191407
-4160 -4160 4500 1;
#X floatatom 596 293 5 0 0 0 - - -;
#X floatatom 596 152 5 0 0 0 - - -;
#X floatatom 596 199 5 0 0 0 - - -;
#X floatatom 596 246 5 0 0 0 - - -;
#X floatatom 596 340 5 0 0 0 - - -;
#X obj 868 152 s \$0-timecon;
#X obj 868 199 s \$0-fbcon;
#X obj 868 246 s \$0-filtercon;
#X obj 868 293 s \$0-modratecon;
#X obj 868 340 s \$0-moddepthcon;
#X obj 496 108 r timedef;
#X obj 496 155 r fbdef;
#X obj 496 202 r filterdef;
#X obj 496 249 r modratedef;
#X obj 496 296 r moddepthdef;
#X msg 868 33 \; timedef 250 \; fbdef 0.5 \; filterdef 1500 \; modratedef
2 \; moddepthdef 1 \;;
#X obj 868 14 loadbang;
#X obj 199 547 *~;
#X obj 217 500 pack f 30;
#X obj 217 523 line~;
#X obj 195 293 *~;
#X obj 252 250 pack f 30;
#X obj 252 274 line~;
#X obj 195 171 pack f 30;
#X obj 195 195 line~;
#X text 961 152 Delay time (10...1000);
#X text 945 199 Feedback Factor (0.1...0.9);
#X text 976 246 Filter Cutoff (500...2000);
#X text 983 293 Mod Rate (0.5...10);
#X text 991 339 Mod Depth (0.5...5);
#X text 988 58 Sets default values for the delay on load., f 14;
#X text 481 548 Output Stage;
#X text 61 14 Input Stage;
#X obj 180 689 s \$0-timecon;
#X obj 290 689 s \$0-fbcon;
#X obj 379 689 s \$0-filtercon;
#X obj 496 689 s \$0-modratecon;
#X obj 620 689 s \$0-moddepthcon;
#X obj 180 655 inlet deltime;
#X obj 290 655 inlet fb;
#X obj 379 655 inlet filter;
#X obj 496 655 inlet modrate;
#X obj 620 655 inlet moddepth;
#X text 115 662 Control Inlets, f 7;
#X obj 217 478 clip -1 1;
#X obj 16 189 moses 0;
#X obj 292 359 clip 0 2000;
#X connect 0 0 1 0;
#X connect 1 0 3 0;
#X connect 2 0 55 0;
#X connect 3 0 18 0;
#X connect 8 0 52 0;
#X connect 9 0 8 1;
#X connect 10 0 8 2;
#X connect 11 0 10 0;
#X connect 15 0 16 0;
#X connect 15 0 19 0;
#X connect 17 0 26 0;
#X connect 18 0 8 0;
#X connect 18 0 9 0;
#X connect 18 0 27 0;
#X connect 20 0 19 0;
#X connect 21 0 80 0;
#X connect 22 0 79 0;
#X connect 23 0 58 0;
#X connect 24 0 56 0;
#X connect 28 0 81 0;
#X connect 30 0 36 0;
#X connect 30 0 40 0;
#X connect 31 0 37 0;
#X connect 31 0 41 0;
#X connect 32 0 38 0;
#X connect 32 0 42 0;
#X connect 33 0 35 0;
#X connect 33 0 43 0;
#X connect 34 0 39 0;
#X connect 34 0 44 0;
#X connect 45 0 30 0;
#X connect 46 0 31 0;
#X connect 47 0 32 0;
#X connect 48 0 33 0;
#X connect 49 0 34 0;
#X connect 51 0 50 0;
#X connect 52 0 25 0;
#X connect 53 0 54 0;
#X connect 54 0 52 1;
#X connect 55 0 3 1;
#X connect 56 0 57 0;
#X connect 57 0 55 1;
#X connect 58 0 59 0;
#X connect 59 0 2 0;
#X connect 73 0 68 0;
#X connect 74 0 69 0;
#X connect 75 0 70 0;
#X connect 76 0 71 0;
#X connect 77 0 72 0;
#X connect 79 0 53 0;
#X connect 80 1 0 0;
#X connect 81 0 9 1;
#X coords 0 -1 1 1 200 250 1 650 100;
