#N canvas 50 44 897 665 12;
#X obj 10 529 dac~;
#X obj 306 276 noise~;
#X obj 158 359 r MOD;
#X obj 73 209 r BL;
#X obj 90 239 r FF;
#X obj 107 269 r FB;
#X obj 124 299 r DELAY;
#X obj 141 329 r DEPTH;
#X text 401 21 Vibrato;
#X obj 56 389 vibflangchorus~;
#X text 401 181 Flanger;
#X text 401 341 Chorus;
#X text 641 341 White chorus;
#X text 401 501 Doubling;
#X obj 306 306 *~ 0.1;
#X floatatom 496 122 5 0 3 1 0-3ms - DELAY 0;
#X floatatom 496 141 5 0.1 5 1 0.1-5Hz_sine - DEPTH 0;
#X msg 404 45 \; bypass 0 \; BL 0 \; FF 1 \; FB 0 \; DELAY 0 \; DEPTH
1.5 \; MOD 2.5;
#X msg 404 205 \; bypass 0 \; BL 0.7 \; FF 0.7 \; FB 0.7 \; DELAY 0
\; DEPTH 1 \; MOD 0.5;
#X msg 404 365 \; bypass 0 \; BL 0.7 \; FF 1 \; FB 0 \; DELAY 15 \;
DEPTH 15 \; MOD lpnoise;
#X msg 404 525 \; bypass 0 \; BL 0.7 \; FF 0.7 \; FB 0 \; DELAY 60
\; DEPTH 50 \; MOD lpnoise;
#X msg 644 365 \; bypass 0 \; BL 0.7 \; FF 1 \; FB -0.7 \; DELAY 15
\; DEPTH 15 \; MOD lpnoise;
#X msg 94 99 \; bypass 1;
#X obj 81 419 r bypass;
#X obj 81 449 == 0;
#X text 116 450 flip toggle;
#X obj 10 479 *~ 1;
#X obj 56 479 *~ 0;
#X floatatom 496 440 5 1 30 1 1-30ms - DELAY 0;
#X floatatom 496 459 5 1 30 1 1-30ms - DELAY 0;
#X floatatom 736 440 5 1 30 1 1-30ms - DELAY 0;
#X floatatom 736 459 5 1 30 1 1-30ms - DELAY 0;
#X floatatom 496 600 5 10 100 1 10-100ms - DELAY 0;
#X floatatom 496 619 5 1 100 1 1-100ms - DELAY 0;
#X obj 236 276 osc~ 440;
#X obj 236 306 *~ 0.1;
#X floatatom 486 281 5 0 2 1 0-2ms - DELAY 0;
#X floatatom 486 300 5 0.1 1 1 0.1-1Hz_sine - DEPTH 0;
#X text 482 212 TODO: LFO sounds like a /clipped/ sinusoid that rests
at maximum and minimum;
#X text 91 75 Bypass all effects (= default upon load);
#X obj 10 154 tgl 15 0 empty \$0-done playback 17 7 0 10 #fcfcfc #000000
#000000 0 1;
#X obj 182 154 bng 15 250 50 0 empty empty select\\\ file 17 7 0 10
#fcfcfc #000000 #000000;
#X obj 10 179 fileplay~ la_reverdie.wav;
#X obj 10 74 tgl 15 0 empty empty DSP 17 7 0 10 #fcfcfc #000000 #000000
0 1;
#X msg 10 99 \; pd dsp 1;
#X obj 182 209 s \$0-done;
#X obj 96 154 tgl 15 0 empty empty loop 17 7 0 10 #fcfcfc #000000 #000000
0 1;
#X text 234 247 Other test signals:;
#X text 9 4 (Rough) implementation of Zölzer 2011 \, ch.2 \, p.78
\, fig. 2.34. If you find bugs \, send me a fix! :);
#X connect 1 0 14 0;
#X connect 2 0 9 6;
#X connect 3 0 9 1;
#X connect 4 0 9 2;
#X connect 5 0 9 3;
#X connect 6 0 9 4;
#X connect 7 0 9 5;
#X connect 9 0 27 0;
#X connect 23 0 24 0;
#X connect 23 0 26 1;
#X connect 24 0 27 1;
#X connect 26 0 0 0;
#X connect 26 0 0 1;
#X connect 27 0 0 1;
#X connect 27 0 0 0;
#X connect 34 0 35 0;
#X connect 40 0 42 0;
#X connect 41 0 42 2;
#X connect 42 0 26 0;
#X connect 42 0 9 0;
#X connect 42 2 45 0;
#X connect 43 0 44 0;
#X connect 46 0 42 1;
