#N canvas 652 25 600 895 12;
#X obj 60 594 chorus~;
#X obj 162 487 bng 15 250 50 0 empty empty load 17 7 0 10 -262144 -1
-1;
#X obj 111 487 tgl 15 0 empty empty loop 17 7 0 10 -262144 -1 -1 0
1;
#X obj 60 487 tgl 15 0 empty empty play 17 7 0 10 -262144 -1 -1 0 1
;
#X obj 430 495 tgl 15 0 empty empty on/off 17 7 0 10 -262144 -1 -1
0 1;
#X msg 430 520 \; pd dsp \$1;
#X obj 60 854 dac~;
#X obj 60 825 *~;
#X obj 81 795 hsl 128 15 0 1 0 0 empty empty Master_Volume -2 -8 0
10 -262144 -1 -1 0 1;
#X obj 60 512 fileplay~, f 15;
#X text 209 491 2 - Load a file here to be played, f 17;
#X text 28 438 4 - Click the play toggle to play the file, f 23;
#X text 429 469 1 - Turn on dsp;
#X text 223 793 3 - Turn up the master volume slider to desired level
, f 29;
#X text 280 856 Created by Dominic Frugoli - January 2023;
#X text 21 39 ------------------------------------------------------------------------------
, f 79;
#X text 21 286 ------------------------------------------------------------------------------
, f 79;
#X text 21 342 ------------------------------------------------------------------------------
, f 79;
#X text 21 410 ------------------------------------------------------------------------------
, f 79;
#X text 21 7 chorus~ - A basic chorus/vibrato using a variable delay
line that has rate \, depth \, and mix controls., f 79;
#X text 21 81 2nd inlet - Chorus Rate - Takes a number that sets the
rate of the modulating oscillator. Typical range is between 0.5 and
10 0 will give you no modulation and more than about 20 starts getting
you into FM territory. Negative numbers will still work fine \, they
just flip the polarity of the modulation oscillator., f 79;
#X text 21 144 3rd inlet - Depth Level - Takes a number that sets the
amplitude of the modulating oscillator. Typical range is between 0.5
and 5 0 will give you no modulation and anything above 10 starts to
get quite chaotic. Again \, negative numbers will still work fine \,
they just flip the polarity of the modulation oscillator., f 79;
#X text 21 221 4th inlet - Dry/Wet Mix - Takes a number between 0 and
1 to mix between the dry and wet signals (0 for fully dry \, 1 for
fully wet). For a typical chorus the mix should be between 0.35 and
0.65. Setting the mix to 1 results in a vibrato effect., f 79;
#X text 21 363 GUI - This abstraction has a graph on parent option
that has sliders for all the parameters. The sliders are set for the
typical ranges \, but the inlets will remain so any number can still
be fed through the inlets if needed., f 79;
#X floatatom 124 541 5 0 0 1 rate - -;
#X floatatom 188 567 5 0 0 0 depth - -;
#X obj 256 571 hsl 128 15 0 1 0 0 empty empty mix -2 -8 0 12 -262144
-1 -1 0 1;
#X text 272 672 5 - Mess with controls to hear different settings,
f 26;
#X text 21 60 1st inlet~ - Audio In - Takes a mono signal input for
the chorus., f 79;
#X text 21 307 1st outlet ~ Audio Out - This is the audio output for
the wet signal. It will output in mono., f 79;
#X connect 0 0 7 0;
#X connect 1 0 9 2;
#X connect 2 0 9 1;
#X connect 3 0 9 0;
#X connect 4 0 5 0;
#X connect 7 0 6 0;
#X connect 7 0 6 1;
#X connect 8 0 7 1;
#X connect 9 0 0 0;
#X connect 9 1 0 0;
#X connect 24 0 0 1;
#X connect 25 0 0 2;
#X connect 26 0 0 3;
