#N canvas 717 285 517 393 12;
#X obj 217 48 inlet;
#X obj 323 48 inlet;
#X obj 263 312 outlet~;
#X obj 263 210 phasor~;
#X obj 263 237 *~ 2;
#X obj 263 266 -~ 1;
#X obj 263 176 * 1;
#X obj 323 76 sel 0 1;
#X msg 323 104 1, f 2;
#X msg 346 104 -1, f 2;
#X obj 323 138 t b f;
#X obj 145 37 loadbang;
#X obj 145 77 f \$1;
#X obj 217 96 moses 0;
#X text 53 50 Creation argument for inital frequency, f 13;
#X text 201 117 Rejects negative numbers, f 8;
#X text 388 57 Sets regular or inverse saw (0 for regular \, 1 for
inverse), f 13;
#X text 309 240 Sets phasor~ to full scale (-1 to 1), f 14;
#X text 20 352 Created by Dominic Frugoli - October 2022;
#X connect 0 0 13 0;
#X connect 1 0 7 0;
#X connect 3 0 4 0;
#X connect 4 0 5 0;
#X connect 5 0 2 0;
#X connect 6 0 3 0;
#X connect 7 0 8 0;
#X connect 7 1 9 0;
#X connect 8 0 10 0;
#X connect 9 0 10 0;
#X connect 10 0 6 0;
#X connect 10 1 6 1;
#X connect 11 0 12 0;
#X connect 12 0 13 0;
#X connect 13 1 6 0;
