#N canvas 0 25 955 692 12;
#X obj 29 212 osc~ 440;
#X obj 29 403 dac~;
#X floatatom 29 98 5 0 0 0 - - - 0;
#X floatatom 108 168 5 0 0 0 - - - 0;
#X obj 108 212 osc~;
#X floatatom 177 167 5 0 0 0 - - - 0;
#X obj 177 211 osc~;
#X floatatom 246 167 5 0 0 0 - - - 0;
#X obj 246 211 osc~;
#X floatatom 315 167 5 0 0 0 - - - 0;
#X obj 315 211 osc~;
#X obj 108 259 *~ 0.75;
#X floatatom 383 167 5 0 0 0 - - - 0;
#X obj 383 211 osc~;
#X obj 29 303 *~ 0.1;
#X obj 177 258 *~ 0.5;
#X obj 246 258 *~ 0.35;
#X obj 315 258 *~ 0.25;
#X obj 383 258 *~ 0.2;
#X obj 29 40 loadbang;
#X obj 108 126 * 2;
#X obj 177 126 * 3;
#X obj 246 126 * 4;
#X obj 315 126 * 5;
#X obj 383 126 * 6;
#X text 114 40 This loadbang makes it so the synth loads at 440 since
number objects reset at startup.;
#X text 461 119 These harmonics can be changed to make different waves.
Odds only is triangle \, and not whole numbers makes bells.;
#X text 104 398 This dac~ needs to be at the end of any signal chain
to convert the sound to speaker analog.;
#X text 460 252 These change the signal level. *~ is for signal \,
while just * is for numbers.;
#X msg 29 70 220;
#X connect 0 0 14 0;
#X connect 2 0 0 0;
#X connect 2 0 20 0;
#X connect 2 0 21 0;
#X connect 2 0 22 0;
#X connect 2 0 23 0;
#X connect 2 0 24 0;
#X connect 3 0 4 0;
#X connect 4 0 11 0;
#X connect 5 0 6 0;
#X connect 6 0 15 0;
#X connect 7 0 8 0;
#X connect 8 0 16 0;
#X connect 9 0 10 0;
#X connect 10 0 17 0;
#X connect 11 0 14 0;
#X connect 12 0 13 0;
#X connect 13 0 18 0;
#X connect 14 0 1 0;
#X connect 15 0 14 0;
#X connect 16 0 14 0;
#X connect 17 0 14 0;
#X connect 18 0 14 0;
#X connect 19 0 29 0;
#X connect 20 0 3 0;
#X connect 21 0 5 0;
#X connect 22 0 7 0;
#X connect 23 0 9 0;
#X connect 24 0 12 0;
#X connect 29 0 2 0;
