#N canvas 693 25 982 944 12;
#X obj 103 118 phasor~;
#X floatatom 103 86 5 0 0 0 - - -;
#X obj 196 118 phasor~;
#X floatatom 196 86 5 0 0 0 - - -;
#X obj 283 118 phasor~;
#X floatatom 283 86 5 0 0 0 - - -;
#X obj 370 118 phasor~;
#X floatatom 370 86 5 0 0 0 - - -;
#X msg 196 53 288.32;
#X msg 283 53 343;
#X msg 370 53 432.08;
#X obj 370 370 bob~;
#X obj 398 323 hsl 128 15 0 4 0 0 empty empty Resonance 3 8 0 10 -204786
-1 -1 0 1;
#X obj 539 285 hsl 128 15 0 7500 0 0 empty empty Cutoff 3 8 0 10 -232576
-1 -1 0 1;
#X floatatom 382 300 5 0 10000 0 - - -;
#X floatatom 395 343 5 0 4 0 - - -;
#X obj 165 262 loadbang;
#X msg 165 324 1;
#X obj 165 305 loadbang;
#X msg 165 281 5000;
#X obj 370 622 *~;
#X obj 388 415 bng 15 250 50 0 empty empty empty 17 7 0 10 -261682
-203904 -1;
#X obj 470 456 bng 15 250 50 0 empty empty empty 17 7 0 10 -261682
-203904 -1;
#X obj 553 499 bng 15 250 50 0 empty empty empty 17 7 0 10 -261682
-203904 -1;
#X obj 388 603 line~;
#X obj 388 547 bng 36 250 50 0 empty empty empty 17 7 0 10 -262130
-204786 -1;
#X obj 553 547 bng 36 250 50 0 empty empty empty 17 7 0 10 -262130
-203904 -1;
#X obj 470 547 bng 36 250 50 0 empty empty empty 17 7 0 10 -262130
-204800 -1;
#X obj 370 668 *~ 0.25;
#X obj 358 715 dac~;
#X msg 103 53 228.92;
#X obj 470 430 delay 600;
#X msg 388 584 1 600;
#X msg 470 584 0.5 20;
#X obj 553 471 delay 20;
#X msg 553 584 0 20;
#X connect 0 0 11 0;
#X connect 1 0 0 0;
#X connect 2 0 11 0;
#X connect 3 0 2 0;
#X connect 4 0 11 0;
#X connect 5 0 4 0;
#X connect 6 0 11 0;
#X connect 7 0 6 0;
#X connect 8 0 3 0;
#X connect 9 0 5 0;
#X connect 10 0 7 0;
#X connect 11 0 20 0;
#X connect 12 0 15 0;
#X connect 13 0 14 0;
#X connect 14 0 11 1;
#X connect 15 0 11 2;
#X connect 16 0 19 0;
#X connect 17 0 15 0;
#X connect 18 0 17 0;
#X connect 19 0 14 0;
#X connect 20 0 28 0;
#X connect 21 0 25 0;
#X connect 21 0 31 0;
#X connect 22 0 27 0;
#X connect 22 0 34 0;
#X connect 23 0 26 0;
#X connect 24 0 20 1;
#X connect 25 0 32 0;
#X connect 26 0 35 0;
#X connect 27 0 33 0;
#X connect 28 0 29 0;
#X connect 28 0 29 1;
#X connect 30 0 1 0;
#X connect 31 0 22 0;
#X connect 32 0 24 0;
#X connect 33 0 24 0;
#X connect 34 0 23 0;
#X connect 35 0 24 0;
