#N canvas 0 25 1920 945 12;
#X obj 251 98 noise~;
#X obj 251 140 *~ 0.5;
#X obj 251 280 *~;
#X text 8 229 Inlet 2 can receive a number to set volume of a signal
;
#X obj 386 72 bng 15 250 50 0 empty empty empty 17 7 0 10 #fcfcfc #000000
#000000;
#X obj 386 242 line;
#X floatatom 386 262 5 0 0 0 - - - 0;
#X msg 386 113 1 1000;
#X text 367 8 When bang is hit \, it sends number info to line object.
The first number is the target number and the second number is how
long it takes to reach it (in milliseconds).;
#X obj 486 87 delay 1000;
#X obj 486 113 bng 15 250 50 0 empty empty empty 17 7 0 10 #fcfcfc
#000000 #000000;
#X msg 486 136 0.5 1500;
#X obj 581 156 bng 15 250 50 0 empty empty empty 17 7 0 10 #fcfcfc
#000000 #000000;
#X msg 581 178 0 1000;
#X obj 251 349 dac~;
#X obj 251 315 *~ 0.5;
#X obj 581 128 delay 1500;
#X text 352 293 1st column is attack \, 2nd is decay \, third is release
\, the delay in the last column acts as the sustain as well. The bangs
on the 2nd and 3rd column are not needed \, but are nice for visual
feedback. To change specific points of the ADSR you would change the
amplitude values and the delay times.;
#X obj 239 514 bng 15 250 50 0 empty empty empty 17 7 0 10 #fcfcfc
#000000 #000000;
#X obj 300 555 bng 15 250 50 0 empty empty empty 17 7 0 10 #fcfcfc
#000000 #000000;
#X obj 363 598 bng 15 250 50 0 empty empty empty 17 7 0 10 #fcfcfc
#000000 #000000;
#X text 205 735 1st column is attack \, 2nd is decay \, third is release
\, the delay in the last column acts as the sustain as well. The bangs
on the 2nd and 3rd column are not needed \, but are nice for visual
feedback. To change specific points of the ADSR you would change the
amplitude values and the delay times.;
#X text 453 519 When bang is hit (which is sent from the keyboard bangs
via the path on the far left) \, it sends number info to line object.
The first number is the target number and the second number is how
long it takes to reach it (in milliseconds).;
#X obj 239 702 line~;
#X msg 300 683 0.5 200;
#X obj 363 570 delay 200;
#X msg 363 683 0 200;
#X obj 239 646 bng 36 250 50 0 empty empty empty 17 7 0 10 #fcfcfc
#000000 #000000;
#X obj 363 646 bng 36 250 50 0 empty empty empty 17 7 0 10 #fcfcfc
#000000 #000000;
#X obj 300 646 bng 36 250 50 0 empty empty empty 17 7 0 10 #fcfcfc
#000000 #000000;
#X text 449 658 For line objects \, always use line~ instead of just
line. The line control is very noisy so line~ works much better for
audio.;
#X obj 300 529 delay 20;
#X msg 239 683 1 20;
#X obj 1297 361 bng 15 250 50 0 empty empty empty 17 7 0 10 #fcfcfc
#000000 #000000;
#X obj 1451 401 bng 15 250 50 0 empty empty empty 17 7 0 10 #fcfcfc
#000000 #000000;
#X obj 1603 443 bng 15 250 50 0 empty empty empty 17 7 0 10 #fcfcfc
#000000 #000000;
#X obj 1466 772 line~;
#X obj 1603 415 delay 200;
#X obj 1297 493 bng 36 250 50 0 empty empty empty 17 7 0 10 #fcfcfc
#000000 #000000;
#X obj 1603 491 bng 36 250 50 0 empty empty empty 17 7 0 10 #fcfcfc
#000000 #000000;
#X obj 1451 492 bng 36 250 50 0 empty empty empty 17 7 0 10 #fcfcfc
#000000 #000000;
#X floatatom 1297 627 5 0 0 0 - - - 0;
#X obj 1313 565 loadbang;
#X msg 1313 584 1;
#X floatatom 1363 627 5 0 0 0 - - - 0;
#X obj 1379 565 loadbang;
#X floatatom 1451 627 5 0 0 0 - - - 0;
#X obj 1467 565 loadbang;
#X floatatom 1517 627 5 0 0 0 - - - 0;
#X obj 1533 565 loadbang;
#X msg 1467 584 0.5;
#X msg 1533 584 200;
#X obj 1451 375 delay 30;
#X floatatom 1603 627 5 0 0 0 - - - 0;
#X obj 1619 565 loadbang;
#X floatatom 1673 627 5 0 0 0 - - - 0;
#X obj 1689 565 loadbang;
#X msg 1619 584 0;
#X msg 1689 584 200;
#X text 1273 240 Work in Progress Envelope with number boxes for movable
parameter knobs.;
#X msg 1379 584 2000;
#X text 1274 293 DOESNT WORK CURRENTLY!;
#X connect 0 0 1 0;
#X connect 1 0 2 0;
#X connect 2 0 15 0;
#X connect 4 0 7 0;
#X connect 4 0 9 0;
#X connect 5 0 6 0;
#X connect 6 0 2 1;
#X connect 7 0 5 0;
#X connect 9 0 10 0;
#X connect 10 0 11 0;
#X connect 10 0 16 0;
#X connect 11 0 5 0;
#X connect 12 0 13 0;
#X connect 13 0 5 0;
#X connect 15 0 14 0;
#X connect 15 0 14 1;
#X connect 16 0 12 0;
#X connect 18 0 27 0;
#X connect 18 0 31 0;
#X connect 19 0 25 0;
#X connect 19 0 29 0;
#X connect 20 0 28 0;
#X connect 24 0 23 0;
#X connect 25 0 20 0;
#X connect 26 0 23 0;
#X connect 27 0 32 0;
#X connect 28 0 26 0;
#X connect 29 0 24 0;
#X connect 31 0 19 0;
#X connect 32 0 23 0;
#X connect 33 0 52 0;
#X connect 33 0 38 0;
#X connect 34 0 37 0;
#X connect 34 0 40 0;
#X connect 35 0 39 0;
#X connect 37 0 35 0;
#X connect 38 0 41 0;
#X connect 38 0 44 0;
#X connect 39 0 53 0;
#X connect 39 0 55 0;
#X connect 40 0 46 0;
#X connect 40 0 48 0;
#X connect 41 0 36 0;
#X connect 42 0 43 0;
#X connect 43 0 41 0;
#X connect 44 0 36 1;
#X connect 45 0 60 0;
#X connect 46 0 36 0;
#X connect 47 0 50 0;
#X connect 48 0 36 1;
#X connect 49 0 51 0;
#X connect 50 0 46 0;
#X connect 51 0 48 0;
#X connect 52 0 34 0;
#X connect 53 0 36 0;
#X connect 54 0 57 0;
#X connect 55 0 36 1;
#X connect 56 0 58 0;
#X connect 57 0 53 0;
#X connect 58 0 55 0;
#X connect 60 0 44 0;
