#N canvas 0 25 998 706 12;
#X floatatom 68 299 5 0 0 0 - - - 0;
#X obj 43 367 *~ 0.5;
#X obj 42 412 dac~;
#X obj 43 269 noise~;
#X floatatom 67 76 5 0 0 0 - - - 0;
#X obj 42 143 *~ 0.5;
#X obj 42 192 dac~;
#X obj 42 45 noise~;
#X obj 42 94 lop~;
#X floatatom 70 532 5 0 0 0 - - - 0;
#X obj 40 630 *~ 0.5;
#X obj 40 679 dac~;
#X obj 40 505 noise~;
#X obj 43 318 hip~;
#X text 22 217 -----------------------------------------------------------
;
#X text 21 435 -----------------------------------------------------------
;
#X text 37 460 Band-Pass filter with 2 numbers. One for cutoff and
one for q-factor.;
#X text 38 238 Hi-Pass filter with number for cutoff frequency;
#X text 38 16 Lo-Pass filter with number for cutoff frequency;
#X obj 40 581 bp~ 100 1;
#X floatatom 100 562 5 0 0 0 - - - 0;
#X text 133 578 DO NOT PUT Q-FACTOR BELOW 1! EAR DRUM WARNING!;
#X connect 0 0 13 1;
#X connect 3 0 13 0;
#X connect 4 0 8 1;
#X connect 7 0 8 0;
#X connect 8 0 5 0;
#X connect 9 0 19 1;
#X connect 12 0 19 0;
#X connect 13 0 1 0;
#X connect 19 0 10 0;
#X connect 20 0 19 2;
