#N canvas 329 25 922 949 12;
#N canvas 627 123 643 623 saw 0;
#X obj 189 218 inlet frequency;
#X obj 201 276 inlet cutoff;
#X obj 189 249 phasor~;
#X obj 189 327 bob~;
#X obj 214 300 inlet resonance;
#X obj 189 360 outlet~;
#X connect 0 0 2 0;
#X connect 1 0 3 1;
#X connect 2 0 3 0;
#X connect 3 0 5 0;
#X connect 4 0 3 2;
#X restore 143 367 pd saw;
#X text 418 20 SUBPATCHES;
#X text 39 162 I made a quick example over here on the left. It is
a saw oscillator with a filter using the [phasor~] and [bob~] objects.
If you click on it \, you can see exactly what the code looks like.
Now this example is already pretty short code \, but it is able to
take all the coding of it and stick it into one object box. Now it
is a single box with three inlets (left is frequency \, middle is filter
cutoff \, and right is resonance) and it essentially hase everything
you need from a single oscillator.;
#X text 328 66 Subpatches are essentially separate Pd windows that
are consolidated into one object box to not only clean up the look
of the code \, but to make them easier to use.;
#X text 463 385 These subpatches can get as crazy as you like and can
even hold entire pd patches into one object (maybe like the building
synth \, hint hint) you just might get carried away with the inlets.
;
#X floatatom 143 303 5 0 0 0 - - -;
#X floatatom 162 324 5 0 0 0 - - -;
#X floatatom 182 345 5 0 0 0 - - -;
#X obj 143 403 *~;
#X obj 211 388 hsl 128 15 0 1 0 0 empty empty master -2 -8 0 12 -262144
-1 -1 0 1;
#X obj 131 444 dac~;
#X text 410 769 ABSTRACTIONS;
#N canvas 1025 169 1044 620 supersaw 1;
#X obj 430 114 * 1;
#X obj 355 115 * 0.5;
#X obj 503 114 * 2;
#X obj 355 171 phasor~;
#X obj 430 171 phasor~;
#X obj 503 171 phasor~;
#X obj 430 368 outlet~;
#X obj 337 269 *~;
#X obj 283 158 inlet sub;
#X obj 594 172 inlet upper;
#X obj 503 269 *~;
#X obj 284 204 clip 0 1;
#X obj 569 219 clip 0 1;
#X floatatom 503 143 5 0 0 0 - - -;
#X floatatom 430 143 5 0 0 0 - - -;
#X floatatom 355 145 5 0 0 0 - - -;
#X floatatom 284 238 5 0 0 0 - - -;
#X floatatom 544 245 5 0 0 0 - - -;
#X obj 135 69 inlet frequency;
#X connect 0 0 14 0;
#X connect 1 0 15 0;
#X connect 2 0 13 0;
#X connect 3 0 7 1;
#X connect 4 0 6 0;
#X connect 5 0 10 0;
#X connect 7 0 6 0;
#X connect 8 0 11 0;
#X connect 9 0 12 0;
#X connect 10 0 6 0;
#X connect 11 0 16 0;
#X connect 12 0 17 0;
#X connect 13 0 5 0;
#X connect 14 0 4 0;
#X connect 15 0 3 0;
#X connect 16 0 7 0;
#X connect 17 0 10 1;
#X connect 18 0 0 0;
#X connect 18 0 1 0;
#X connect 18 0 2 0;
#X restore 142 597 pd supersaw;
#X text 452 578 Similar to the saw above it \, but this time it's a
super saw where the inlets are 1st the frequency \, 2nd the volume
of the sub (0-1) \, and 3rd the volume of the upper octave (0-1).;
#X obj 142 640 *~;
#X obj 193 625 hsl 128 15 0 1 0 0 empty empty empty -2 -8 0 10 -262144
-1 -1 5200 1;
#X floatatom 179 556 5 0 1 0 - - -;
#X floatatom 142 536 5 0 2200 0 - - -;
#X floatatom 216 576 5 0 1 0 - - -;
#X obj 130 687 dac~;
#X connect 0 0 8 0;
#X connect 5 0 0 0;
#X connect 6 0 0 1;
#X connect 7 0 0 2;
#X connect 8 0 10 0;
#X connect 8 0 10 1;
#X connect 9 0 8 1;
#X connect 12 0 14 0;
#X connect 14 0 19 0;
#X connect 14 0 19 1;
#X connect 15 0 14 1;
#X connect 16 0 12 1;
#X connect 17 0 12 0;
#X connect 18 0 12 2;
