#N canvas 45 244 1104 476 10;
#X obj 24 4 inlet~ signal;
#X obj 23 29 s~ \$0-sig;
#X obj 199 274 delwrite~ \$0-delay 200;
#X obj 199 249 +~;
#X obj 118 332 *~;
#X obj 102 371 +~;
#X obj 349 199 vd~ \$0-delay;
#X obj 117 177 r~ \$0-sig;
#X obj 352 387 s~ \$0-dsig;
#X obj 212 178 r~ \$0-dsig;
#X obj 32 177 r~ \$0-dsig;
#X obj 134 272 *~ -1;
#X obj 212 224 *~;
#X obj 102 408 outlet~;
#X obj 47 244 *~;
#X obj 47 266 *~ -1;
#X obj 47 290 +~ 1;
#X obj 32 329 *~;
#X obj 351 270 APS2;
#X obj 463 137 r \$0-d1;
#X obj 81 111 / 44.1;
#X obj 81 133 s \$0-d1;
#X obj 131 111 / 44.1;
#X obj 131 133 s \$0-d2;
#X obj 180 111 / 44.1;
#X obj 228 111 / 44.1;
#X obj 180 133 s \$0-d3;
#X obj 228 133 s \$0-d4;
#X obj 249 200 r \$0-g1;
#X obj 132 249 r \$0-g1;
#X obj 48 221 r \$0-g1;
#X obj 285 71 s \$0-g1;
#X obj 339 72 s \$0-g2;
#X obj 176 0 inlet ctrl;
#X obj 361 249 r \$0-d2;
#X obj 372 224 r \$0-g2;
#X obj 351 312 APS2;
#X obj 361 291 r \$0-d3;
#X obj 351 354 APS2;
#X obj 361 333 r \$0-d3;
#X obj 177 24 route d g;
#X obj 169 55 unpack f f f f;
#X obj 284 45 unpack f f;
#X obj 412 136 vline~;
#X obj 436 163 +~;
#X obj 412 -10 loadbang;
#X obj 414 83 / 44.1;
#X obj 80 48 loadbang;
#X obj 79 82 f \$1;
#X obj 111 82 f \$2;
#X obj 145 82 f \$3;
#X obj 179 82 f \$4;
#X obj 412 52 random 21;
#X obj 412 25 metro 300;
#X msg 412 112 \$1 300;
#X floatatom 602 116 5 0 0 0 - #0-d1 -, f 5;
#X floatatom 636 116 5 0 0 0 - #0-d2 -, f 5;
#X floatatom 670 116 5 0 0 0 - #0-d3 -, f 5;
#X floatatom 704 116 5 0 0 0 - #0-d4 -, f 5;
#X connect 0 0 1 0;
#X connect 3 0 2 0;
#X connect 4 0 5 1;
#X connect 5 0 13 0;
#X connect 6 0 18 0;
#X connect 7 0 3 0;
#X connect 7 0 4 0;
#X connect 9 0 12 0;
#X connect 10 0 17 0;
#X connect 11 0 4 1;
#X connect 12 0 3 1;
#X connect 14 0 15 0;
#X connect 15 0 16 0;
#X connect 16 0 17 1;
#X connect 17 0 5 0;
#X connect 18 0 36 0;
#X connect 19 0 44 1;
#X connect 20 0 21 0;
#X connect 22 0 23 0;
#X connect 24 0 26 0;
#X connect 25 0 27 0;
#X connect 28 0 12 1;
#X connect 29 0 11 0;
#X connect 30 0 14 0;
#X connect 30 0 14 1;
#X connect 33 0 40 0;
#X connect 34 0 18 1;
#X connect 35 0 18 2;
#X connect 35 0 36 2;
#X connect 35 0 38 2;
#X connect 36 0 38 0;
#X connect 37 0 36 1;
#X connect 38 0 8 0;
#X connect 39 0 38 1;
#X connect 40 0 41 0;
#X connect 40 1 42 0;
#X connect 41 0 20 0;
#X connect 41 1 22 0;
#X connect 41 2 24 0;
#X connect 41 3 25 0;
#X connect 42 0 31 0;
#X connect 42 1 32 0;
#X connect 43 0 44 0;
#X connect 44 0 6 0;
#X connect 45 0 53 0;
#X connect 46 0 54 0;
#X connect 47 0 48 0;
#X connect 47 0 49 0;
#X connect 47 0 50 0;
#X connect 47 0 51 0;
#X connect 48 0 20 0;
#X connect 49 0 22 0;
#X connect 50 0 24 0;
#X connect 51 0 25 0;
#X connect 52 0 46 0;
#X connect 53 0 52 0;
#X connect 54 0 43 0;
#X coords 0 -1 1 1 138 32 1 600 100;
