#N canvas 872 99 450 570 10;
#X obj 58 45 inlet~ signal;
#X obj 160 46 inlet~ delay;
#X obj 257 46 inlet~ resonance;
#X obj 256 74 s~ \$0-r0;
#X obj 57 71 s~ \$0-x0;
#X obj 206 117 r~ \$0-x0;
#X obj 263 117 r~ \$0-r0;
#X obj 208 167 *~;
#X obj 224 376 -~;
#X obj 204 217 *~;
#X obj 177 259 -~;
#X obj 177 316 FBCF;
#X obj 207 259 r~ \$0-r0;
#X obj 161 74 s~ \$0-d0;
#X obj 192 282 r~ \$0-d0;
#X obj 223 403 outlet~;
#X connect 0 0 4 0;
#X connect 1 0 13 0;
#X connect 2 0 3 0;
#X connect 5 0 7 0;
#X connect 5 0 10 0;
#X connect 6 0 7 1;
#X connect 6 0 9 1;
#X connect 7 0 9 0;
#X connect 7 0 8 1;
#X connect 8 0 15 0;
#X connect 9 0 10 1;
#X connect 10 0 11 0;
#X connect 11 0 8 0;
#X connect 12 0 11 2;
#X connect 14 0 11 1;
