#N canvas 776 240 450 300 10;
#X obj 115 138 vd~ \$0-dr;
#X obj 114 194 *~;
#X obj 98 221 +~;
#X obj 34 76 inlet~ sig;
#X obj 269 82 inlet~ resonance;
#X obj 145 195 outlet~;
#X obj 114 104 /~ 44.1;
#X obj 114 59 inlet~ delay(samples);
#X obj 97 247 delwrite~ \$0-dr 50;
#X connect 0 0 1 0;
#X connect 0 0 5 0;
#X connect 1 0 2 1;
#X connect 2 0 8 0;
#X connect 3 0 2 0;
#X connect 4 0 1 1;
#X connect 6 0 0 0;
#X connect 7 0 6 0;
