#N canvas 378 204 450 441 10;
#X obj 182 184 + 1;
#X obj 62 203 *~;
#X obj 61 273 +~;
#X obj 175 214 * -1;
#X obj 112 213 *~;
#X obj 61 357 outlet~;
#X obj 101 244 *~;
#X obj 119 292 +~;
#X obj 145 266 *~;
#X obj 175 246 + 1;
#X obj 120 357 outlet~;
#X obj 62 147 *~;
#X obj 127 146 *~;
#X obj 60 12 inlet~ i1;
#X obj 131 13 inlet~ i2;
#X obj 205 12 inlet;
#X obj 285 230 loadbang;
#X obj 276 262 f \$1;
#X obj 315 263 f \$2;
#X obj 37 321 delay~ 50;
#X obj 205 39 route k g s;
#X obj 61 69 spigot~;
#X obj 121 71 spigot~;
#X obj 119 321 delay~ 50;
#X connect 0 0 1 1;
#X connect 1 0 2 0;
#X connect 2 0 19 0;
#X connect 3 0 4 1;
#X connect 3 0 9 0;
#X connect 4 0 2 1;
#X connect 6 0 7 0;
#X connect 7 0 23 0;
#X connect 8 0 7 1;
#X connect 9 0 8 1;
#X connect 11 0 1 0;
#X connect 11 0 6 0;
#X connect 12 0 4 0;
#X connect 12 0 8 0;
#X connect 13 0 21 0;
#X connect 14 0 22 0;
#X connect 15 0 20 0;
#X connect 16 0 17 0;
#X connect 16 0 18 0;
#X connect 17 0 19 1;
#X connect 18 0 23 1;
#X connect 19 0 5 0;
#X connect 20 0 0 0;
#X connect 20 0 3 0;
#X connect 20 0 6 1;
#X connect 20 1 11 1;
#X connect 20 1 12 1;
#X connect 20 2 21 1;
#X connect 20 2 22 1;
#X connect 21 0 11 0;
#X connect 21 1 12 0;
#X connect 22 0 12 0;
#X connect 22 1 11 0;
#X connect 23 0 10 0;
