#N canvas 367 230 450 300 10;
#X obj 26 64 delwrite~ \$0-d 200;
#X obj 159 247 vd~ \$0-d;
#X obj 26 38 inlet~ sig;
#X obj 160 228 /~ 44.1;
#X obj 185 79 random \$2;
#X obj 183 50 metro \$1;
#X obj 162 197 vline~;
#X obj 185 108 + \$3;
#X obj 183 31 tgl 15 0 empty empty empty 17 7 0 10 -262144 -1 -1 0
1;
#X obj 180 8 loadbang;
#X obj 180 137 pack f f;
#X obj 267 104 f \$1;
#X msg 181 172 \$1 \$2;
#X obj 157 272 outlet~;
#X connect 1 0 13 0;
#X connect 2 0 0 0;
#X connect 3 0 1 0;
#X connect 4 0 7 0;
#X connect 5 0 4 0;
#X connect 5 0 11 0;
#X connect 6 0 3 0;
#X connect 7 0 10 0;
#X connect 8 0 5 0;
#X connect 9 0 8 0;
#X connect 10 0 12 0;
#X connect 11 0 10 1;
#X connect 12 0 6 0;
