#N canvas 575 226 450 300 10;
#X obj 80 24 inlet~;
#X obj 163 26 inlet;
#X obj 61 180 outlet~;
#X obj 160 181 outlet~;
#X obj 163 83 == 1;
#X obj 128 83 == 0;
#X obj 63 151 *~;
#X obj 153 138 *~;
#X obj 163 55 f;
#X connect 0 0 6 0;
#X connect 0 0 7 0;
#X connect 1 0 8 0;
#X connect 4 0 7 1;
#X connect 5 0 6 1;
#X connect 6 0 2 0;
#X connect 7 0 3 0;
#X connect 8 0 4 0;
#X connect 8 0 5 0;
