#N canvas 769 173 968 556 12;
#X obj 489 89 cnv 15 225 200 empty empty empty 20 12 0 14 -233017 -66577
0;
#X obj 87 220 +~ 1;
#X obj 87 244 *~;
#N canvas 0 25 532 496 crossfade 0;
#X obj 85 66 inlet~;
#X obj 253 70 inlet~;
#X obj 174 374 outlet~;
#X obj 188 184 -~ 1;
#X obj 102 233 -~ 1;
#X obj 271 233 +~ 1;
#X obj 84 301 *~;
#X obj 253 301 *~;
#X obj 102 268 *~ -0.5;
#X obj 271 268 *~ 0.5;
#X text 303 110 Converts number inlet into a signal so it is a smooth
transition without crackles, f 28;
#X text 123 184 -1 to 1;
#X text 321 233 0 to 2;
#X text 330 267 0 to 1;
#X text 140 233 -2 to 0;
#X text 162 268 1 to 0;
#X text 286 304 gR;
#X text 116 303 gL;
#X text 129 154 0 to 2;
#X obj 188 153 *~ 2;
#X obj 332 69 inlet~ position;
#X connect 0 0 6 0;
#X connect 1 0 7 0;
#X connect 3 0 4 0;
#X connect 3 0 5 0;
#X connect 4 0 8 0;
#X connect 5 0 9 0;
#X connect 6 0 2 0;
#X connect 7 0 2 0;
#X connect 8 0 6 1;
#X connect 9 0 7 1;
#X connect 19 0 3 0;
#X connect 20 0 19 0;
#X restore 47 374 pd crossfade;
#X obj 207 201 pack f 30;
#X obj 207 225 line~;
#X obj 514 234 hsl 175 25 0 1 0 0 empty empty Mix 153 -10 1 15 -191407
-260097 -260097 8700 1;
#X obj 514 184 hsl 175 25 0 5 0 0 empty empty Depth 137 -10 1 15 -191407
-260097 -260097 3480 1;
#X text 819 209 Depth 0...5;
#X text 813 158 Rate 0...10;
#X obj 514 134 hsl 175 25 0 10 0 0 empty empty Rate 145 -10 1 15 -191407
-260097 -260097 3480 1;
#X obj 104 158 inlet rate;
#X obj 225 166 inlet depth;
#X obj 313 355 inlet mix;
#X obj 47 70 inlet~ ChorusIn;
#X obj 47 413 outlet~ ChorusOut;
#X text 807 259 Mix 0...1;
#X obj 504 355 loadbang;
#X msg 504 374 \; ratedef 2 \; depthdef 1 \; mixdef 0.5 \;;
#X text 600 392 Sets default values for the chorus on load, f 23;
#X obj 87 194 osc~;
#X text 510 65 GUI for the abstraction;
#X obj 87 274 delread4~ \$0-modline;
#X obj 75 96 delwrite~ \$0-modline 1000;
#X obj 718 159 s \$0-ratecon;
#X obj 718 209 s \$0-depthcon;
#X obj 718 259 s \$0-mixcon;
#X obj 207 140 r \$0-depthcon;
#X obj 87 132 r \$0-ratecon;
#X obj 128 342 r \$0-mixcon;
#X obj 370 115 r ratedef;
#X obj 370 165 r depthdef;
#X obj 370 215 r mixdef;
#X text 503 482 Created by Dominic Frugoli - January 2023;
#X connect 1 0 2 0;
#X connect 2 0 22 0;
#X connect 3 0 15 0;
#X connect 4 0 5 0;
#X connect 5 0 2 1;
#X connect 6 0 26 0;
#X connect 7 0 25 0;
#X connect 10 0 24 0;
#X connect 11 0 20 0;
#X connect 12 0 4 0;
#X connect 13 0 3 2;
#X connect 14 0 3 0;
#X connect 14 0 23 0;
#X connect 17 0 18 0;
#X connect 20 0 1 0;
#X connect 22 0 3 1;
#X connect 27 0 4 0;
#X connect 28 0 20 0;
#X connect 29 0 3 2;
#X connect 30 0 10 0;
#X connect 31 0 7 0;
#X connect 32 0 6 0;
#X coords 0 -1 1 1 200 175 1 500 100;
