#N canvas 966 424 434 403 12;
#X obj 47 111 int 0;
#X obj 212 333 int 0;
#X msg 47 70 bang;
#X obj 47 174 outlet i;
#X obj 212 136 spigot;
#X obj 212 309 sel 1;
#X obj 230 183 \$1;
#X obj 230 159 loadbang;
#X obj 251 100 tgl 15 0 empty empty empty 17 7 0 10 -262144 -1 -1 0
1;
#X obj 251 59 inlet resetToggle;
#X text 268 86 Sets whether the reset limit is ignored or not, f 16
;
#X obj 230 238 - 1;
#X obj 255 213 inlet resetPoint;
#X text 262 179 creation argument sets initial reset point, f 22;
#X obj 95 92 - 1;
#X text 124 79 decrements from 0 on bang, f 10;
#X obj 47 38 inlet decrementTick;
#X obj 230 261 * -1;
#X obj 212 285 <=;
#X text 20 368 Created by Dominic Frugoli - July 2023;
#X connect 0 0 3 0;
#X connect 0 0 14 0;
#X connect 0 0 4 0;
#X connect 1 0 0 1;
#X connect 2 0 0 0;
#X connect 4 0 18 0;
#X connect 5 0 1 0;
#X connect 6 0 11 0;
#X connect 7 0 6 0;
#X connect 8 0 4 1;
#X connect 9 0 8 0;
#X connect 11 0 17 0;
#X connect 12 0 11 0;
#X connect 14 0 0 1;
#X connect 16 0 2 0;
#X connect 17 0 18 1;
#X connect 18 0 5 0;
