#N canvas 501 230 529 563 12;
#X obj 232 361 bng 18 250 50 0 empty empty empty 17 7 0 10 -262144
-1 -1;
#X floatatom 232 474 8 0 0 0 - - -;
#X obj 146 407 tgl 15 0 empty empty empty 17 7 0 10 -262144 -1 -1 0
1;
#X obj 255 390 tgl 18 0 empty empty empty 17 7 0 10 -262144 -1 -1 0
1;
#X obj 232 446 inc 16, f 7;
#X obj 146 427 metro 250;
#X floatatom 278 419 5 0 0 0 - - -;
#X text 278 389 Toggle to activate reset;
#X text 318 419 Change the reset point;
#X text 45 403 Set metro for automatic incrementing, f 13;
#X text 293 475 increment output;
#X text 7 49 -----------------------------------------------------------------------
, f 71;
#X text 8 189 -----------------------------------------------------------------------
, f 71;
#X text 8 254 -----------------------------------------------------------------------
, f 71;
#X text 8 316 -----------------------------------------------------------------------
, f 71;
#X text 11 91 2nd inlet - Reset Toggle - Takes in a toggle boolean
(0 or 1) to control the reset loop. 1 activates reset \, 0 deactivates
it. It initializes as off., f 69;
#X text 11 142 3rd inlet - Reset point - Takes in a positive integer
to set the reset point for the counter. Will take effect after one
tick of the counter., f 69;
#X text 18 534 Created by Dominic Frugoli - July 2023;
#X text 258 360 Hit bang to increment counter;
#X text 11 69 1st inlet - Increment Tick - Takes in a bang to increment
by 1, f 69;
#X text 11 208 1st outlet - Counter Output - Outputs the current count
from the counter. This a 0 based counter so if the reset is set at
16 \, the outputs will be from 0 to 15, f 69;
#X text 12 271 Creation Argument - Initial Reset Point - Accepts a
postive integer as the creation argument that sets the initial reset
point \, which can be overwritten by the 3rd inlet., f 69;
#X text 10 6 [inc] - A simple incremental counter for positive counting
by one. Can be used as an infinite counter or a resetting counter.
For negative counting \, try the [dec] object., f 69;
#X connect 0 0 4 0;
#X connect 2 0 5 0;
#X connect 3 0 4 1;
#X connect 4 0 1 0;
#X connect 5 0 4 0;
#X connect 6 0 4 2;
