#N canvas 186 133 440 384 12;
#X obj 47 111 int 0;
#X obj 95 92 + 1;
#X obj 212 314 int 0;
#X msg 47 70 bang;
#X obj 47 174 outlet i;
#X text 124 79 increments from 0 on bang, f 10;
#X obj 212 265 >=;
#X obj 212 136 spigot;
#X obj 212 287 sel 1;
#X obj 230 183 \$1;
#X obj 230 159 loadbang;
#X obj 251 100 tgl 15 0 empty empty empty 17 7 0 10 -262144 -1 -1 0
1;
#X obj 251 59 inlet resetToggle;
#X obj 47 38 inlet incrementTick;
#X text 268 86 Sets whether the reset limit is ignored or not, f 16
;
#X obj 230 238 - 1;
#X obj 255 213 inlet resetPoint;
#X text 262 179 creation argument sets initial reset point, f 22;
#X text 17 345 Created by Dominic Frugoli - July 2023;
#X connect 0 0 1 0;
#X connect 0 0 4 0;
#X connect 0 0 7 0;
#X connect 1 0 0 1;
#X connect 2 0 0 1;
#X connect 3 0 0 0;
#X connect 6 0 8 0;
#X connect 7 0 6 0;
#X connect 8 0 2 0;
#X connect 9 0 15 0;
#X connect 10 0 9 0;
#X connect 11 0 7 1;
#X connect 12 0 11 0;
#X connect 13 0 3 0;
#X connect 15 0 6 1;
#X connect 16 0 15 0;
