#N canvas 536 185 555 505 12;
#X obj 129 219 pack f f f, f 12;
#X obj 129 271 vline~;
#X obj 129 147 t f f, f 6;
#X obj 169 179 +;
#X obj 287 179 / 1;
#X obj 204 146 * 44.1;
#X obj 255 108 t f f;
#X obj 368 108 t b f;
#X msg 129 245 \$1 \, \$2 \$3;
#X obj 255 72 inlet grainDur;
#X obj 368 72 inlet grainSpeed;
#X obj 129 72 inlet grainIndex;
#X msg 246 278 set \$1;
#X obj 246 229 loadbang;
#X obj 246 253 symbol \$1;
#X text 326 246 sets array choice based off creation argument, f 23
;
#X obj 129 297 tabread4~;
#X obj 129 333 outlet~;
#X text 27 206 Creates envelope that reads from audio array, f 13
;
#X text 127 52 Start index;
#X text 253 52 Duration;
#X text 369 52 Speed;
#X text 144 371 Patch based on code by Andrew R. Brown of GCQInteractiveMusic
youtube channel. https://youtu.be/QX_saH55cks, f 40;
#X connect 0 0 8 0;
#X connect 1 0 16 0;
#X connect 2 0 0 0;
#X connect 2 1 3 0;
#X connect 3 0 0 1;
#X connect 4 0 0 2;
#X connect 5 0 3 1;
#X connect 6 0 5 0;
#X connect 6 1 4 0;
#X connect 7 0 4 0;
#X connect 7 1 4 1;
#X connect 8 0 1 0;
#X connect 9 0 6 0;
#X connect 10 0 7 0;
#X connect 11 0 2 0;
#X connect 12 0 16 0;
#X connect 13 0 14 0;
#X connect 14 0 12 0;
#X connect 16 0 17 0;
