#N canvas 1025 120 461 524 12;
#X obj 54 372 vcf~ 500;
#X obj 188 291 sig~;
#X obj 188 132 \$1;
#X obj 54 300 inlet~ monoIn;
#X obj 54 410 outlet~ monoOut;
#X obj 188 57 loadbang;
#X obj 188 260 +;
#X obj 280 169 \$2;
#X obj 206 198 random 1000;
#X obj 188 85 t b b b, f 10;
#X obj 304 97 t f f, f 12;
#X obj 385 179 sel 1;
#X obj 304 66 clip 0 1;
#X obj 206 230 t b f;
#X obj 286 353 *~;
#X obj 304 36 inlet filterPass;
#X text 349 206 randomizes filter cutoff when plate is pressed, f
14;
#X text 260 379 Only lets sound through when plate is pressed and filter
has been randomized, f 16;
#X connect 0 0 4 0;
#X connect 1 0 14 0;
#X connect 2 0 6 0;
#X connect 3 0 0 0;
#X connect 5 0 9 0;
#X connect 6 0 1 0;
#X connect 7 0 8 1;
#X connect 8 0 13 0;
#X connect 9 0 2 0;
#X connect 9 1 8 0;
#X connect 9 2 7 0;
#X connect 10 0 14 1;
#X connect 10 1 11 0;
#X connect 11 0 8 0;
#X connect 12 0 10 0;
#X connect 13 0 6 0;
#X connect 13 1 6 1;
#X connect 14 0 0 1;
#X connect 15 0 12 0;
