#N canvas 44 28 992 941 12;
#X obj 352 84 bng 15 250 50 0 empty empty empty 17 7 0 10 #fcfcfc #000000
#000000;
#X msg 352 227 261.63;
#X obj 457 118 bng 15 250 50 0 empty empty empty 17 7 0 10 #fcfcfc
#000000 #000000;
#X obj 561 152 bng 15 250 50 0 empty empty empty 17 7 0 10 #fcfcfc
#000000 #000000;
#X obj 666 186 bng 15 250 50 0 empty empty empty 17 7 0 10 #fcfcfc
#000000 #000000;
#X obj 874 220 bng 15 250 50 0 empty empty empty 17 7 0 10 #fcfcfc
#000000 #000000;
#X obj 874 22 bng 15 250 50 0 empty empty empty 17 7 0 10 #fcfcfc #000000
#000000;
#X obj 352 37 bng 15 250 50 0 empty empty Start 17 7 0 10 #00ff04 #000000
#0f4710;
#X obj 588 39 bng 15 250 50 0 empty empty Stop 17 7 0 10 #ff0400 #000000
#ff0400;
#X msg 693 54 stop;
#X msg 588 54 stop;
#X msg 484 54 stop;
#X msg 379 54 stop;
#X floatatom 180 246 5 0 0 0 - - - 0;
#X obj 180 282 phasor~;
#X obj 180 347 bob~;
#X floatatom 247 329 5 0 4 0 - - - 0;
#X obj 180 405 *~ 0.25;
#X obj 178 457 dac~;
#X obj 317 54 bng 15 250 50 0 empty empty empty 17 7 0 10 #fcfcfc #000000
#000000;
#X msg 317 227 0;
#X msg 457 227 329.63;
#X msg 561 227 392;
#X msg 666 227 493.88;
#X obj 739 66 hsl 128 15 10 2000 0 0 empty empty Speed -2 -8 0 10 #feffc6
#000000 #9c00ff 0 1;
#X floatatom 439 81 5 0 0 0 - - - 0;
#X floatatom 544 81 5 0 0 0 - - - 0;
#X floatatom 648 81 5 0 0 0 - - - 0;
#X floatatom 753 81 5 0 0 0 - - - 0;
#X obj 255 306 hsl 128 15 0 12000 0 0 empty empty Cutoff -2 -8 0 10
#c6feff #000000 #ff8300 0 1;
#X floatatom 192 321 5 0 0 0 - - - 0;
#X obj 379 99 delay \$1;
#X obj 484 133 delay \$1, f 9;
#X obj 588 167 delay \$1, f 9;
#X obj 693 201 delay \$1, f 9;
#X obj 920 28 loadbang;
#X msg 920 47 150;
#X connect 0 0 1 0;
#X connect 0 0 31 0;
#X connect 1 0 13 0;
#X connect 2 0 21 0;
#X connect 2 0 32 0;
#X connect 3 0 22 0;
#X connect 3 0 33 0;
#X connect 4 0 23 0;
#X connect 4 0 34 0;
#X connect 5 0 6 0;
#X connect 6 0 7 0;
#X connect 7 0 0 0;
#X connect 8 0 12 0;
#X connect 8 0 11 0;
#X connect 8 0 10 0;
#X connect 8 0 9 0;
#X connect 8 0 19 0;
#X connect 9 0 34 0;
#X connect 10 0 33 0;
#X connect 11 0 32 0;
#X connect 12 0 31 0;
#X connect 13 0 14 0;
#X connect 14 0 15 0;
#X connect 15 0 17 0;
#X connect 16 0 15 2;
#X connect 17 0 18 0;
#X connect 17 0 18 1;
#X connect 19 0 20 0;
#X connect 20 0 13 0;
#X connect 21 0 13 0;
#X connect 22 0 13 0;
#X connect 23 0 13 0;
#X connect 24 0 25 0;
#X connect 24 0 26 0;
#X connect 24 0 27 0;
#X connect 24 0 28 0;
#X connect 25 0 31 1;
#X connect 26 0 32 1;
#X connect 27 0 33 1;
#X connect 28 0 34 1;
#X connect 29 0 30 0;
#X connect 30 0 15 1;
#X connect 31 0 2 0;
#X connect 32 0 3 0;
#X connect 33 0 4 0;
#X connect 34 0 5 0;
#X connect 35 0 36 0;
#X connect 36 0 24 0;
