#N canvas 690 166 919 749 12;
#X obj 71 164 inlet~ \$0-monoIn;
#N canvas 1168 184 545 504 pitchedModals 0;
#X obj 259 93 inlet \$0-frequencyIn;
#X obj 63 95 inlet~ \$0-filterIn1;
#X obj 63 387 outlet~;
#X obj 259 176 +;
#X obj 259 148 t f f;
#X obj 412 70 r harm2;
#X obj 412 148 +;
#X obj 412 104 t b f;
#X obj 63 275 vcf~ 500;
#X obj 196 275 vcf~ 500;
#X obj 366 275 vcf~ 500;
#X obj 89 250 sig~;
#X obj 222 250 sig~;
#X obj 392 250 sig~;
#X text 73 295 Fundamental;
#X text 210 294 2nd Harmonic;
#X text 383 295 3rd Harmonic;
#X connect 0 0 4 0;
#X connect 0 0 6 0;
#X connect 0 0 11 0;
#X connect 1 0 8 0;
#X connect 1 0 9 0;
#X connect 1 0 10 0;
#X connect 3 0 12 0;
#X connect 4 0 3 0;
#X connect 4 1 3 1;
#X connect 5 0 7 0;
#X connect 6 0 13 0;
#X connect 7 0 6 0;
#X connect 7 1 6 1;
#X connect 8 0 2 0;
#X connect 9 0 2 0;
#X connect 10 0 2 0;
#X connect 11 0 8 1;
#X connect 12 0 9 1;
#X connect 13 0 10 1;
#X restore 71 263 pd pitchedModals;
#N canvas 663 236 546 419 unpitchedModals 0;
#X obj 62 73 inlet~ \$0-filterIn2;
#X obj 308 51 inlet \$0-randomBang;
#X obj 62 333 outlet~;
#X obj 62 255 vcf~ 500;
#X obj 182 255 vcf~ 500;
#X obj 302 255 vcf~ 500;
#X obj 328 229 sig~;
#X obj 208 229 sig~;
#X obj 88 229 sig~;
#X obj 209 114 random 1000;
#X obj 308 114 random 1000;
#X obj 415 114 random 1000;
#X obj 415 141 + 1500;
#X obj 308 141 + 750;
#X obj 62 300 *~ 0.35;
#X connect 0 0 3 0;
#X connect 0 0 4 0;
#X connect 0 0 5 0;
#X connect 1 0 9 0;
#X connect 1 0 10 0;
#X connect 1 0 11 0;
#X connect 3 0 14 0;
#X connect 4 0 14 0;
#X connect 5 0 14 0;
#X connect 6 0 5 1;
#X connect 7 0 4 1;
#X connect 8 0 3 1;
#X connect 9 0 8 0;
#X connect 10 0 13 0;
#X connect 11 0 12 0;
#X connect 12 0 6 0;
#X connect 13 0 7 0;
#X connect 14 0 2 0;
#X restore 427 263 pd unpitchedModals;
#X obj 180 234 inlet frequency;
#X obj 550 234 inlet randomize;
#X obj 71 363 outlet~ \$0-modalOut;
#X obj 71 320 +~;
#X obj 145 234 \$1;
#X connect 0 0 1 0;
#X connect 0 0 2 0;
#X connect 1 0 6 0;
#X connect 2 0 6 1;
#X connect 3 0 1 1;
#X connect 4 0 2 1;
#X connect 6 0 5 0;
#X connect 7 0 1 1;
