#N canvas 0 25 516 513 12;
#X obj 85 66 inlet~;
#X obj 253 70 inlet~;
#X obj 174 374 outlet~;
#X obj 188 184 -~ 1;
#X obj 102 233 -~ 1;
#X obj 271 233 +~ 1;
#X obj 84 301 *~;
#X obj 253 301 *~;
#X obj 102 268 *~ -0.5;
#X obj 271 268 *~ 0.5;
#X text 303 110 Converts number inlet into a signal so it is a smooth
transition without crackles, f 28;
#X text 123 184 -1 to 1;
#X text 321 233 0 to 2;
#X text 330 267 0 to 1;
#X text 140 233 -2 to 0;
#X text 162 268 1 to 0;
#X text 286 304 gR;
#X text 116 303 gL;
#X text 129 154 0 to 2;
#X obj 188 153 *~ 2;
#X obj 332 69 inlet~ position;
#X text 84 427 Created by Dominic Frugoli - September 2022;
#X connect 0 0 6 0;
#X connect 1 0 7 0;
#X connect 3 0 4 0;
#X connect 3 0 5 0;
#X connect 4 0 8 0;
#X connect 5 0 9 0;
#X connect 6 0 2 0;
#X connect 7 0 2 0;
#X connect 8 0 6 1;
#X connect 9 0 7 1;
#X connect 19 0 3 0;
#X connect 20 0 19 0;
