#N canvas 247 25 1441 951 12;
#X obj 1090 172 sel cmajor;
#X symbolatom 1090 90 10 0 0 0 - - -;
#X obj 1090 236 bng 15 250 50 0 empty empty empty 17 7 0 10 -262144
-1 -1;
#X floatatom 160 530 5 0 0 0 - - -;
#X floatatom 259 572 5 0 0 0 - - -;
#X floatatom 320 572 5 0 0 0 - - -;
#X floatatom 382 572 5 0 0 0 - - -;
#X floatatom 447 572 5 0 0 0 - - -;
#X obj 259 648 phasor~;
#X obj 320 648 phasor~;
#X obj 382 648 phasor~;
#X obj 447 648 phasor~;
#X obj 355 831 *~;
#X obj 436 793 hsl 128 15 0 1 0 0 empty empty empty -2 -8 0 10 -262144
-1 -1 6200 1;
#X floatatom 433 813 5 0 0 0 - - -;
#X obj 259 595 mtof;
#X obj 320 595 mtof;
#X obj 382 595 mtof;
#X obj 447 595 mtof;
#X floatatom 320 619 5 0 0 0 - - -;
#X floatatom 259 619 5 0 0 0 - - -;
#X floatatom 382 619 5 0 0 0 - - -;
#X floatatom 447 619 5 0 0 0 - - -;
#X obj 343 876 dac~;
#X obj 568 681 hsl 200 15 0 5000 0 0 empty empty Cutoff -2 -8 0 10
-262144 -1 -1 763 1;
#X obj 259 696 bob~;
#X obj 320 696 bob~;
#X obj 382 696 bob~;
#X obj 447 696 bob~;
#X obj 259 548 +;
#X obj 320 548 +;
#X obj 382 548 +;
#X obj 447 548 +;
#X floatatom 338 511 5 0 0 0 - - -;
#X floatatom 400 511 5 0 0 0 - - -;
#X floatatom 465 511 5 0 0 0 - - -;
#X floatatom 277 511 5 0 0 0 - - -;
#X obj 259 529 bng 15 250 50 0 empty empty empty 17 7 0 10 -262144
-1 -1;
#X obj 320 529 bng 15 250 50 0 empty empty empty 17 7 0 10 -262144
-1 -1;
#X obj 382 529 bng 15 250 50 0 empty empty empty 17 7 0 10 -262144
-1 -1;
#X obj 447 529 bng 15 250 50 0 empty empty empty 17 7 0 10 -262144
-1 -1;
#X obj 781 681 hsl 200 15 0 3 0 0 empty empty Resonance -2 -8 0 10
-262144 -1 -1 4945 1;
#X floatatom 345 186 5 0 0 0 - - -;
#X msg 41 263 0;
#X obj 41 312 spigot;
#X obj 80 276 tgl 32 0 empty empty empty 17 7 0 10 -262144 -1 -1 1
1;
#X obj 117 312 spigot;
#X obj 156 276 tgl 32 0 empty empty empty 17 7 0 10 -262144 -1 -1 0
1;
#X obj 80 255 r C;
#X obj 156 255 r Db;
#X obj 41 233 sel 0;
#X obj 117 233 sel 1;
#X obj 193 312 spigot;
#X obj 232 276 tgl 32 0 empty empty empty 17 7 0 10 -262144 -1 -1 1
1;
#X obj 269 312 spigot;
#X obj 308 276 tgl 32 0 empty empty empty 17 7 0 10 -262144 -1 -1 0
1;
#X obj 345 312 spigot;
#X obj 384 276 tgl 32 0 empty empty empty 17 7 0 10 -262144 -1 -1 1
1;
#X obj 421 312 spigot;
#X obj 460 276 tgl 32 0 empty empty empty 17 7 0 10 -262144 -1 -1 1
1;
#X obj 497 312 spigot;
#X obj 536 276 tgl 32 0 empty empty empty 17 7 0 10 -262144 -1 -1 0
1;
#X obj 573 312 spigot;
#X obj 612 276 tgl 32 0 empty empty empty 17 7 0 10 -262144 -1 -1 1
1;
#X obj 649 312 spigot;
#X obj 688 276 tgl 32 0 empty empty empty 17 7 0 10 -262144 -1 -1 0
1;
#X obj 725 312 spigot;
#X obj 764 276 tgl 32 0 empty empty empty 17 7 0 10 -262144 -1 -1 1
1;
#X obj 801 312 spigot;
#X obj 840 276 tgl 32 0 empty empty empty 17 7 0 10 -262144 -1 -1 0
1;
#X obj 877 312 spigot;
#X obj 916 276 tgl 32 0 empty empty empty 17 7 0 10 -262144 -1 -1 1
1;
#X obj 193 233 sel 2;
#X obj 269 233 sel 3;
#X obj 345 233 sel 4;
#X obj 421 233 sel 5;
#X obj 497 233 sel 6;
#X obj 573 233 sel 7;
#X obj 649 233 sel 8;
#X obj 725 233 sel 9;
#X obj 801 233 sel 10;
#X obj 877 233 sel 11;
#X obj 232 255 r D;
#X obj 308 255 r Eb;
#X obj 384 255 r E;
#X obj 460 255 r F;
#X obj 536 255 r Gb;
#X obj 612 255 r G;
#X obj 688 255 r Ab;
#X obj 764 255 r A;
#X obj 840 255 r Bb;
#X obj 916 255 r B;
#X msg 117 263 1;
#X msg 193 263 2;
#X msg 269 263 3;
#X msg 345 263 4;
#X msg 421 263 5;
#X msg 497 263 6;
#X msg 573 263 7;
#X msg 649 263 8;
#X msg 725 263 9;
#X msg 801 263 10;
#X msg 877 263 11;
#X floatatom 345 420 5 0 0 0 - - -;
#X obj 345 150 random 12;
#X obj 345 104 bng 30 250 50 0 empty empty empty 17 7 0 10 -262144
-1 -1;
#X msg 427 468 3;
#X msg 456 468 4;
#X msg 485 468 6;
#X msg 514 468 7;
#X msg 398 468 0;
#X obj 398 438 sel 0 2 4 5 7 9 11;
#X obj 160 438 + 48;
#X obj 345 27 tgl 15 0 empty empty empty 17 7 0 10 -262144 -1 -1 0
1;
#X obj 565 439 osc~;
#X obj 565 474 snapshot~;
#X obj 568 400 hsl 128 15 0 8 0 0 empty empty empty -2 -8 0 10 -262144
-1 -1 0 1;
#X obj 665 455 metro 10;
#X obj 665 428 loadbang;
#X floatatom 565 502 5 0 0 0 - - -;
#X floatatom 565 549 5 0 0 0 - - -;
#X floatatom 565 596 5 0 0 0 - - -;
#X obj 565 525 * 2500;
#X obj 565 572 + 2500;
#X obj 565 625 spigot;
#X obj 620 610 tgl 15 0 empty empty empty 17 7 0 10 -262144 -1 -1 1
1;
#X floatatom 565 419 5 0 0 0 - - -;
#X obj 345 67 metro 1 120 permin;
#X obj 778 480 osc~;
#X obj 778 529 snapshot~;
#X obj 781 441 hsl 128 15 0 8 0 0 empty empty empty -2 -8 0 10 -262144
-1 -1 0 1;
#X obj 943 510 metro 10;
#X obj 943 483 loadbang;
#X floatatom 778 557 5 0 0 0 - - -;
#X floatatom 778 460 5 0 0 0 - - -;
#X floatatom 778 606 5 0 0 0 - - -;
#X obj 778 505 *~ 0.5;
#X obj 778 580 + 0.5;
#X obj 778 633 spigot;
#X obj 833 618 tgl 15 0 empty empty empty 17 7 0 10 -262144 -1 -1 1
1;
#X connect 0 0 2 0;
#X connect 1 0 0 0;
#X connect 3 0 29 0;
#X connect 3 0 30 0;
#X connect 3 0 32 0;
#X connect 3 0 31 0;
#X connect 4 0 15 0;
#X connect 5 0 16 0;
#X connect 6 0 17 0;
#X connect 7 0 18 0;
#X connect 8 0 25 0;
#X connect 9 0 26 0;
#X connect 10 0 27 0;
#X connect 11 0 28 0;
#X connect 12 0 23 0;
#X connect 12 0 23 1;
#X connect 13 0 14 0;
#X connect 14 0 12 1;
#X connect 15 0 20 0;
#X connect 16 0 19 0;
#X connect 17 0 21 0;
#X connect 18 0 22 0;
#X connect 19 0 9 0;
#X connect 20 0 8 0;
#X connect 21 0 10 0;
#X connect 22 0 11 0;
#X connect 24 0 28 1;
#X connect 24 0 27 1;
#X connect 24 0 26 1;
#X connect 24 0 25 1;
#X connect 25 0 12 0;
#X connect 26 0 12 0;
#X connect 27 0 12 0;
#X connect 28 0 12 0;
#X connect 29 0 4 0;
#X connect 30 0 5 0;
#X connect 31 0 6 0;
#X connect 32 0 7 0;
#X connect 33 0 30 1;
#X connect 33 0 38 0;
#X connect 34 0 31 1;
#X connect 34 0 39 0;
#X connect 35 0 32 1;
#X connect 35 0 40 0;
#X connect 36 0 29 1;
#X connect 36 0 37 0;
#X connect 37 0 29 0;
#X connect 38 0 30 0;
#X connect 39 0 31 0;
#X connect 40 0 32 0;
#X connect 41 0 28 2;
#X connect 41 0 27 2;
#X connect 41 0 26 2;
#X connect 41 0 25 2;
#X connect 42 0 50 0;
#X connect 42 0 51 0;
#X connect 42 0 74 0;
#X connect 42 0 81 0;
#X connect 42 0 80 0;
#X connect 42 0 79 0;
#X connect 42 0 78 0;
#X connect 42 0 77 0;
#X connect 42 0 76 0;
#X connect 42 0 75 0;
#X connect 42 0 73 0;
#X connect 42 0 72 0;
#X connect 43 0 44 0;
#X connect 44 0 103 0;
#X connect 45 0 44 1;
#X connect 46 0 103 0;
#X connect 47 0 46 1;
#X connect 48 0 45 0;
#X connect 49 0 47 0;
#X connect 50 0 43 0;
#X connect 51 0 92 0;
#X connect 52 0 103 0;
#X connect 53 0 52 1;
#X connect 54 0 103 0;
#X connect 55 0 54 1;
#X connect 56 0 103 0;
#X connect 57 0 56 1;
#X connect 58 0 103 0;
#X connect 59 0 58 1;
#X connect 60 0 103 0;
#X connect 61 0 60 1;
#X connect 62 0 103 0;
#X connect 63 0 62 1;
#X connect 64 0 103 0;
#X connect 65 0 64 1;
#X connect 66 0 103 0;
#X connect 67 0 66 1;
#X connect 68 0 103 0;
#X connect 69 0 68 1;
#X connect 70 0 103 0;
#X connect 71 0 70 1;
#X connect 72 0 93 0;
#X connect 73 0 94 0;
#X connect 74 0 95 0;
#X connect 75 0 96 0;
#X connect 76 0 97 0;
#X connect 77 0 98 0;
#X connect 78 0 99 0;
#X connect 79 0 100 0;
#X connect 80 0 101 0;
#X connect 81 0 102 0;
#X connect 82 0 53 0;
#X connect 83 0 55 0;
#X connect 84 0 57 0;
#X connect 85 0 59 0;
#X connect 86 0 61 0;
#X connect 87 0 63 0;
#X connect 88 0 65 0;
#X connect 89 0 67 0;
#X connect 90 0 69 0;
#X connect 91 0 71 0;
#X connect 92 0 46 0;
#X connect 93 0 52 0;
#X connect 94 0 54 0;
#X connect 95 0 56 0;
#X connect 96 0 58 0;
#X connect 97 0 60 0;
#X connect 98 0 62 0;
#X connect 99 0 64 0;
#X connect 100 0 66 0;
#X connect 101 0 68 0;
#X connect 102 0 70 0;
#X connect 103 0 111 0;
#X connect 103 0 112 0;
#X connect 104 0 42 0;
#X connect 105 0 104 0;
#X connect 106 0 33 0;
#X connect 107 0 33 0;
#X connect 108 0 34 0;
#X connect 109 0 34 0;
#X connect 110 0 36 0;
#X connect 111 0 110 0;
#X connect 111 0 109 0;
#X connect 111 0 107 0;
#X connect 111 1 110 0;
#X connect 111 1 109 0;
#X connect 111 1 106 0;
#X connect 111 2 110 0;
#X connect 111 2 109 0;
#X connect 111 2 106 0;
#X connect 111 3 110 0;
#X connect 111 3 109 0;
#X connect 111 3 107 0;
#X connect 111 4 110 0;
#X connect 111 4 109 0;
#X connect 111 4 107 0;
#X connect 111 5 110 0;
#X connect 111 5 109 0;
#X connect 111 5 106 0;
#X connect 111 6 110 0;
#X connect 111 6 108 0;
#X connect 111 6 106 0;
#X connect 112 0 3 0;
#X connect 113 0 127 0;
#X connect 114 0 115 0;
#X connect 115 0 119 0;
#X connect 116 0 126 0;
#X connect 117 0 115 0;
#X connect 118 0 117 0;
#X connect 119 0 122 0;
#X connect 120 0 123 0;
#X connect 121 0 124 0;
#X connect 122 0 120 0;
#X connect 123 0 121 0;
#X connect 124 0 24 0;
#X connect 125 0 124 1;
#X connect 126 0 114 0;
#X connect 127 0 105 0;
#X connect 128 0 136 0;
#X connect 129 0 133 0;
#X connect 130 0 134 0;
#X connect 131 0 129 0;
#X connect 132 0 131 0;
#X connect 133 0 137 0;
#X connect 134 0 128 0;
#X connect 135 0 138 0;
#X connect 136 0 129 0;
#X connect 137 0 135 0;
#X connect 138 0 41 0;
#X connect 139 0 138 1;
