#N canvas 993 314 438 410 12;
#X obj 153 276 vline~;
#X text 133 30 attack;
#X text 207 39 sustain;
#X text 264 224 release;
#X msg 153 249 1 \$2 \, 0 \$4 \$3;
#X obj 153 222 pack f f f f;
#X obj 207 164 +, f 5;
#X obj 207 128 t b f;
#X obj 134 49 inlet attack, f 6;
#X obj 207 58 inlet sustain, f 7;
#X obj 268 145 inlet release, f 7;
#X obj 88 180 inlet envelope, f 8;
#X text 25 180 activate envelope, f 8;
#X obj 85 73 \$1, f 4;
#X obj 85 35 loadbang, f 4;
#X obj 270 36 loadbang, f 4;
#X obj 270 74 \$2, f 4;
#X obj 361 121 loadbang, f 4;
#X obj 361 159 \$3, f 4;
#X text 15 42 creation arguments are $'s, f 9;
#X obj 153 305 outlet~;
#X text 87 367 Created by Dominic Frugoli - May 2023;
#X text 224 275 Envelope is controlled through [vline~] object with
the message variables, f 22;
#X obj 268 190 moses 0;
#X obj 207 100 moses 0;
#X obj 134 96 moses 0;
#X obj 73 292 print;
#X connect 0 0 20 0;
#X connect 4 0 0 0;
#X connect 4 0 26 0;
#X connect 5 0 4 0;
#X connect 6 0 5 2;
#X connect 7 0 6 0;
#X connect 7 1 6 1;
#X connect 8 0 25 0;
#X connect 9 0 24 0;
#X connect 10 0 23 0;
#X connect 11 0 5 0;
#X connect 13 0 25 0;
#X connect 14 0 13 0;
#X connect 15 0 16 0;
#X connect 16 0 24 0;
#X connect 17 0 18 0;
#X connect 18 0 23 0;
#X connect 23 1 5 3;
#X connect 24 1 7 0;
#X connect 25 1 5 1;
#X connect 25 1 6 0;
