#N canvas 241 25 927 776 12;
#X obj 63 175 soundfiler;
#N canvas 0 22 450 278 (subpatch) 0;
#X array waveformIn 455887 float 2;
#X coords 0 1 455887 -1 200 140 1;
#X restore 322 56 graph;
#X obj 63 74 openpanel;
#X obj 63 50 bng 15 250 50 0 empty empty empty 17 7 0 10 -262144 -1
-1;
#X msg 63 101 read -resize \$1 waveformIn;
#X obj 247 159 s table;
#X obj 751 221 r table;
#X obj 676 264 tabread4~;
#X msg 751 245 set \$1;
#X obj 676 325 *~;
#X obj 697 295 hsl 128 15 0 1 0 0 empty empty empty -2 -8 0 10 -262144
-1 -1 4400 1;
#X obj 676 356 dac~;
#X obj 676 189 vline~;
#X msg 676 157 \$1 \, \$2 \$3;
#X obj 676 125 pack f f f;
#X obj 63 198 s length;
#X obj 325 239 hsl 195 30 0 455887 0 0 empty empty StartTime -2 8 0
10 -204786 -1 -1 0 1;
#X msg 227 220 range 0 \$1;
#X obj 227 269 s start;
#X obj 676 55 r start;
#X obj 658 82 f;
#X obj 560 32 bng 50 250 50 0 empty empty Play -25 7 0 10 -204786 -1
-1;
#X msg 607 170 stop;
#X msg 799 157 \$1 30;
#X obj 799 128 r start;
#X obj 325 269 hsl 195 30 0 455887 0 0 empty empty EndTime -2 8 0 10
-261234 -1 -1 19400 1;
#X obj 227 299 s end;
#X obj 527 201 r length;
#X msg 527 220 0;
#X obj 861 128 r end;
#X msg 861 157 \$1 30;
#X obj 709 78 r end;
#X obj 172 304 r end;
#X obj 25 304 r start;
#X obj 172 329 t b f;
#X obj 25 439 s duration;
#X obj 743 101 r duration;
#X obj 325 299 hsl 195 30 0.0001 2 0 0 empty empty PlaybackSpeed -2
8 0 10 -232576 -1 -1 5600 1;
#X obj 227 329 s playspeed;
#X obj 25 411 / 1;
#X obj 65 392 r playspeed;
#X obj 528 261 loadbang;
#X msg 528 280 1;
#X floatatom 110 420 5 0 0 0 - - -;
#X obj 592 201 r playspeed;
#X obj 592 220 t b;
#X obj 592 250 t b;
#X obj 152 128 unpack s s s s;
#X obj 161 173 r length;
#X obj 161 201 t f f;
#X obj 143 22 loadbang;
#X msg 143 50 \; pd dsp 1;
#X obj 559 120 bng 50 250 50 0 empty empty Stop -25 7 0 10 -261234
-1 -1;
#X obj 528 368 s playspeed;
#X obj 63 220 r length;
#X floatatom 402 28 10 0 0 2 File_Length_(in_seconds) - -;
#X obj 63 242 / 44100;
#X obj 63 264 s seclength;
#X obj 228 9 r seclength;
#X obj 25 359 expr abs($f2 - $f1) / 44.1;
#X connect 0 0 15 0;
#X connect 2 0 4 0;
#X connect 3 0 2 0;
#X connect 4 0 0 0;
#X connect 4 0 47 0;
#X connect 6 0 8 0;
#X connect 7 0 9 0;
#X connect 8 0 7 0;
#X connect 9 0 11 0;
#X connect 9 0 11 1;
#X connect 10 0 9 1;
#X connect 12 0 7 0;
#X connect 13 0 12 0;
#X connect 14 0 13 0;
#X connect 16 0 18 0;
#X connect 17 0 16 0;
#X connect 17 0 25 0;
#X connect 19 0 20 1;
#X connect 20 0 14 0;
#X connect 21 0 20 0;
#X connect 22 0 12 0;
#X connect 23 0 12 0;
#X connect 24 0 23 0;
#X connect 25 0 26 0;
#X connect 27 0 28 0;
#X connect 28 0 16 0;
#X connect 29 0 30 0;
#X connect 30 0 12 0;
#X connect 31 0 14 1;
#X connect 32 0 34 0;
#X connect 33 0 59 0;
#X connect 34 0 59 0;
#X connect 34 1 59 1;
#X connect 36 0 14 2;
#X connect 37 0 38 0;
#X connect 39 0 35 0;
#X connect 40 0 39 1;
#X connect 40 0 43 0;
#X connect 41 0 42 0;
#X connect 42 0 37 0;
#X connect 42 0 53 0;
#X connect 44 0 45 0;
#X connect 44 0 46 0;
#X connect 45 0 16 0;
#X connect 46 0 25 0;
#X connect 47 3 5 0;
#X connect 48 0 49 0;
#X connect 49 0 25 0;
#X connect 49 1 17 0;
#X connect 50 0 51 0;
#X connect 52 0 22 0;
#X connect 54 0 56 0;
#X connect 56 0 57 0;
#X connect 58 0 55 0;
#X connect 59 0 39 0;
